{"glyphs":{"0":{"ha":694,"x_min":39,"x_max":655,"o":"m 352 737 q 565 626 475 737 q 655 367 655 514 q 564 103 655 218 q 341 -12 473 -12 q 126 98 214 -12 q 39 359 39 208 q 82 547 39 461 q 195 685 126 633 q 352 737 264 737 m 351 711 q 206 616 260 711 q 151 358 151 522 q 208 107 151 199 q 346 15 265 15 q 485 92 430 15 q 540 376 540 169 q 488 629 540 546 q 351 711 436 711 z "},"1":{"ha":694,"x_min":197,"x_max":530,"o":"m 428 632 q 424 322 424 389 q 433 65 424 98 q 503 26 443 32 q 530 15 530 24 q 509 -1 530 -1 q 497 -1 504 -1 q 421 1 474 1 q 251 -1 311 1 q 231 -2 238 -2 q 209 10 209 -2 q 232 24 209 23 q 318 57 302 29 q 334 184 334 85 q 331 530 334 454 q 307 631 328 606 q 241 656 286 656 q 204 660 212 656 q 197 672 197 663 q 221 683 197 682 q 321 698 268 684 q 405 733 375 712 q 417 739 412 739 q 428 720 428 739 l 428 632 z "},"2":{"ha":694,"x_min":65,"x_max":620,"o":"m 543 1 q 476 -1 507 -1 l 179 2 q 87 0 109 2 q 65 13 65 0 q 76 27 65 19 q 406 330 320 206 q 491 556 491 453 q 462 659 491 615 q 373 702 433 702 q 211 616 275 702 q 146 438 146 530 q 163 375 146 396 q 212 354 179 354 q 270 375 237 354 q 326 460 303 396 q 341 477 332 477 q 355 463 355 477 q 335 413 355 451 q 275 346 316 375 q 195 316 234 316 q 110 354 146 316 q 73 441 73 391 q 182 636 73 536 q 408 736 291 736 q 545 690 487 736 q 602 555 602 644 q 547 395 602 471 q 321 189 491 319 q 200 92 231 119 l 405 92 q 523 103 494 92 q 584 160 551 114 q 609 184 602 184 q 620 174 620 184 l 543 1 z "},"3":{"ha":694,"x_min":71,"x_max":604,"o":"m 412 410 q 553 363 501 410 q 604 246 604 315 q 511 69 604 152 q 290 -14 418 -14 q 129 32 187 -14 q 71 127 71 78 q 90 176 71 155 q 138 197 109 197 q 173 182 159 197 q 186 150 186 168 q 178 124 186 140 q 169 92 169 107 q 203 34 169 56 q 285 12 237 12 q 394 50 349 12 q 468 165 438 88 q 497 281 497 243 q 469 360 497 332 q 403 389 441 389 q 321 347 375 389 q 274 315 279 315 q 262 328 262 315 q 325 381 262 333 q 461 513 439 469 q 484 595 484 557 q 454 677 484 645 q 377 709 424 709 q 262 656 313 709 q 211 538 211 604 q 224 487 211 504 q 265 469 238 469 q 339 532 306 469 q 351 540 344 540 q 363 528 363 540 q 325 468 363 513 q 235 424 286 424 q 163 452 189 424 q 138 520 138 481 q 217 669 138 601 q 408 736 295 736 q 538 697 494 736 q 583 603 583 658 q 561 531 583 562 q 510 479 538 500 l 412 410 z "},"4":{"ha":694,"x_min":36,"x_max":652,"o":"m 370 279 q 37 274 215 279 q 36 286 36 282 q 37 299 36 290 q 429 739 224 530 q 450 741 446 741 q 465 733 461 741 q 467 642 467 680 l 463 394 q 465 308 463 364 q 594 336 564 308 q 627 429 625 363 q 640 445 627 445 q 652 427 652 445 q 652 412 652 421 q 648 321 648 380 l 651 174 q 637 159 651 159 q 625 172 628 159 q 591 258 611 236 q 513 281 570 281 q 465 279 503 281 q 467 76 465 97 q 488 41 469 56 q 553 26 506 26 q 574 14 574 26 q 537 0 574 0 l 281 0 q 243 14 243 0 q 275 26 243 26 q 350 57 335 28 q 370 279 366 86 m 370 308 q 376 640 378 427 q 221 471 281 533 q 83 305 161 409 q 317 309 191 309 q 370 308 328 309 z "},"5":{"ha":694,"x_min":78,"x_max":603,"o":"m 271 631 q 234 415 240 473 q 311 462 272 446 q 392 477 351 477 q 538 423 474 477 q 603 277 603 369 q 503 76 603 164 q 283 -13 403 -13 q 138 29 197 -13 q 78 134 78 71 q 97 182 78 166 q 139 197 115 197 q 174 184 158 197 q 191 152 191 171 q 185 121 191 141 q 179 89 179 100 q 203 38 179 63 q 282 13 227 13 q 438 95 381 13 q 495 302 495 178 q 467 414 495 376 q 382 451 439 451 q 267 404 316 451 q 212 309 218 356 q 197 281 209 281 q 185 294 185 281 q 216 495 185 298 l 239 645 q 256 726 248 705 q 401 706 376 706 q 555 786 494 706 q 575 802 566 802 q 585 793 585 802 q 517 685 585 744 q 341 627 450 627 q 271 631 316 627 z "},"6":{"ha":694,"x_min":75,"x_max":639,"o":"m 184 391 q 281 445 231 427 q 385 463 331 463 q 557 399 488 463 q 626 241 626 335 q 549 67 626 146 q 345 -13 473 -13 q 151 74 227 -13 q 75 319 75 160 q 131 551 75 458 q 264 694 186 645 q 455 743 341 743 q 588 707 536 743 q 639 622 639 671 q 621 573 639 591 q 580 555 602 555 q 528 610 528 555 q 525 675 528 663 q 498 702 522 688 q 435 716 474 716 q 273 631 340 716 q 184 391 207 546 m 176 233 q 225 72 176 131 q 351 12 275 12 q 473 77 430 12 q 517 229 517 142 q 473 374 517 315 q 355 432 430 432 q 229 381 282 432 q 176 233 176 330 z "},"7":{"ha":694,"x_min":94,"x_max":616,"o":"m 616 721 l 610 701 q 497 468 543 584 q 439 292 450 352 q 421 75 429 231 q 357 -33 416 -33 q 317 -13 332 -33 q 302 37 302 7 q 406 336 302 109 l 532 608 q 538 624 538 619 q 525 633 538 633 l 437 633 q 234 632 276 633 q 166 606 193 631 q 127 557 139 580 q 106 537 117 537 q 94 551 94 537 q 115 654 94 564 q 144 757 136 743 q 159 770 151 770 q 176 755 170 770 q 199 731 183 739 q 273 723 215 723 l 426 725 q 616 721 507 725 z "},"8":{"ha":694,"x_min":98,"x_max":609,"o":"m 444 412 q 568 325 526 376 q 609 210 609 275 q 527 54 609 121 q 345 -13 446 -13 q 174 42 249 -13 q 98 172 98 98 q 136 267 98 224 q 272 367 173 310 q 127 540 127 427 q 195 690 127 623 q 368 757 264 757 q 519 711 453 757 q 586 592 586 665 q 552 499 586 542 q 444 412 518 456 m 413 425 q 502 497 479 459 q 526 585 526 535 q 478 693 526 654 q 366 732 431 732 q 247 694 296 732 q 198 592 198 655 q 242 500 198 534 q 413 425 286 467 m 302 355 q 166 168 166 273 q 214 60 166 106 q 345 14 261 14 q 476 60 428 14 q 524 171 524 106 q 498 254 524 215 q 413 313 473 292 q 302 355 354 334 z "},"9":{"ha":694,"x_min":60,"x_max":629,"o":"m 520 338 q 418 282 469 301 q 319 264 368 264 q 151 327 223 264 q 78 490 78 389 q 165 671 78 600 q 350 743 252 743 q 548 656 466 743 q 629 414 629 570 q 522 96 629 224 q 249 -32 414 -32 q 111 3 161 -32 q 60 93 60 39 q 79 143 60 124 q 122 161 98 161 q 173 111 173 161 q 172 87 173 101 q 170 61 170 69 q 269 -3 170 -3 q 431 82 368 -3 q 520 338 494 168 m 185 508 q 231 354 185 412 q 346 296 277 296 q 473 347 418 296 q 527 498 527 397 q 478 656 527 597 q 351 716 429 716 q 232 654 278 716 q 185 508 185 592 z "}," ":{"ha":347,"x_min":0,"x_max":0,"o":""},"!":{"ha":304,"x_min":85,"x_max":219,"o":"m 149 900 q 217 803 217 900 q 201 646 217 772 q 176 408 188 543 q 164 256 164 273 q 163 218 164 222 q 151 214 162 214 q 132 225 132 214 l 133 251 q 120 448 133 290 q 90 758 108 606 q 85 815 85 793 q 104 876 85 852 q 149 900 122 900 m 152 119 q 199 100 180 119 q 219 53 219 80 q 199 5 219 25 q 152 -14 180 -14 q 105 5 125 -14 q 85 53 85 25 q 105 100 85 81 q 152 119 125 119 z "},"\"":{"ha":564,"x_min":90,"x_max":475,"o":"m 142 545 l 105 745 q 90 858 90 828 q 157 941 90 941 q 205 921 184 941 q 226 865 226 902 q 208 745 226 840 l 172 545 l 142 545 m 391 545 l 354 743 q 338 859 338 829 q 408 941 338 941 q 457 919 439 941 q 475 866 475 898 q 462 743 475 810 l 423 545 l 391 545 z "},"#":{"ha":926,"x_min":64,"x_max":862,"o":"m 64 644 l 291 644 l 351 926 l 410 926 l 350 644 l 659 644 l 718 926 l 777 926 l 718 644 l 862 644 l 862 584 l 706 584 l 648 309 l 862 309 l 862 249 l 636 249 l 578 -32 l 518 -32 l 577 249 l 267 249 l 210 -32 l 149 -32 l 208 249 l 64 249 l 64 309 l 220 309 l 278 584 l 64 584 l 64 644 m 337 584 l 279 310 l 589 310 l 647 584 l 337 584 z "},"$":{"ha":694,"x_min":63,"x_max":621,"o":"m 319 823 l 358 823 l 358 740 q 530 686 471 733 q 589 590 589 639 q 574 545 589 566 q 534 524 559 524 q 499 537 515 524 q 484 575 484 551 q 500 616 484 593 q 513 643 513 634 q 471 687 513 667 q 358 713 428 708 l 358 427 q 565 335 509 387 q 621 199 621 283 q 555 40 621 101 q 358 -31 489 -20 l 358 -198 l 319 -198 l 319 -31 q 137 27 211 -31 q 63 166 63 85 q 81 214 63 193 q 121 235 98 235 q 163 216 146 235 q 179 174 179 198 q 142 116 179 137 q 129 97 129 109 q 183 34 129 67 q 319 -5 237 1 l 319 327 q 123 427 160 374 q 85 538 85 480 q 154 683 85 632 q 319 740 223 734 l 319 823 m 319 713 q 189 673 237 706 q 140 581 140 640 q 183 498 140 531 q 319 440 225 466 l 319 713 m 358 -5 q 500 42 448 -3 q 551 147 551 87 q 515 237 551 196 q 358 317 479 277 l 358 -5 z "},"%":{"ha":1027,"x_min":56,"x_max":971,"o":"m 258 905 q 396 841 335 905 q 458 677 458 777 q 396 510 458 573 q 258 448 335 448 q 119 510 181 448 q 56 672 56 572 q 117 840 56 774 q 258 905 178 905 m 266 881 q 176 828 212 881 q 141 664 141 775 q 174 524 141 573 q 255 475 206 475 q 341 528 306 475 q 376 688 376 581 q 340 835 376 789 q 266 881 304 881 m 774 902 l 817 902 l 263 -16 l 221 -16 l 774 902 m 772 439 q 909 375 847 439 q 971 211 971 312 q 908 42 971 102 q 771 -19 846 -19 q 631 45 692 -19 q 570 205 570 109 q 629 371 570 304 q 772 439 688 439 m 779 415 q 687 358 720 415 q 654 197 654 300 q 687 58 654 106 q 768 9 720 9 q 856 66 823 9 q 889 222 889 123 q 854 367 889 318 q 779 415 820 415 z "},"&":{"ha":955,"x_min":64,"x_max":927,"o":"m 656 220 q 751 76 718 102 q 818 50 785 50 q 904 86 863 50 q 912 91 909 91 q 926 77 926 91 q 864 26 926 64 q 741 -13 802 -13 q 673 9 705 -13 q 583 134 642 31 q 291 -13 431 -13 q 130 45 195 -13 q 64 192 64 104 q 117 343 64 275 q 298 492 171 411 q 176 705 176 614 q 231 831 176 783 q 357 879 286 879 q 469 839 420 879 q 519 733 519 798 q 398 543 519 646 q 641 250 557 412 q 728 461 728 386 q 707 516 728 495 q 648 536 686 536 q 614 549 614 536 q 629 563 614 563 l 748 558 l 908 559 q 927 547 927 559 q 903 534 927 534 q 819 498 854 533 q 737 361 785 464 q 656 220 692 263 m 375 565 q 462 723 462 642 q 428 809 462 772 q 349 846 394 846 q 280 815 306 846 q 254 743 254 784 q 375 565 254 663 m 321 470 q 212 374 252 425 q 172 250 172 323 q 227 108 172 165 q 353 51 281 51 q 568 162 457 51 q 470 317 512 263 q 321 470 427 371 z "},"'":{"ha":246,"x_min":55,"x_max":191,"o":"m 107 545 l 71 745 q 55 853 55 829 q 121 941 55 941 q 172 920 152 941 q 191 866 191 900 q 174 745 191 842 l 137 545 l 107 545 z "},"(":{"ha":420,"x_min":67,"x_max":363,"o":"m 67 281 q 103 524 67 392 q 204 763 140 656 q 294 898 269 870 q 330 925 319 925 q 363 912 363 925 q 357 901 363 908 q 208 631 283 815 q 134 262 134 448 q 202 -89 134 83 q 342 -336 271 -261 q 356 -355 356 -350 q 315 -369 356 -369 q 215 -252 284 -369 q 106 -2 145 -136 q 67 281 67 131 z "},")":{"ha":420,"x_min":57,"x_max":353,"o":"m 353 275 q 323 56 353 185 q 207 -221 293 -73 q 90 -369 120 -369 q 57 -356 57 -369 q 62 -345 57 -352 q 212 -75 137 -259 q 286 294 286 109 q 215 654 286 484 q 77 892 143 823 q 64 911 64 906 q 105 925 64 925 q 205 808 136 925 q 314 559 275 692 q 353 275 353 426 z "},"*":{"ha":694,"x_min":57,"x_max":637,"o":"m 339 930 q 379 871 379 930 q 373 793 379 847 l 360 684 l 359 677 q 365 669 359 669 q 374 677 369 669 q 534 848 484 848 q 555 840 545 848 q 566 818 566 831 q 559 795 566 804 q 486 738 553 787 q 392 669 420 688 q 383 659 383 664 q 393 652 383 652 q 401 653 397 652 q 493 669 425 659 q 576 679 561 679 q 637 640 637 679 q 597 606 637 606 q 522 614 581 606 l 406 632 l 391 635 q 384 629 384 635 q 391 621 384 626 q 510 535 450 584 q 570 460 570 486 q 558 438 570 448 q 534 429 547 429 q 477 466 510 429 q 380 597 444 503 q 370 608 374 608 q 366 600 366 608 q 367 588 366 595 q 384 394 384 469 q 350 349 384 349 q 311 399 311 349 q 322 497 311 429 q 342 595 334 566 l 344 600 q 337 607 344 607 l 332 603 q 242 481 294 543 q 171 419 191 419 q 148 430 157 419 q 138 452 138 441 q 145 476 138 467 q 201 528 152 486 q 292 598 250 570 q 316 618 316 614 q 311 622 316 622 l 304 621 q 212 605 292 618 q 109 591 132 591 q 57 631 57 591 q 107 668 57 668 q 190 659 135 668 l 296 642 l 311 639 q 318 644 318 639 q 302 659 318 648 q 264 686 291 666 q 162 760 205 730 q 120 816 120 789 q 131 839 120 829 q 155 848 142 848 q 198 823 172 848 q 290 717 224 798 q 335 667 332 667 q 340 673 340 667 l 338 684 q 304 874 304 806 q 339 930 304 930 z "},"+":{"ha":926,"x_min":98,"x_max":827,"o":"m 98 391 l 432 391 l 432 726 l 492 726 l 492 391 l 827 391 l 827 331 l 492 331 l 492 -1 l 432 -1 l 432 331 l 98 331 l 98 391 z "},",":{"ha":304,"x_min":54,"x_max":236,"o":"m 141 125 q 206 94 176 125 q 236 22 236 63 q 200 -96 236 -35 q 120 -186 164 -157 q 66 -216 76 -216 q 54 -202 54 -216 q 68 -189 54 -197 q 132 -126 100 -171 q 163 -36 163 -81 q 137 -9 163 -11 q 81 15 96 -5 q 65 55 65 35 q 85 104 65 82 q 141 125 104 125 z "},"-":{"ha":477,"x_min":23,"x_max":454,"o":"m 58 329 l 433 329 q 452 326 450 329 q 454 302 454 323 l 454 264 q 451 241 454 244 q 423 239 448 239 l 58 239 q 27 242 31 239 q 23 264 23 245 l 23 302 q 27 326 23 323 q 58 329 31 329 z "},".":{"ha":304,"x_min":85,"x_max":219,"o":"m 152 125 q 199 106 179 125 q 219 58 219 87 q 199 11 219 31 q 152 -9 180 -9 q 105 11 125 -9 q 85 58 85 31 q 105 105 85 85 q 152 125 125 125 z "},"/":{"ha":694,"x_min":79,"x_max":616,"o":"m 556 967 l 616 967 l 138 -25 l 79 -25 l 556 967 z "},":":{"ha":304,"x_min":85,"x_max":219,"o":"m 152 489 q 199 469 180 489 q 219 422 219 450 q 199 375 219 395 q 152 355 180 355 q 105 375 124 355 q 85 422 85 395 q 105 469 85 450 q 152 489 125 489 m 152 125 q 199 106 179 125 q 219 58 219 87 q 199 11 219 31 q 152 -9 180 -9 q 105 11 125 -9 q 85 58 85 31 q 105 105 85 85 q 152 125 125 125 z "},";":{"ha":304,"x_min":54,"x_max":236,"o":"m 153 489 q 199 469 180 489 q 219 422 219 450 q 199 375 219 395 q 153 355 180 355 q 105 375 125 355 q 85 422 85 395 q 105 469 85 450 q 153 489 125 489 m 141 125 q 206 94 176 125 q 236 22 236 63 q 200 -96 236 -35 q 120 -186 164 -157 q 66 -216 76 -216 q 54 -202 54 -216 q 68 -189 54 -197 q 132 -126 100 -171 q 163 -36 163 -81 q 137 -9 163 -11 q 81 15 96 -5 q 65 55 65 35 q 85 104 65 82 q 141 125 104 125 z "},"<":{"ha":926,"x_min":100,"x_max":826,"o":"m 826 27 l 100 336 l 100 389 l 826 696 l 826 631 l 178 363 l 826 93 l 826 27 z "},"=":{"ha":926,"x_min":100,"x_max":827,"o":"m 100 551 l 827 551 l 827 492 l 100 492 l 100 551 m 100 237 l 827 237 l 827 177 l 100 177 l 100 237 z "},">":{"ha":926,"x_min":100,"x_max":826,"o":"m 100 696 l 826 388 l 826 334 l 100 27 l 100 92 l 747 361 l 100 631 l 100 696 z "},"?":{"ha":593,"x_min":73,"x_max":509,"o":"m 128 509 q 252 444 203 444 q 359 513 311 444 q 408 678 408 581 q 359 827 408 771 q 248 884 310 884 q 186 840 186 884 q 187 823 186 833 q 189 805 189 812 q 172 761 189 778 q 132 743 155 743 q 73 806 73 743 q 123 881 73 854 q 243 907 174 907 q 430 829 351 907 q 509 648 509 751 q 444 474 509 543 q 288 406 378 406 q 168 444 229 406 q 156 242 156 297 q 153 223 156 227 q 138 219 151 219 q 123 238 123 219 l 123 270 q 128 509 123 436 m 151 121 q 198 102 178 121 q 218 54 218 83 q 198 7 218 26 q 151 -13 178 -13 q 103 7 123 -13 q 83 54 83 26 q 103 102 83 83 q 151 121 123 121 z "},"@":{"ha":1273,"x_min":66,"x_max":1245,"o":"m 955 650 l 876 379 q 812 123 812 163 q 826 86 812 102 q 864 70 840 70 q 988 124 919 70 q 1104 288 1058 179 q 1151 513 1151 396 q 1028 811 1151 693 q 711 930 906 930 q 419 846 551 930 q 209 608 288 762 q 130 281 130 454 q 279 -107 130 43 q 656 -258 429 -258 q 907 -206 793 -258 q 1092 -68 1021 -153 q 1206 117 1164 18 l 1245 117 q 1023 -184 1187 -68 q 659 -300 859 -300 q 234 -128 401 -300 q 66 298 66 43 q 251 771 66 578 q 715 964 437 964 q 1061 833 931 964 q 1192 498 1192 701 q 1084 165 1192 309 q 819 21 977 21 q 740 45 766 21 q 713 115 713 68 q 726 214 713 152 q 458 20 570 20 q 370 68 404 20 q 336 180 336 116 q 394 387 336 272 q 545 578 452 503 q 711 654 637 654 q 786 630 758 654 q 826 560 815 607 l 848 635 l 955 650 m 717 622 q 535 461 628 622 q 443 201 443 301 q 464 132 443 162 q 522 102 486 102 q 662 185 586 102 q 770 367 739 267 q 802 522 802 467 q 779 593 802 564 q 717 622 757 622 z "},"A":{"ha":955,"x_min":4,"x_max":930,"o":"m 446 905 l 477 905 q 687 374 553 750 q 805 79 773 134 q 907 18 837 24 q 930 3 930 16 q 918 -6 930 -6 l 909 -5 q 750 0 846 0 q 560 -5 602 0 q 539 7 539 -5 q 555 18 539 16 q 634 38 612 24 q 656 83 656 52 q 615 229 656 112 l 575 345 q 260 341 540 345 q 189 104 189 153 q 224 43 189 63 q 293 21 259 23 q 318 5 318 19 q 310 -5 318 0 q 179 0 201 0 q 26 -3 65 0 q 4 9 4 -3 q 23 23 4 20 q 142 129 101 33 q 271 473 184 224 q 446 905 351 699 m 419 758 q 272 383 356 629 q 372 387 342 387 l 563 383 q 492 570 538 454 q 419 758 437 709 z "},"B":{"ha":854,"x_min":47,"x_max":795,"o":"m 544 479 q 733 387 670 446 q 795 241 795 327 q 718 73 795 150 q 488 -5 640 -5 q 397 -2 460 -5 q 354 0 357 0 q 72 -4 145 0 q 47 9 47 -4 q 55 18 47 16 q 107 29 62 21 q 150 52 134 34 q 174 127 165 71 q 182 294 182 183 q 184 472 182 404 q 187 575 187 539 q 179 755 187 687 q 155 841 170 823 q 91 867 139 860 q 71 882 71 870 q 91 894 71 894 l 214 892 q 328 895 275 892 q 481 901 446 901 q 680 846 606 901 q 753 696 753 791 q 705 568 753 621 q 544 479 657 514 m 311 852 q 305 612 305 704 l 306 511 q 312 486 306 491 q 343 480 317 480 q 550 527 472 480 q 628 686 628 574 q 570 826 628 780 q 426 873 512 873 q 311 852 376 873 m 311 448 q 302 389 302 431 l 297 179 q 303 55 297 68 q 342 33 309 42 q 448 24 376 24 q 553 42 513 24 q 627 113 593 60 q 661 240 661 166 q 596 401 661 350 q 405 453 532 453 q 311 448 362 453 z "},"C":{"ha":897,"x_min":67,"x_max":871,"o":"m 755 831 q 798 876 792 865 q 817 892 804 892 q 832 868 831 892 l 848 631 q 846 607 848 611 q 836 602 844 602 q 813 631 825 602 q 688 808 768 739 q 513 877 608 877 q 361 824 431 877 q 254 672 292 770 q 216 460 216 573 q 322 147 216 267 q 559 26 428 26 q 722 83 648 26 q 835 213 797 139 q 856 233 845 233 q 871 217 871 233 q 819 131 871 197 q 684 23 768 64 q 504 -18 600 -18 q 289 39 391 -18 q 127 199 186 97 q 67 437 67 300 q 125 680 67 572 q 288 847 183 787 q 505 907 393 907 q 627 888 565 907 q 755 831 690 869 z "},"D":{"ha":1056,"x_min":18,"x_max":996,"o":"m 320 887 l 460 890 q 861 761 725 890 q 996 436 996 632 q 931 194 996 297 q 768 39 866 92 q 508 -13 671 -13 q 415 -9 471 -13 q 302 -1 315 -1 q 41 -5 80 -1 q 18 6 18 -5 q 26 17 18 14 q 77 25 35 20 q 153 68 131 33 q 180 292 175 104 l 191 651 q 183 771 191 713 q 156 846 174 829 q 99 869 138 863 q 71 884 71 873 q 85 899 71 899 q 168 893 98 899 q 320 887 237 887 m 296 232 q 308 104 296 142 q 359 41 320 66 q 484 16 398 16 q 684 75 608 16 q 804 230 761 133 q 847 436 847 327 q 749 728 847 597 q 443 859 650 859 q 335 853 351 859 q 320 817 320 847 q 315 723 320 791 q 307 568 309 624 l 300 382 q 296 232 296 251 z "},"E":{"ha":911,"x_min":41,"x_max":862,"o":"m 774 880 q 813 667 794 804 q 806 661 810 661 q 795 667 801 661 q 706 781 749 742 q 620 837 663 821 q 472 854 577 854 q 315 842 373 854 q 310 817 310 836 q 309 800 310 812 q 302 506 302 746 q 303 477 302 496 q 374 475 355 475 q 497 501 459 475 q 564 610 536 526 q 578 625 569 625 q 591 605 591 625 l 588 578 q 583 467 583 524 q 586 301 583 375 q 573 278 586 278 q 560 294 564 278 q 500 410 546 374 q 303 445 455 445 q 301 285 301 395 q 311 103 301 142 q 360 42 321 64 q 491 19 399 19 q 831 201 755 19 q 851 223 841 223 q 862 208 862 223 q 859 191 862 200 q 839 94 854 178 q 813 -12 836 77 l 529 -11 q 350 -6 468 -11 q 140 0 231 -1 q 45 3 49 0 q 41 11 41 7 q 63 24 41 24 q 162 64 138 24 q 186 259 186 104 l 185 398 l 187 528 q 183 677 187 568 q 175 802 178 787 q 154 833 171 818 q 77 864 136 848 q 60 879 60 869 q 83 891 60 891 l 222 884 q 582 880 295 880 q 774 880 770 880 z "},"F":{"ha":868,"x_min":41,"x_max":832,"o":"m 307 452 l 305 284 q 311 88 305 109 q 334 45 316 67 q 409 20 352 23 q 439 5 439 18 q 418 -10 439 -10 q 375 -7 410 -10 q 250 0 304 0 q 122 -5 204 0 l 84 -7 q 62 6 62 -7 q 94 20 62 20 q 157 44 138 20 q 181 169 176 68 q 187 433 187 269 q 182 676 187 587 q 166 793 176 766 q 137 833 157 821 q 62 848 117 845 q 41 862 41 850 q 60 874 41 873 q 701 888 229 888 q 788 885 781 888 q 799 877 795 883 q 817 783 802 870 q 832 691 832 695 q 820 677 832 677 q 803 690 811 677 q 492 857 707 857 q 373 850 418 857 q 319 834 327 844 q 310 749 312 825 q 307 484 307 673 q 381 481 361 481 q 517 523 479 481 q 557 610 555 565 q 573 640 559 640 q 588 619 588 640 q 587 602 588 612 q 582 401 582 563 l 582 322 q 565 294 582 294 q 550 315 551 294 q 511 415 548 376 q 367 454 475 454 q 307 452 349 454 z "},"G":{"ha":1071,"x_min":62,"x_max":1040,"o":"m 918 603 q 899 625 909 603 q 752 813 844 747 q 558 880 661 880 q 394 828 473 880 q 264 670 315 777 q 214 443 214 564 q 317 145 214 271 q 575 20 420 20 q 669 37 630 20 q 742 85 707 54 q 783 133 776 117 q 790 215 790 149 q 761 361 790 326 q 666 397 731 397 l 645 396 q 625 409 625 396 q 647 425 625 425 l 683 423 l 836 425 l 1024 429 q 1040 415 1040 429 q 1022 399 1040 401 q 954 381 980 395 q 921 349 927 367 q 915 287 915 330 q 907 113 915 128 q 781 41 900 97 q 543 -14 663 -14 q 203 113 344 -14 q 62 436 62 241 q 129 679 62 570 q 311 848 195 788 q 547 908 427 908 q 790 844 660 908 q 842 825 827 825 q 874 844 863 825 q 892 859 884 859 q 911 820 908 859 q 930 631 915 758 q 932 619 932 625 q 918 603 932 603 z "},"H":{"ha":1056,"x_min":40,"x_max":1017,"o":"m 748 465 l 754 654 q 729 817 754 778 q 646 856 705 856 q 612 870 612 856 q 633 883 612 883 l 830 876 l 998 880 q 1017 867 1017 880 q 1004 857 1017 857 q 924 842 953 857 q 887 791 896 827 q 872 586 878 755 q 866 340 866 416 l 864 173 q 879 72 864 95 q 923 35 894 48 q 984 18 953 22 q 1006 5 1006 16 q 987 -5 1006 -5 l 779 0 l 642 -5 q 618 7 618 -5 q 635 18 618 18 q 706 33 690 22 q 733 74 723 43 q 745 177 743 104 l 748 423 q 629 427 690 427 q 296 418 367 427 q 291 203 291 288 q 295 87 291 109 q 320 47 299 66 q 379 21 342 28 q 402 6 402 16 q 387 -6 402 -6 q 374 -5 382 -6 q 222 -1 337 -1 q 68 -6 96 -1 q 56 -7 62 -7 q 40 3 40 -7 q 61 18 40 15 q 136 47 113 24 q 166 220 158 70 q 175 584 175 370 q 159 804 175 758 q 79 854 142 849 q 65 865 65 855 q 94 878 65 878 l 368 882 q 402 881 397 882 q 408 869 408 879 q 391 857 408 859 q 309 832 323 850 q 294 612 294 814 q 296 465 294 591 q 459 460 366 460 q 748 465 580 460 z "},"I":{"ha":521,"x_min":80,"x_max":441,"o":"m 94 895 l 218 892 l 407 895 q 441 881 441 895 q 422 868 441 871 q 329 814 347 859 q 310 483 310 769 q 315 246 310 378 q 328 89 321 115 q 353 47 334 63 q 424 24 372 31 q 441 11 441 22 q 425 -1 441 -1 l 257 0 l 114 -2 q 90 12 90 -2 q 109 26 90 26 q 183 68 172 27 q 194 328 194 109 q 190 670 194 539 q 168 830 186 801 q 99 867 150 859 q 80 882 80 870 q 94 895 80 895 z "},"J":{"ha":535,"x_min":2,"x_max":511,"o":"m 168 887 l 178 886 q 367 880 250 880 q 456 882 418 880 q 490 884 479 884 q 511 871 511 884 q 494 857 511 857 q 417 835 440 857 q 390 719 395 813 q 385 512 385 625 l 385 265 q 304 50 385 115 q 145 -15 224 -15 q 43 15 85 -15 q 2 96 2 45 q 19 144 2 126 q 62 163 36 163 q 104 147 88 163 q 119 111 119 131 q 111 83 119 98 q 100 53 100 63 q 114 25 100 36 q 149 14 128 14 q 228 47 197 14 q 264 150 259 80 q 270 452 270 220 q 262 792 270 735 q 171 857 254 849 q 151 871 151 859 q 168 887 151 887 z "},"K":{"ha":941,"x_min":54,"x_max":916,"o":"m 298 451 q 402 535 364 495 q 521 662 440 574 q 618 778 602 749 q 634 820 634 807 q 616 848 634 836 q 574 865 598 861 q 547 880 547 869 q 569 892 547 892 q 584 893 574 892 q 734 895 609 895 q 854 893 821 895 q 888 880 888 891 q 869 866 888 869 q 760 832 806 857 q 616 712 713 806 q 448 530 518 618 q 580 508 526 530 q 669 432 633 486 q 730 250 705 378 q 890 24 775 33 q 916 9 916 22 q 904 -1 916 -1 l 842 1 q 683 -2 703 1 q 640 85 650 42 q 613 235 630 127 q 564 408 598 328 q 457 487 530 487 q 357 455 409 487 q 298 409 306 424 q 290 229 290 393 q 297 87 290 114 q 328 44 304 60 q 393 24 352 28 q 417 9 417 22 q 400 -2 417 -2 l 392 -1 q 254 0 373 0 q 91 -3 110 0 q 77 -4 81 -4 q 61 8 61 -4 q 80 22 61 19 q 134 42 116 26 q 157 77 152 57 q 171 211 162 97 q 179 401 179 325 q 177 571 179 501 q 169 723 175 641 q 155 822 163 806 q 134 848 148 839 q 71 863 121 857 q 54 876 54 865 q 85 890 54 890 l 140 891 l 380 894 q 399 882 399 894 q 393 872 399 876 q 355 865 387 869 q 315 858 323 861 q 299 840 307 854 q 291 794 291 826 q 298 451 291 718 z "},"L":{"ha":854,"x_min":29,"x_max":841,"o":"m 797 -3 q 759 -5 764 -5 q 668 -2 734 -5 q 395 0 602 0 l 222 0 q 153 -3 213 0 q 81 -6 94 -6 q 29 7 29 -6 q 50 19 29 18 q 141 47 115 23 q 176 116 167 71 q 186 360 186 161 l 186 603 q 176 768 186 721 q 133 839 165 814 q 58 867 100 864 q 37 882 37 869 q 56 894 37 894 q 74 893 61 894 q 326 887 182 887 l 446 889 q 464 876 464 889 q 444 863 464 863 q 364 844 396 863 q 321 801 332 825 q 311 704 311 776 l 305 383 l 307 204 q 314 96 307 121 q 343 51 321 71 q 425 31 366 31 q 546 35 429 31 q 713 125 639 47 q 811 265 787 203 q 829 283 819 283 q 841 267 841 283 q 821 131 841 248 q 797 -3 802 14 z "},"M":{"ha":1288,"x_min":26,"x_max":1265,"o":"m 324 888 q 452 625 393 739 q 563 399 523 489 q 655 220 602 309 q 981 888 795 453 l 1251 887 q 1265 875 1265 885 q 1249 863 1265 865 q 1153 834 1177 857 q 1123 758 1128 812 q 1112 559 1117 705 q 1106 316 1106 413 q 1109 99 1106 130 q 1132 50 1112 68 q 1211 23 1152 31 q 1228 10 1228 20 q 1207 0 1228 0 l 943 1 l 874 1 q 851 12 851 1 q 867 23 851 21 q 942 44 924 31 q 970 93 961 58 q 979 267 979 127 l 992 592 l 999 753 q 994 771 999 771 q 980 760 985 771 l 846 495 q 688 170 717 241 l 646 67 q 622 16 626 20 q 612 12 618 12 q 599 29 604 12 q 473 296 587 71 q 332 586 414 423 q 243 756 250 749 q 233 763 236 763 q 226 746 226 763 l 218 335 l 216 199 q 246 58 216 92 q 330 25 275 25 q 366 10 366 25 q 349 -1 366 -1 l 334 0 l 290 -1 l 195 0 q 34 -7 132 0 q 26 4 26 -1 q 50 18 26 18 q 149 63 117 20 q 181 254 181 106 l 180 374 l 189 676 q 158 821 189 782 q 66 867 127 860 q 41 882 41 871 q 60 894 41 894 q 84 893 70 894 l 324 888 z "},"N":{"ha":1042,"x_min":20,"x_max":1015,"o":"m 249 883 q 390 713 290 828 l 607 461 l 816 220 q 823 538 823 342 q 817 735 823 686 q 771 819 810 785 q 674 853 732 853 q 647 865 647 853 q 653 874 647 871 q 744 881 659 878 q 888 884 829 884 l 979 883 l 994 883 q 1015 871 1015 883 q 997 858 1015 860 q 898 822 928 850 q 862 741 868 794 q 857 385 857 688 l 850 27 q 836 0 850 0 q 827 3 833 0 q 766 72 821 6 q 631 229 711 137 q 505 377 551 320 q 377 528 404 500 q 261 663 279 633 q 240 683 250 683 q 233 656 233 683 l 234 551 q 245 232 234 351 q 268 92 256 113 q 309 50 279 71 q 372 29 338 29 q 416 13 416 29 q 391 1 416 1 l 65 1 q 42 13 42 1 q 64 26 42 26 q 176 63 148 26 q 203 220 203 100 l 198 458 q 186 707 198 669 q 135 799 175 745 q 43 859 94 852 q 20 871 20 862 q 50 884 20 884 l 249 883 z "},"O":{"ha":1013,"x_min":60,"x_max":952,"o":"m 60 450 q 116 651 60 541 q 278 831 172 760 q 519 903 385 903 q 830 768 707 903 q 952 462 952 634 q 817 133 952 279 q 490 -12 681 -12 q 184 115 308 -12 q 60 450 60 243 m 212 471 q 245 244 212 361 q 352 76 279 128 q 507 23 425 23 q 721 153 641 23 q 802 454 802 283 q 720 744 802 619 q 505 869 637 869 q 339 803 406 869 q 242 643 273 736 q 212 471 212 550 z "},"P":{"ha":854,"x_min":65,"x_max":796,"o":"m 302 429 q 298 338 302 399 q 296 277 296 308 q 298 178 296 254 q 308 83 300 102 q 339 46 315 64 q 391 27 363 28 q 422 13 422 25 q 412 2 422 3 q 340 0 403 0 l 154 1 q 70 3 75 1 q 65 12 65 5 q 91 28 65 23 q 154 60 136 39 q 176 154 172 82 q 180 319 180 225 l 178 500 l 180 695 q 166 828 180 799 q 111 864 152 857 q 66 884 66 872 q 86 895 66 895 l 220 895 l 436 896 q 723 829 649 896 q 796 663 796 763 q 700 485 796 545 q 410 425 604 425 q 302 429 363 425 m 302 456 q 415 453 401 453 q 545 477 484 453 q 634 562 606 500 q 663 684 663 624 q 611 814 663 761 q 424 867 559 867 q 302 852 354 867 q 301 822 301 828 l 304 666 l 301 500 q 302 456 301 488 z "},"Q":{"ha":1013,"x_min":62,"x_max":952,"o":"m 581 -3 q 476 -13 514 -13 q 279 42 376 -13 q 121 200 181 98 q 62 431 62 302 q 194 760 62 618 q 519 901 327 901 q 741 841 643 901 q 896 676 839 781 q 952 461 952 571 q 912 278 952 372 q 807 118 872 184 q 657 4 742 52 q 458 -87 573 -43 q 337 -137 372 -120 q 380 -135 365 -135 q 468 -151 430 -135 q 591 -220 506 -166 q 759 -288 702 -288 q 831 -269 802 -288 q 900 -200 860 -250 q 920 -186 911 -186 q 932 -199 932 -186 q 859 -297 932 -224 q 679 -370 786 -370 q 564 -343 625 -370 q 387 -233 503 -317 q 279 -185 320 -185 q 220 -210 237 -185 q 197 -290 203 -235 q 182 -344 193 -328 q 144 -359 171 -359 q 111 -346 126 -359 q 96 -311 96 -332 q 132 -232 96 -278 q 229 -152 169 -185 q 422 -68 290 -119 q 581 -3 545 -21 m 214 465 q 246 245 214 353 q 347 80 279 138 q 506 22 416 22 q 719 146 637 22 q 800 449 800 270 q 720 743 800 618 q 503 867 639 867 q 292 743 370 867 q 214 465 214 619 z "},"R":{"ha":941,"x_min":47,"x_max":937,"o":"m 564 454 q 694 369 657 414 q 748 232 730 325 q 812 68 771 110 q 918 24 852 26 q 937 10 937 22 q 916 -2 937 -2 q 685 11 726 -2 q 625 149 645 23 q 587 329 607 272 q 523 415 567 385 q 387 446 479 446 q 307 438 351 446 q 303 349 303 395 q 308 124 303 175 q 337 49 313 73 q 417 24 361 26 q 441 13 441 24 q 412 0 441 0 l 76 0 q 47 13 47 0 q 70 24 47 24 q 141 40 121 24 q 173 89 161 56 q 184 208 184 121 l 183 346 l 184 557 q 177 770 184 718 q 151 841 170 823 q 66 869 133 859 q 52 880 52 871 q 81 891 52 891 l 482 900 q 723 836 648 900 q 798 680 798 772 q 768 574 798 622 q 696 504 738 526 q 564 454 655 482 m 307 472 q 502 490 437 475 q 613 559 567 506 q 659 684 659 612 q 608 818 659 761 q 445 875 557 875 q 310 859 384 875 q 302 562 302 672 q 307 472 302 524 z "},"S":{"ha":724,"x_min":55,"x_max":677,"o":"m 539 840 q 564 878 557 858 q 579 894 569 894 q 591 887 585 894 q 605 789 596 863 l 621 661 q 606 649 621 649 q 592 663 598 649 q 486 810 556 751 q 332 869 415 869 q 208 819 250 869 q 166 714 166 770 q 212 610 166 646 q 399 529 257 574 q 555 466 503 496 q 642 380 607 435 q 677 262 677 326 q 589 71 677 155 q 371 -14 500 -14 q 138 58 255 -14 q 108 14 115 39 q 90 -8 102 -8 q 75 20 79 -8 q 55 283 70 47 q 69 291 58 291 q 85 276 79 291 q 377 14 190 14 q 523 70 470 14 q 575 198 575 125 q 547 290 575 248 q 472 358 519 332 q 326 416 426 384 q 150 494 197 457 q 82 577 104 531 q 60 667 60 624 q 142 827 60 758 q 342 897 224 897 q 436 883 387 897 q 539 840 486 869 z "},"T":{"ha":998,"x_min":31,"x_max":968,"o":"m 425 850 q 351 853 372 853 q 138 792 204 853 q 62 684 73 731 q 43 667 58 667 q 31 673 37 667 q 57 890 34 753 q 98 891 90 891 q 240 886 151 891 q 533 880 336 880 q 796 885 735 880 q 949 890 852 890 q 960 789 957 842 q 968 704 964 728 q 968 692 968 699 q 954 676 968 676 q 940 682 945 676 q 913 720 934 688 q 840 803 878 775 q 755 840 802 831 q 566 850 709 848 q 558 616 558 748 q 577 103 558 181 q 710 25 595 25 q 738 14 738 25 q 711 0 738 0 l 294 0 q 278 13 278 0 q 310 26 278 26 q 396 56 363 26 q 434 138 429 86 q 439 435 439 189 q 425 850 439 646 z "},"U":{"ha":1056,"x_min":43,"x_max":1025,"o":"m 72 888 l 412 888 q 441 876 441 888 q 419 861 441 863 q 348 835 371 857 q 313 758 325 813 q 301 523 301 703 q 314 223 301 307 q 392 91 326 140 q 572 41 458 41 q 754 87 692 41 q 835 222 817 132 q 854 610 854 311 q 822 812 854 764 q 728 860 790 860 q 703 874 703 860 q 736 888 703 888 l 1007 888 q 1025 874 1025 888 q 1010 863 1025 865 q 935 830 959 855 q 903 739 911 805 q 896 546 896 673 q 884 275 896 387 q 833 110 872 164 q 714 21 793 55 q 520 -12 635 -12 q 319 25 402 -12 q 207 125 236 63 q 177 311 177 187 l 180 498 q 158 805 180 749 q 66 862 137 861 q 43 873 43 862 q 72 888 43 888 z "},"V":{"ha":941,"x_min":16,"x_max":933,"o":"m 494 -15 l 454 -15 q 353 264 422 87 l 225 595 q 142 786 165 748 q 96 838 119 824 q 33 854 74 851 q 16 867 16 856 q 33 880 16 880 l 389 880 q 422 868 422 880 q 400 853 422 853 q 311 777 311 853 q 319 718 311 758 q 347 620 327 678 q 433 381 367 562 q 517 159 499 200 l 663 561 q 725 776 725 732 q 637 854 725 847 q 619 867 619 856 q 626 877 619 875 q 663 880 632 880 l 890 880 q 927 878 920 880 q 933 868 933 876 q 907 852 933 856 q 830 815 856 844 q 782 744 805 785 q 656 418 758 703 q 494 -15 621 317 z "},"W":{"ha":1432,"x_min":10,"x_max":1427,"o":"m 511 -17 l 490 -17 q 415 157 458 54 q 269 493 372 261 q 136 769 167 724 q 78 831 104 814 q 31 850 52 848 q 10 863 10 852 q 62 876 10 876 l 357 876 q 399 863 399 876 q 378 850 399 851 q 291 782 291 846 q 298 743 291 768 q 395 503 306 719 q 537 173 485 286 q 627 427 558 225 q 709 680 695 628 q 637 827 660 810 q 575 848 614 844 q 547 863 547 851 q 597 876 547 876 l 888 876 q 921 874 914 876 q 928 862 928 871 q 893 846 928 852 q 819 774 819 835 q 1034 181 819 680 q 1117 406 1076 290 l 1190 612 q 1226 726 1222 703 q 1231 768 1231 749 q 1145 850 1231 849 q 1126 863 1126 851 q 1133 874 1126 871 q 1167 876 1139 876 l 1332 876 q 1416 875 1406 876 q 1427 863 1427 873 q 1411 852 1427 852 q 1295 770 1337 846 q 1105 268 1253 694 q 1000 -17 1027 44 l 981 -17 q 875 256 926 132 q 729 619 823 379 l 511 -17 z "},"X":{"ha":1027,"x_min":28,"x_max":1016,"o":"m 535 523 q 625 644 568 563 q 693 748 682 725 q 704 789 704 771 q 678 835 704 819 q 621 853 652 851 q 592 868 592 855 q 634 880 592 880 l 918 880 q 953 878 947 880 q 960 867 960 876 q 934 854 960 856 q 818 812 871 852 q 669 644 765 773 q 563 493 574 515 q 842 111 760 198 q 991 20 923 23 q 1016 5 1016 19 q 990 -6 1016 -6 q 935 -3 979 -6 q 815 1 871 1 q 634 -3 720 1 q 612 -4 623 -4 q 580 7 580 -4 q 597 21 580 21 q 684 75 684 21 q 484 391 684 131 q 375 244 463 370 q 288 85 288 117 q 321 44 288 62 q 405 22 354 26 q 430 9 430 20 q 406 -4 430 -4 l 381 -3 l 243 0 q 75 -5 121 0 q 47 9 47 -5 q 68 22 47 22 q 152 39 114 22 q 217 85 191 56 q 332 241 243 115 q 456 422 422 368 q 169 806 223 763 q 47 854 115 850 q 28 867 28 855 q 62 880 28 880 l 419 880 q 450 877 445 880 q 455 867 455 875 q 449 857 455 860 q 404 852 443 854 q 365 837 381 850 q 349 808 349 825 q 414 689 349 789 q 535 523 479 589 z "},"Y":{"ha":984,"x_min":23,"x_max":968,"o":"m 526 464 q 641 616 564 506 q 733 752 719 726 q 747 795 747 779 q 719 839 747 823 q 661 856 690 856 q 638 868 638 856 q 677 881 638 881 l 932 881 q 968 867 968 881 q 952 855 968 855 q 875 837 912 855 q 785 755 838 819 l 667 595 q 567 449 574 471 q 556 280 556 417 q 571 64 556 98 q 670 23 587 31 q 692 9 692 21 q 668 -4 692 -4 l 486 0 q 378 -3 420 0 q 334 -5 344 -5 q 309 8 309 -5 q 328 20 309 19 q 414 68 393 22 q 436 205 436 115 q 424 365 436 304 q 366 476 421 380 q 230 687 310 571 q 115 827 149 802 q 47 855 80 852 q 23 869 23 857 q 30 879 23 876 q 68 881 36 881 l 364 881 q 401 879 395 881 q 407 868 407 877 q 390 856 407 857 q 304 804 304 849 q 336 732 304 781 q 526 464 367 682 z "},"Z":{"ha":882,"x_min":68,"x_max":840,"o":"m 768 3 l 739 1 q 103 -1 121 1 q 73 1 78 -1 q 68 10 68 3 q 102 72 70 18 q 230 268 134 125 l 406 529 q 517 688 487 648 q 623 853 605 808 q 435 859 503 859 q 285 843 334 859 q 203 798 236 828 q 123 699 170 768 q 92 665 100 665 q 81 677 81 665 q 111 777 81 681 q 146 886 140 873 q 158 899 153 899 l 259 892 q 480 890 313 890 q 774 898 711 890 q 784 899 781 899 q 792 890 792 899 q 542 512 792 869 q 230 34 315 187 q 397 30 328 30 q 547 39 492 30 q 645 70 602 48 q 710 109 689 91 q 779 186 732 127 q 829 238 821 238 q 840 222 840 238 l 768 3 z "},"[":{"ha":709,"x_min":155,"x_max":682,"o":"m 194 -277 q 503 -201 393 -201 q 636 -234 591 -201 q 682 -311 682 -267 q 673 -352 682 -335 q 654 -370 665 -370 q 642 -359 642 -370 q 646 -347 642 -356 q 649 -334 649 -339 q 631 -304 649 -313 q 553 -295 612 -295 q 301 -313 435 -295 q 191 -324 218 -324 q 159 -312 159 -324 l 155 280 q 157 565 155 446 l 163 767 q 170 855 165 850 q 184 860 174 860 q 199 859 189 860 q 479 846 333 846 q 614 854 580 846 q 649 889 649 863 q 648 899 649 895 l 642 913 q 656 924 642 924 q 674 909 666 924 q 682 876 682 895 q 635 791 682 830 q 516 751 589 751 q 194 816 412 751 l 196 515 l 190 19 q 194 -277 190 -151 z "},"\\":{"ha":694,"x_min":77,"x_max":618,"o":"m 77 967 l 136 967 l 618 -25 l 558 -25 l 77 967 z "},"]":{"ha":709,"x_min":26,"x_max":554,"o":"m 515 830 q 206 754 316 754 q 75 786 123 754 q 27 865 27 817 q 35 906 27 888 q 54 923 43 923 q 67 913 67 923 q 63 901 67 909 q 60 888 60 893 q 74 861 60 871 q 156 849 87 849 q 408 867 274 849 q 519 878 492 878 q 549 865 549 878 l 554 273 q 551 -11 554 109 l 546 -214 q 539 -302 543 -297 q 525 -307 534 -307 q 509 -305 521 -307 q 230 -292 376 -292 q 94 -301 129 -292 q 60 -335 60 -309 q 61 -345 60 -341 l 66 -359 q 54 -370 66 -370 q 35 -355 43 -370 q 26 -321 26 -341 q 73 -237 26 -277 q 193 -198 120 -198 q 515 -262 298 -198 l 513 39 l 519 535 q 515 830 519 722 z "},"^":{"ha":651,"x_min":25,"x_max":626,"o":"m 338 939 l 626 452 l 564 452 l 326 850 l 89 452 l 25 452 l 317 939 l 338 939 z "},"_":{"ha":694,"x_min":-8,"x_max":703,"o":"m -8 -104 l 703 -104 l 703 -174 l -8 -174 l -8 -104 z "},"`":{"ha":463,"x_min":68,"x_max":328,"o":"m 296 640 l 135 762 q 68 847 68 812 q 112 890 68 890 q 154 874 136 890 q 203 816 173 859 l 308 669 q 328 637 328 643 q 317 628 328 628 q 296 640 311 628 z "},"a":{"ha":608,"x_min":64,"x_max":595,"o":"m 395 87 q 315 15 361 39 q 211 -9 269 -9 q 103 27 142 -9 q 64 123 64 64 q 88 207 64 168 q 141 262 111 245 q 248 305 172 279 q 378 365 356 341 q 399 427 399 389 q 371 520 399 487 q 290 554 342 554 q 226 535 248 554 q 193 458 204 515 q 139 396 180 396 q 106 411 124 396 q 88 455 88 426 q 144 544 88 506 q 299 581 201 581 q 424 559 377 581 q 482 509 470 537 q 494 399 494 480 l 490 220 q 502 72 490 116 q 549 28 515 28 q 568 31 555 28 l 579 32 q 595 20 595 32 q 461 -6 595 -6 q 409 12 422 -6 q 395 87 396 30 m 395 351 q 302 287 374 325 q 200 217 231 250 q 169 136 169 183 q 194 63 169 93 q 258 33 220 33 q 332 57 297 33 q 383 119 366 81 q 399 229 399 156 q 395 351 399 284 z "},"b":{"ha":694,"x_min":47,"x_max":651,"o":"m 217 505 q 391 582 292 582 q 575 498 500 582 q 651 300 651 414 q 576 83 651 178 q 377 -12 500 -12 q 200 41 271 -12 q 168 58 177 58 q 142 28 151 58 q 124 2 134 2 q 113 20 113 2 l 113 48 l 122 642 q 121 828 122 802 q 107 868 119 854 q 63 892 96 882 q 47 906 47 897 q 65 916 47 917 l 185 916 q 213 910 202 913 q 223 891 223 907 q 222 861 223 884 q 217 505 217 775 m 208 210 q 220 106 208 139 q 270 44 232 73 q 364 16 309 16 q 487 86 436 16 q 538 276 538 156 q 491 475 538 403 q 362 547 444 547 q 249 489 290 547 q 208 210 208 431 z "},"c":{"ha":578,"x_min":45,"x_max":536,"o":"m 45 273 q 124 490 45 397 q 319 583 204 583 q 460 547 393 583 q 528 456 528 511 q 515 419 528 435 q 486 404 503 404 q 427 465 448 404 q 318 558 396 558 q 200 491 241 558 q 160 316 160 425 q 216 108 160 189 q 352 27 273 27 q 453 68 404 27 q 509 165 501 108 q 524 185 513 185 q 536 173 536 185 q 475 48 536 106 q 311 -10 414 -10 q 121 75 198 -10 q 45 273 45 161 z "},"d":{"ha":709,"x_min":50,"x_max":665,"o":"m 583 928 q 583 536 583 783 l 578 106 q 644 23 578 35 q 665 9 665 19 q 657 -1 665 1 q 568 -3 650 -3 q 484 -2 526 -3 q 482 58 482 39 q 484 123 482 81 q 401 22 448 56 q 297 -12 354 -12 q 133 64 216 -12 q 50 269 50 140 q 128 486 50 394 q 319 578 205 578 q 417 554 376 578 q 484 481 458 530 q 488 632 488 562 q 477 872 488 848 q 427 901 467 896 q 401 913 401 904 q 433 925 401 925 l 583 928 m 487 321 q 448 493 487 436 q 330 551 409 551 q 207 484 248 551 q 165 283 165 417 q 215 90 165 149 q 321 32 264 32 q 433 93 379 32 q 487 321 487 155 z "},"e":{"ha":593,"x_min":47,"x_max":556,"o":"m 161 317 q 158 262 158 282 q 215 99 158 165 q 355 33 271 33 q 506 98 436 33 q 532 116 526 116 q 543 98 543 116 q 455 18 517 51 q 316 -14 393 -14 q 125 67 203 -14 q 47 272 47 148 q 133 494 47 405 q 317 583 219 583 q 482 513 408 583 q 556 350 556 444 q 552 329 556 336 q 500 322 547 322 l 161 317 m 161 352 q 332 348 249 348 l 368 350 q 430 366 408 351 q 452 417 452 380 q 413 516 452 474 q 321 559 374 559 q 223 510 272 559 q 161 352 175 462 z "},"f":{"ha":391,"x_min":32,"x_max":543,"o":"m 227 512 q 224 342 224 486 q 225 116 224 158 q 248 47 227 74 q 319 14 269 20 q 338 1 338 12 q 323 -9 338 -9 l 210 -2 q 61 -7 99 -2 l 54 -7 q 39 3 39 -7 q 62 18 39 15 q 106 33 94 22 q 124 61 119 43 q 132 192 128 80 q 136 414 136 304 q 136 512 136 458 q 58 516 85 515 q 32 531 32 517 q 44 563 32 555 q 136 572 56 570 q 154 762 136 691 q 233 879 172 832 q 384 925 293 925 q 506 895 469 925 q 543 821 543 865 q 498 774 543 774 q 471 785 482 774 q 439 840 460 797 q 351 901 408 901 q 247 821 271 901 q 224 654 224 741 q 227 572 224 615 q 260 573 248 573 q 339 569 313 573 q 364 551 364 564 q 356 528 364 540 q 322 513 348 515 q 267 511 296 511 q 227 512 251 511 z "},"g":{"ha":752,"x_min":52,"x_max":742,"o":"m 539 486 q 570 379 570 437 q 512 230 570 292 q 345 160 454 168 q 250 148 275 155 q 203 122 224 142 q 182 84 182 103 q 215 42 182 56 q 350 25 247 28 q 552 12 501 20 q 639 -36 603 4 q 675 -138 675 -75 q 585 -305 675 -241 q 316 -370 494 -370 q 118 -336 184 -370 q 52 -235 52 -302 q 253 -62 52 -129 q 134 -25 168 -49 q 99 40 99 -2 q 135 116 99 83 q 244 172 172 149 q 139 238 179 191 q 100 351 100 286 q 170 513 100 444 q 349 583 241 583 q 522 510 455 583 q 652 589 591 589 q 719 565 695 589 q 742 511 742 541 q 728 481 742 493 q 696 469 715 469 q 641 509 661 469 q 612 534 629 534 q 539 486 584 534 m 208 372 q 251 230 208 272 q 344 187 295 187 q 426 231 389 187 q 462 363 462 274 q 426 506 462 456 q 338 557 390 557 q 244 508 280 557 q 208 372 208 459 m 388 -64 q 257 -87 317 -64 q 168 -143 197 -111 q 139 -220 139 -175 q 197 -311 139 -279 q 341 -342 254 -342 q 536 -289 473 -342 q 600 -173 600 -236 q 547 -92 600 -119 q 388 -64 494 -64 z "},"h":{"ha":724,"x_min":34,"x_max":675,"o":"m 225 481 q 420 583 307 583 q 557 532 509 583 q 605 351 605 481 l 601 171 q 603 66 601 85 q 622 35 605 48 q 656 20 640 21 q 675 12 675 20 q 645 0 675 0 l 444 0 q 433 12 433 3 q 448 23 433 21 q 505 61 496 29 q 514 261 514 92 q 478 495 514 443 q 382 548 441 548 q 279 504 323 548 q 227 373 235 459 q 218 163 218 287 q 227 53 218 79 q 277 19 236 27 q 294 7 294 16 q 278 -4 294 -4 l 141 -1 q 64 -3 97 -1 q 44 7 44 -3 q 60 19 44 17 q 104 37 93 23 q 124 147 116 52 q 132 391 132 242 q 130 738 132 656 q 106 858 127 821 q 53 901 84 895 q 34 914 34 905 q 38 921 34 920 q 82 922 43 922 q 225 926 149 922 l 223 589 q 225 481 223 524 z "},"i":{"ha":361,"x_min":45,"x_max":338,"o":"m 162 914 q 208 895 188 914 q 229 854 229 876 q 212 808 229 827 q 166 789 195 789 q 120 806 140 789 q 100 851 100 823 q 117 897 100 879 q 162 914 134 914 m 237 583 l 237 430 l 238 288 l 238 180 l 237 99 q 253 37 237 50 q 301 22 269 24 q 338 7 338 20 q 324 -4 338 -4 q 312 -3 319 -4 q 195 5 249 5 q 75 -1 108 5 q 61 -2 68 -2 q 45 10 45 -2 q 83 27 45 22 q 131 44 121 32 q 142 111 142 56 l 146 392 q 129 525 146 505 q 63 547 112 546 q 47 558 47 547 q 52 568 47 564 q 133 576 58 571 q 237 583 208 582 z "},"j":{"ha":376,"x_min":-102,"x_max":254,"o":"m 189 946 q 229 929 210 946 q 247 888 247 913 q 229 847 247 863 q 189 831 210 831 q 149 847 167 831 q 132 888 132 863 q 146 928 132 911 q 189 946 161 946 m 254 583 q 250 243 250 292 q 243 -134 250 -41 q 174 -294 236 -227 q 24 -361 113 -361 q -64 -333 -26 -361 q -102 -254 -102 -305 q -85 -206 -102 -224 q -47 -188 -67 -188 q -11 -201 -26 -188 q 3 -239 3 -215 q -5 -273 3 -250 q -11 -299 -11 -288 q 1 -326 -11 -317 q 37 -335 14 -335 q 111 -307 78 -335 q 151 -237 143 -278 q 159 4 158 -195 l 160 422 q 150 528 160 505 q 96 550 139 550 q 80 549 88 550 q 51 563 51 549 q 90 576 51 576 q 254 583 178 578 z "},"k":{"ha":694,"x_min":32,"x_max":684,"o":"m 227 924 q 229 887 229 898 l 227 814 l 230 554 l 231 285 q 400 424 345 363 q 456 511 456 485 q 406 542 456 537 q 379 555 379 545 q 386 566 379 564 q 446 568 393 568 l 550 567 q 609 568 583 567 q 636 556 636 568 q 621 544 636 547 q 539 517 573 536 q 456 444 506 498 q 395 382 409 395 q 543 121 493 335 q 578 48 555 68 q 664 26 602 28 q 684 13 684 24 q 650 0 684 0 l 486 0 q 453 44 461 22 q 439 113 446 66 q 309 310 415 276 q 231 253 305 307 q 230 215 230 232 q 246 56 230 86 q 301 24 262 26 q 322 11 322 23 q 279 0 322 0 l 82 0 q 46 12 46 0 q 62 25 46 22 q 106 37 97 31 q 126 65 115 44 q 136 144 136 86 l 136 250 l 128 728 q 112 841 128 808 q 49 880 96 873 q 32 892 32 883 q 88 907 32 904 q 143 913 114 909 q 227 924 199 922 z "},"l":{"ha":391,"x_min":23,"x_max":357,"o":"m 243 929 q 246 758 245 844 l 245 336 l 248 131 q 264 47 248 73 q 336 16 281 21 q 357 3 357 14 q 340 -8 357 -8 q 328 -7 335 -8 q 161 0 258 0 q 66 -5 102 0 q 53 -6 59 -6 q 33 6 33 -6 q 51 18 33 18 q 132 54 113 19 q 151 171 151 89 l 149 557 q 144 780 149 744 q 116 841 140 817 q 50 872 92 865 q 23 886 23 876 q 45 899 23 898 q 231 929 169 907 l 243 929 z "},"m":{"ha":1085,"x_min":32,"x_max":1057,"o":"m 232 583 q 240 535 240 557 q 238 471 239 503 q 340 555 288 527 q 444 583 391 583 q 534 559 492 583 q 609 490 575 536 q 706 560 657 537 q 805 583 755 583 q 915 556 871 583 q 969 496 958 529 q 980 376 980 463 l 977 121 q 988 46 977 66 q 1034 26 999 26 q 1057 14 1057 26 q 1019 1 1057 1 l 811 1 q 781 13 781 1 q 798 25 781 24 q 867 51 854 28 q 881 295 881 73 q 873 445 881 399 q 836 519 865 490 q 764 549 807 549 q 692 526 727 549 q 623 457 656 503 q 596 144 596 368 q 609 45 596 66 q 664 24 621 24 l 675 24 q 697 13 697 24 q 670 1 697 1 l 441 1 q 407 14 407 1 q 427 26 407 26 q 483 44 468 26 q 502 143 497 61 q 507 305 507 225 q 479 495 507 450 q 397 541 451 541 q 306 504 351 541 q 245 405 261 467 q 230 185 230 342 q 241 49 230 74 q 294 24 252 24 q 315 22 311 24 q 319 12 319 20 q 292 1 319 1 l 82 1 q 45 14 45 1 q 58 26 45 25 q 108 40 95 27 q 127 114 121 52 q 134 313 134 175 q 132 481 134 452 q 112 528 130 510 q 50 546 94 545 q 32 558 32 547 q 37 569 32 566 q 98 577 41 572 q 198 583 155 583 q 232 583 209 583 z "},"n":{"ha":738,"x_min":45,"x_max":695,"o":"m 216 581 q 236 446 233 541 q 329 545 278 512 q 441 578 380 578 q 530 561 487 578 q 596 502 573 544 q 620 357 620 459 l 616 129 q 626 50 616 66 q 671 24 637 34 q 695 9 695 18 q 684 -1 695 -1 q 674 0 679 -1 q 582 7 643 7 q 464 2 527 7 q 439 14 439 2 q 452 24 439 22 q 501 41 490 33 q 517 65 513 50 q 525 163 522 79 q 528 298 528 246 q 492 489 528 441 q 403 536 456 536 q 271 451 323 536 q 218 165 218 365 q 230 49 218 74 q 290 19 242 24 q 304 6 304 18 q 290 -3 304 -3 l 254 -1 q 129 1 235 1 l 75 -1 q 45 10 45 -1 q 77 28 45 22 q 119 49 109 34 q 134 151 130 64 q 138 366 138 237 q 121 515 138 486 q 76 551 105 544 q 50 568 50 557 q 70 579 50 579 l 125 578 q 216 581 134 578 z "},"o":{"ha":680,"x_min":47,"x_max":633,"o":"m 47 283 q 133 494 47 403 q 345 585 219 585 q 548 503 463 585 q 633 300 633 422 q 543 83 633 176 q 334 -10 454 -10 q 132 76 216 -10 q 47 283 47 161 m 157 288 q 211 94 157 171 q 344 16 264 16 q 472 89 416 16 q 527 281 527 161 q 474 472 527 389 q 336 556 420 556 q 207 480 257 556 q 157 288 157 404 z "},"p":{"ha":694,"x_min":5,"x_max":652,"o":"m 218 580 q 222 527 222 551 q 218 468 222 507 q 321 550 286 532 q 401 569 357 569 q 579 483 505 569 q 652 281 652 397 q 568 76 652 156 q 372 -3 484 -3 q 218 42 295 -3 q 207 -142 207 -41 q 212 -233 207 -201 l 214 -260 q 282 -313 227 -302 q 302 -329 301 -317 l 300 -336 l 296 -338 q 165 -334 212 -334 q 20 -336 45 -334 q 5 -324 5 -336 q 18 -312 5 -313 q 97 -283 81 -305 q 118 -91 113 -262 q 122 122 122 79 l 120 307 l 121 416 q 109 526 121 502 q 50 553 98 549 q 35 564 35 554 q 40 574 35 570 q 102 578 46 577 l 218 580 m 213 278 q 219 119 213 154 q 263 55 225 85 q 361 25 300 25 q 494 96 444 25 q 545 269 545 167 q 493 456 545 386 q 368 526 442 526 q 255 467 296 526 q 213 278 213 407 z "},"q":{"ha":709,"x_min":43,"x_max":690,"o":"m 529 514 l 543 534 q 554 552 551 545 q 570 570 562 570 q 582 553 582 570 l 581 529 l 580 297 q 589 -226 580 -168 q 661 -283 599 -283 q 690 -295 690 -283 q 650 -308 690 -308 l 418 -308 q 391 -296 391 -308 q 410 -284 391 -284 q 472 -261 457 -284 q 487 -176 487 -239 q 484 47 487 -11 q 405 14 448 25 q 313 3 361 3 q 119 92 195 3 q 43 287 43 180 q 80 426 43 356 q 180 539 117 495 q 318 583 242 583 q 529 514 429 583 m 343 28 q 430 57 391 28 q 478 120 468 85 q 488 234 488 155 q 479 421 488 356 q 432 522 470 486 q 340 558 395 558 q 207 474 254 558 q 159 291 159 391 q 210 100 159 172 q 343 28 260 28 z "},"r":{"ha":550,"x_min":35,"x_max":522,"o":"m 237 429 q 329 543 280 505 q 431 581 377 581 q 495 554 468 581 q 522 493 522 527 q 467 429 522 429 q 424 465 441 429 q 366 510 402 510 q 296 472 332 510 q 248 389 260 434 q 236 200 236 344 q 247 49 236 68 q 302 24 258 30 q 315 15 315 23 q 283 1 315 1 l 66 1 q 43 12 43 1 q 74 24 43 23 q 127 51 117 27 q 137 226 137 75 q 128 492 137 448 q 60 540 119 537 q 35 553 35 541 q 40 562 35 559 q 102 568 45 565 l 227 575 q 237 429 232 538 z "},"s":{"ha":550,"x_min":75,"x_max":483,"o":"m 483 180 q 425 44 483 101 q 286 -12 366 -12 q 173 18 239 -12 q 130 35 137 35 q 110 20 119 35 q 90 1 99 1 q 79 21 81 1 q 77 109 77 40 q 75 184 76 168 q 87 210 75 210 q 99 197 95 210 q 173 65 125 119 q 286 12 221 12 q 366 40 331 12 q 401 116 401 68 q 272 248 401 191 q 153 307 183 288 q 106 356 123 325 q 90 424 90 387 q 142 541 90 494 q 271 588 195 588 q 393 553 326 588 q 412 548 404 548 q 427 559 418 548 q 439 569 435 569 q 449 564 446 569 q 456 504 452 559 q 460 414 460 450 q 449 393 460 393 q 433 412 439 393 q 400 482 427 431 q 341 548 373 534 q 277 562 309 562 q 197 538 229 562 q 166 477 166 515 q 179 434 166 453 q 203 406 192 415 q 332 343 214 396 q 429 292 406 310 q 467 243 452 274 q 483 180 483 213 z "},"t":{"ha":477,"x_min":47,"x_max":460,"o":"m 260 520 q 250 226 250 370 q 277 81 250 115 q 353 47 303 47 q 432 73 389 47 q 451 83 448 83 q 460 73 460 83 q 412 22 460 57 q 294 -14 363 -14 q 190 35 224 -14 q 155 178 155 83 q 168 520 155 278 q 103 525 163 522 l 62 528 q 47 538 47 528 q 64 552 47 547 q 158 612 92 562 q 235 751 224 661 q 250 775 237 775 q 262 756 262 775 q 261 743 262 750 q 259 682 259 717 l 260 576 l 408 578 q 448 570 446 578 q 437 530 447 538 q 260 520 402 530 z "},"u":{"ha":709,"x_min":53,"x_max":659,"o":"m 210 570 q 216 315 214 526 q 223 139 218 183 q 257 67 229 96 q 323 39 286 39 q 421 84 372 39 q 482 181 471 130 q 494 420 494 233 q 483 525 494 507 q 430 546 472 543 q 414 557 414 547 q 419 567 414 565 q 450 570 424 570 l 585 570 q 591 404 591 496 l 586 149 q 599 50 586 71 q 641 27 612 30 q 659 14 659 24 q 624 1 659 1 l 517 1 q 489 20 489 1 q 490 32 489 25 q 492 73 492 52 q 490 125 492 91 q 382 25 438 58 q 267 -8 327 -8 q 180 17 215 -8 q 134 78 145 42 q 119 255 123 113 q 115 477 115 397 q 110 532 115 522 q 80 545 105 543 q 53 558 53 547 q 85 570 53 570 l 210 570 z "},"v":{"ha":694,"x_min":24,"x_max":672,"o":"m 385 119 q 531 513 531 441 q 493 547 531 545 q 471 559 471 549 q 488 573 471 573 l 589 572 l 650 572 q 672 559 672 572 q 656 547 672 549 q 576 500 601 541 q 508 350 551 459 q 404 97 436 165 q 366 13 372 31 q 347 -10 358 -10 q 326 18 338 -10 l 245 193 l 161 381 q 100 505 119 477 q 73 538 82 532 q 40 548 64 544 q 24 561 24 551 q 44 574 24 574 l 162 573 q 256 574 245 573 q 279 561 279 574 q 255 547 279 551 q 220 511 220 541 q 385 119 220 458 z "},"w":{"ha":998,"x_min":35,"x_max":964,"o":"m 372 134 q 489 452 489 405 q 476 499 489 475 q 452 530 464 522 q 416 539 440 538 q 400 551 400 540 q 418 566 400 566 l 538 569 q 635 567 625 569 q 646 556 646 566 q 624 540 646 547 q 583 500 583 526 q 596 456 583 493 q 646 331 608 419 l 728 142 q 811 372 774 258 q 848 503 848 486 q 805 543 848 538 q 780 558 780 545 q 802 569 780 568 q 892 571 823 571 q 951 569 938 571 q 964 558 964 567 q 937 537 964 549 q 886 498 903 522 q 847 397 869 473 q 769 176 829 334 l 704 2 q 690 -12 699 -12 q 669 21 681 -12 q 610 159 660 43 q 511 401 543 315 l 507 397 q 449 243 488 339 l 378 71 q 342 -11 347 -7 q 334 -15 337 -15 q 313 14 325 -15 q 211 267 258 157 l 134 446 q 90 526 104 515 q 58 538 76 536 q 35 551 35 541 q 65 566 35 566 l 219 568 l 283 567 q 302 557 302 567 q 276 539 302 543 q 227 506 227 531 q 372 134 227 470 z "},"x":{"ha":738,"x_min":31,"x_max":704,"o":"m 318 278 l 146 508 q 52 553 119 547 q 31 568 31 555 q 39 578 31 576 q 85 581 48 581 l 300 581 q 336 568 336 581 q 287 549 336 555 q 262 532 262 546 q 383 347 262 516 q 486 516 486 488 q 439 553 486 547 q 420 567 420 555 q 465 581 420 581 l 612 581 q 644 568 644 581 q 622 554 644 554 q 544 527 567 554 q 399 326 522 500 l 528 150 q 618 50 588 68 q 684 28 648 31 q 704 15 704 26 q 695 3 704 6 q 651 0 687 0 l 434 0 q 393 14 393 0 q 414 27 393 26 q 467 58 467 32 q 453 88 467 70 q 425 132 448 96 q 336 255 393 181 q 221 60 221 84 q 283 26 221 28 q 307 12 307 25 q 267 0 307 0 l 85 0 q 47 14 47 0 q 68 26 47 25 q 134 45 96 29 q 216 125 173 61 l 318 278 z "},"y":{"ha":694,"x_min":12,"x_max":682,"o":"m 405 100 q 500 373 479 300 q 521 488 521 445 q 450 551 521 545 q 431 564 431 553 q 446 575 431 575 q 483 573 452 575 q 526 572 495 572 q 646 575 616 572 q 665 576 660 576 q 682 565 682 576 q 664 551 682 555 q 578 472 610 538 q 464 161 547 405 q 334 -182 383 -77 q 232 -328 285 -288 q 127 -368 178 -368 q 43 -338 74 -368 q 12 -275 12 -307 q 33 -230 12 -250 q 75 -210 54 -210 q 136 -266 131 -210 q 169 -303 138 -303 q 278 -201 218 -303 q 338 -41 338 -98 q 291 119 338 5 q 188 367 245 234 q 110 524 131 500 q 65 551 90 547 q 43 564 43 553 q 59 577 43 577 q 75 576 66 577 q 165 571 114 571 q 297 576 273 571 q 317 578 311 578 q 334 566 334 578 q 304 547 334 555 q 250 496 250 533 q 405 100 250 464 z "},"z":{"ha":622,"x_min":68,"x_max":560,"o":"m 111 570 q 321 575 141 575 l 408 576 l 495 574 q 522 561 522 574 q 454 447 522 552 l 283 178 q 195 31 216 77 q 247 28 221 30 l 292 29 l 342 28 q 407 37 385 28 q 447 63 429 45 q 532 168 465 81 q 549 180 541 180 q 560 168 560 180 q 522 4 560 163 l 340 3 l 182 6 l 96 3 q 68 17 68 3 q 216 254 68 39 q 297 380 281 351 q 393 547 313 410 q 321 549 340 549 q 192 526 237 549 q 107 439 148 504 q 79 408 87 408 q 68 420 68 408 q 74 439 68 424 q 111 570 85 471 z "},"{":{"ha":665,"x_min":192,"x_max":570,"o":"m 570 -338 l 570 -361 q 389 -272 462 -349 q 315 -98 315 -195 q 330 7 315 -52 q 347 111 347 79 q 304 206 347 164 q 192 257 262 248 l 192 284 q 305 336 263 293 q 347 430 347 378 q 330 534 347 463 q 315 640 315 593 q 389 813 315 736 q 570 903 462 890 l 570 879 q 417 718 417 841 q 433 612 417 683 q 448 506 448 550 q 394 368 448 431 q 248 272 340 305 q 394 173 340 239 q 448 36 448 108 q 433 -70 448 -9 q 417 -177 417 -142 q 570 -338 417 -300 z "},"|":{"ha":694,"x_min":317,"x_max":378,"o":"m 317 925 l 378 925 l 378 -370 l 317 -370 l 317 925 z "},"}":{"ha":665,"x_min":120,"x_max":498,"o":"m 120 879 l 120 903 q 302 813 229 890 q 375 640 375 736 q 361 534 375 593 q 344 430 344 463 q 386 336 344 378 q 498 284 428 293 l 498 257 q 386 205 427 248 q 344 111 344 163 q 361 7 344 79 q 375 -98 375 -52 q 301 -272 375 -195 q 120 -361 228 -349 l 120 -338 q 273 -177 273 -300 q 257 -70 273 -142 q 242 35 242 -9 q 296 174 242 111 q 443 269 350 236 q 296 368 350 303 q 242 506 242 433 q 257 612 242 550 q 273 718 273 683 q 120 879 273 841 z "},"~":{"ha":926,"x_min":102,"x_max":824,"o":"m 795 455 l 824 455 q 775 320 822 371 q 659 270 728 270 q 586 282 625 270 q 407 352 547 295 q 256 395 301 395 q 131 271 156 395 l 102 271 q 153 410 104 363 q 259 456 201 456 q 517 373 321 456 q 668 328 621 328 q 758 365 726 328 q 795 455 789 401 z "},"":{"ha":955,"x_min":4,"x_max":930,"o":"m 446 905 l 477 905 q 687 374 553 750 q 805 79 773 134 q 907 18 837 24 q 930 3 930 16 q 918 -6 930 -6 l 909 -5 q 750 0 846 0 q 560 -5 602 0 q 539 7 539 -5 q 555 18 539 16 q 634 38 612 24 q 656 83 656 52 q 615 229 656 112 l 575 345 q 260 341 540 345 q 189 104 189 153 q 224 43 189 63 q 293 21 259 23 q 318 5 318 19 q 310 -5 318 0 q 179 0 201 0 q 26 -3 65 0 q 4 9 4 -3 q 23 23 4 20 q 142 129 101 33 q 271 473 184 224 q 446 905 351 699 m 419 758 q 272 383 356 629 q 372 387 342 387 l 563 383 q 492 570 538 454 q 419 758 437 709 m 350 1100 q 394 1082 375 1100 q 412 1038 412 1063 q 394 994 412 1012 q 350 975 375 975 q 306 993 324 975 q 288 1038 288 1011 q 306 1082 288 1065 q 350 1100 325 1100 m 606 1100 q 650 1082 631 1100 q 669 1038 669 1065 q 650 993 669 1011 q 606 975 632 975 q 563 993 581 975 q 545 1038 545 1011 q 563 1082 545 1063 q 606 1100 581 1100 z "},"":{"ha":955,"x_min":4,"x_max":930,"o":"m 496 867 q 687 374 568 710 q 805 79 773 134 q 907 18 837 24 q 930 3 930 16 q 918 -6 930 -6 l 909 -5 q 750 0 846 0 q 560 -5 602 0 q 539 7 539 -5 q 555 18 539 16 q 634 38 612 24 q 656 83 656 52 q 615 229 656 112 l 575 345 q 260 341 540 345 q 189 104 189 153 q 224 43 189 63 q 293 21 259 23 q 318 5 318 19 q 310 -5 318 0 q 179 0 201 0 q 26 -3 65 0 q 4 9 4 -3 q 23 23 4 20 q 142 129 101 33 q 271 473 184 224 q 429 867 349 692 q 365 913 389 880 q 340 987 340 946 q 376 1074 340 1038 q 464 1111 413 1111 q 552 1074 515 1111 q 589 987 589 1038 q 563 911 589 945 q 496 867 538 878 m 464 1068 q 407 1044 431 1068 q 382 987 382 1020 q 407 929 382 953 q 464 905 431 905 q 522 929 498 905 q 545 987 545 953 q 521 1045 545 1021 q 464 1068 497 1068 m 419 758 q 272 383 356 629 q 372 387 342 387 l 563 383 q 492 570 538 454 q 419 758 437 709 z "},"":{"ha":897,"x_min":67,"x_max":871,"o":"m 536 -17 l 521 -51 q 599 -83 568 -55 q 629 -149 629 -111 q 579 -243 629 -198 q 406 -288 529 -288 q 357 -272 357 -288 q 378 -259 357 -259 q 493 -239 460 -259 q 526 -182 526 -219 q 505 -139 526 -158 q 448 -120 484 -120 q 507 -18 488 -58 q 198 107 329 -18 q 67 437 67 233 q 199 777 67 648 q 505 907 331 907 q 625 888 563 907 q 755 831 688 869 q 798 876 792 865 q 817 892 804 892 q 832 868 831 892 l 848 631 q 846 607 848 611 q 836 602 844 602 q 813 631 825 602 q 688 808 768 739 q 513 877 608 877 q 361 824 431 877 q 254 672 292 770 q 216 460 216 573 q 323 145 216 263 q 559 26 430 26 q 722 83 648 26 q 835 213 797 139 q 856 233 845 233 q 871 217 871 233 q 823 135 871 198 q 700 31 774 72 q 536 -17 625 -10 z "},"":{"ha":911,"x_min":41,"x_max":862,"o":"m 774 880 q 813 667 794 804 q 806 661 810 661 q 795 667 801 661 q 706 781 749 742 q 620 837 663 821 q 472 854 577 854 q 315 842 373 854 q 310 817 310 836 q 309 800 310 812 q 302 506 302 746 q 303 477 302 496 q 374 475 355 475 q 497 501 459 475 q 564 610 536 526 q 578 625 569 625 q 591 605 591 625 l 588 578 q 583 467 583 524 q 586 301 583 375 q 573 278 586 278 q 560 294 564 278 q 500 410 546 374 q 303 445 455 445 q 301 285 301 395 q 311 103 301 142 q 360 42 321 64 q 491 19 399 19 q 831 201 755 19 q 851 223 841 223 q 862 208 862 223 q 859 191 862 200 q 839 94 854 178 q 813 -12 836 77 l 529 -11 q 350 -6 468 -11 q 140 0 231 -1 q 45 3 49 0 q 41 11 41 7 q 63 24 41 24 q 162 64 138 24 q 186 259 186 104 l 185 398 l 187 528 q 183 677 187 568 q 175 802 178 787 q 154 833 171 818 q 77 864 136 848 q 60 879 60 869 q 83 891 60 891 l 222 884 q 582 880 295 880 q 774 880 770 880 m 405 968 l 509 1114 q 558 1173 540 1157 q 601 1188 577 1188 q 644 1145 644 1188 q 578 1061 644 1111 l 418 939 q 395 926 401 926 q 386 935 386 926 q 405 968 386 941 z "},"":{"ha":1042,"x_min":20,"x_max":1015,"o":"m 249 883 q 390 713 290 828 l 607 461 l 816 220 q 823 538 823 342 q 817 735 823 686 q 771 819 810 785 q 674 853 732 853 q 647 865 647 853 q 653 874 647 871 q 744 881 659 878 q 888 884 829 884 l 979 883 l 994 883 q 1015 871 1015 883 q 997 858 1015 860 q 898 822 928 850 q 862 741 868 794 q 857 385 857 688 l 850 27 q 836 0 850 0 q 827 3 833 0 q 766 72 821 6 q 631 229 711 137 q 505 377 551 320 q 377 528 404 500 q 261 663 279 633 q 240 683 250 683 q 233 656 233 683 l 234 551 q 245 232 234 351 q 268 92 256 113 q 309 50 279 71 q 372 29 338 29 q 416 13 416 29 q 391 1 416 1 l 65 1 q 42 13 42 1 q 64 26 42 26 q 176 63 148 26 q 203 220 203 100 l 198 458 q 186 707 198 669 q 135 799 175 745 q 43 859 94 852 q 20 871 20 862 q 50 884 20 884 l 249 883 m 451 1129 q 532 1098 482 1129 q 614 1067 583 1067 q 673 1118 666 1067 q 696 1128 675 1128 q 705 1116 705 1128 q 674 1018 705 1061 q 594 976 643 976 q 509 1007 554 976 q 431 1042 457 1042 q 390 1028 408 1042 q 369 993 372 1014 q 352 977 366 977 q 338 988 338 977 q 368 1083 338 1038 q 451 1129 398 1129 z "},"":{"ha":1013,"x_min":60,"x_max":952,"o":"m 60 450 q 116 651 60 541 q 278 831 172 760 q 519 903 385 903 q 830 768 707 903 q 952 462 952 634 q 817 133 952 279 q 490 -12 681 -12 q 184 115 308 -12 q 60 450 60 243 m 212 471 q 245 244 212 361 q 352 76 279 128 q 507 23 425 23 q 721 153 641 23 q 802 454 802 283 q 720 744 802 619 q 505 869 637 869 q 339 803 406 869 q 242 643 273 736 q 212 471 212 550 m 378 1100 q 422 1082 404 1100 q 441 1038 441 1063 q 422 994 441 1012 q 378 975 404 975 q 334 993 353 975 q 316 1038 316 1011 q 335 1082 316 1065 q 378 1100 353 1100 m 635 1100 q 679 1082 660 1100 q 697 1038 697 1065 q 679 993 697 1011 q 635 975 661 975 q 591 993 610 975 q 573 1038 573 1011 q 591 1082 573 1063 q 635 1100 610 1100 z "},"":{"ha":1056,"x_min":43,"x_max":1025,"o":"m 72 888 l 412 888 q 441 876 441 888 q 419 861 441 863 q 348 835 371 857 q 313 758 325 813 q 301 523 301 703 q 314 223 301 307 q 392 91 326 140 q 572 41 458 41 q 754 87 692 41 q 835 222 817 132 q 854 610 854 311 q 822 812 854 764 q 728 860 790 860 q 703 874 703 860 q 736 888 703 888 l 1007 888 q 1025 874 1025 888 q 1010 863 1025 865 q 935 830 959 855 q 903 739 911 805 q 896 546 896 673 q 884 275 896 387 q 833 110 872 164 q 714 21 793 55 q 520 -12 635 -12 q 319 25 402 -12 q 207 125 236 63 q 177 311 177 187 l 180 498 q 158 805 180 749 q 66 862 137 861 q 43 873 43 862 q 72 888 43 888 m 425 1100 q 468 1082 450 1100 q 487 1038 487 1063 q 468 994 487 1012 q 425 975 450 975 q 380 993 399 975 q 362 1038 362 1011 q 381 1082 362 1065 q 425 1100 399 1100 m 681 1100 q 725 1082 706 1100 q 743 1038 743 1065 q 725 993 743 1011 q 681 975 707 975 q 637 993 656 975 q 619 1038 619 1011 q 637 1082 619 1063 q 681 1100 656 1100 z "},"":{"ha":608,"x_min":64,"x_max":595,"o":"m 395 87 q 315 15 361 39 q 211 -9 269 -9 q 103 27 142 -9 q 64 123 64 64 q 88 207 64 168 q 141 262 111 245 q 248 305 172 279 q 378 365 356 341 q 399 427 399 389 q 371 520 399 487 q 290 554 342 554 q 226 535 248 554 q 193 458 204 515 q 139 396 180 396 q 106 411 124 396 q 88 455 88 426 q 144 544 88 506 q 299 581 201 581 q 424 559 377 581 q 482 509 470 537 q 494 399 494 480 l 490 220 q 502 72 490 116 q 549 28 515 28 q 568 31 555 28 l 579 32 q 595 20 595 32 q 461 -6 595 -6 q 409 12 422 -6 q 395 87 396 30 m 395 351 q 302 287 374 325 q 200 217 231 250 q 169 136 169 183 q 194 63 169 93 q 258 33 220 33 q 332 57 297 33 q 383 119 366 81 q 399 229 399 156 q 395 351 399 284 m 227 669 l 332 816 q 381 874 362 859 q 423 890 399 890 q 467 847 467 890 q 400 762 467 812 l 240 640 q 218 628 224 628 q 208 637 208 628 q 227 669 208 643 z "},"":{"ha":608,"x_min":64,"x_max":595,"o":"m 395 87 q 315 15 361 39 q 211 -9 269 -9 q 103 27 142 -9 q 64 123 64 64 q 88 207 64 168 q 141 262 111 245 q 248 305 172 279 q 378 365 356 341 q 399 427 399 389 q 371 520 399 487 q 290 554 342 554 q 226 535 248 554 q 193 458 204 515 q 139 396 180 396 q 106 411 124 396 q 88 455 88 426 q 144 544 88 506 q 299 581 201 581 q 424 559 377 581 q 482 509 470 537 q 494 399 494 480 l 490 220 q 502 72 490 116 q 549 28 515 28 q 568 31 555 28 l 579 32 q 595 20 595 32 q 461 -6 595 -6 q 409 12 422 -6 q 395 87 396 30 m 395 351 q 302 287 374 325 q 200 217 231 250 q 169 136 169 183 q 194 63 169 93 q 258 33 220 33 q 332 57 297 33 q 383 119 366 81 q 399 229 399 156 q 395 351 399 284 m 389 640 l 228 762 q 161 847 161 812 q 205 890 161 890 q 247 874 229 890 q 296 816 266 859 l 401 669 q 420 637 420 643 q 410 628 420 628 q 389 640 404 628 z "},"":{"ha":608,"x_min":64,"x_max":595,"o":"m 395 87 q 315 15 361 39 q 211 -9 269 -9 q 103 27 142 -9 q 64 123 64 64 q 88 207 64 168 q 141 262 111 245 q 248 305 172 279 q 378 365 356 341 q 399 427 399 389 q 371 520 399 487 q 290 554 342 554 q 226 535 248 554 q 193 458 204 515 q 139 396 180 396 q 106 411 124 396 q 88 455 88 426 q 144 544 88 506 q 299 581 201 581 q 424 559 377 581 q 482 509 470 537 q 494 399 494 480 l 490 220 q 502 72 490 116 q 549 28 515 28 q 568 31 555 28 l 579 32 q 595 20 595 32 q 461 -6 595 -6 q 409 12 422 -6 q 395 87 396 30 m 395 351 q 302 287 374 325 q 200 217 231 250 q 169 136 169 183 q 194 63 169 93 q 258 33 220 33 q 332 57 297 33 q 383 119 366 81 q 399 229 399 156 q 395 351 399 284 m 264 905 l 338 905 l 467 670 q 475 649 475 655 q 465 638 475 638 q 450 648 458 638 q 441 658 447 652 l 301 803 l 163 658 q 138 639 144 639 q 125 650 125 639 q 134 670 125 653 l 264 905 z "},"":{"ha":608,"x_min":64,"x_max":595,"o":"m 395 87 q 315 15 361 39 q 211 -9 269 -9 q 103 27 142 -9 q 64 123 64 64 q 88 207 64 168 q 141 262 111 245 q 248 305 172 279 q 378 365 356 341 q 399 427 399 389 q 371 520 399 487 q 290 554 342 554 q 226 535 248 554 q 193 458 204 515 q 139 396 180 396 q 106 411 124 396 q 88 455 88 426 q 144 544 88 506 q 299 581 201 581 q 424 559 377 581 q 482 509 470 537 q 494 399 494 480 l 490 220 q 502 72 490 116 q 549 28 515 28 q 568 31 555 28 l 579 32 q 595 20 595 32 q 461 -6 595 -6 q 409 12 422 -6 q 395 87 396 30 m 395 351 q 302 287 374 325 q 200 217 231 250 q 169 136 169 183 q 194 63 169 93 q 258 33 220 33 q 332 57 297 33 q 383 119 366 81 q 399 229 399 156 q 395 351 399 284 m 172 781 q 215 762 197 781 q 234 718 234 744 q 215 674 234 692 q 172 656 197 656 q 127 674 146 656 q 109 718 109 692 q 128 763 109 745 q 172 781 146 781 m 428 781 q 472 763 453 781 q 490 718 490 745 q 472 674 490 692 q 428 656 454 656 q 385 674 403 656 q 366 718 366 692 q 385 762 366 744 q 428 781 403 781 z "},"":{"ha":608,"x_min":64,"x_max":595,"o":"m 395 87 q 315 15 361 39 q 211 -9 269 -9 q 103 27 142 -9 q 64 123 64 64 q 88 207 64 168 q 141 262 111 245 q 248 305 172 279 q 378 365 356 341 q 399 427 399 389 q 371 520 399 487 q 290 554 342 554 q 226 535 248 554 q 193 458 204 515 q 139 396 180 396 q 106 411 124 396 q 88 455 88 426 q 144 544 88 506 q 299 581 201 581 q 424 559 377 581 q 482 509 470 537 q 494 399 494 480 l 490 220 q 502 72 490 116 q 549 28 515 28 q 568 31 555 28 l 579 32 q 595 20 595 32 q 461 -6 595 -6 q 409 12 422 -6 q 395 87 396 30 m 395 351 q 302 287 374 325 q 200 217 231 250 q 169 136 169 183 q 194 63 169 93 q 258 33 220 33 q 332 57 297 33 q 383 119 366 81 q 399 229 399 156 q 395 351 399 284 m 233 790 q 314 759 264 790 q 396 728 365 728 q 456 779 448 728 q 478 789 457 789 q 488 777 488 789 q 456 679 488 722 q 376 637 425 637 q 292 668 336 637 q 213 703 239 703 q 172 689 190 703 q 151 654 154 675 q 134 637 149 637 q 120 649 120 637 q 150 744 120 699 q 233 790 180 790 z "},"":{"ha":608,"x_min":64,"x_max":595,"o":"m 395 87 q 315 15 361 39 q 211 -9 269 -9 q 103 27 142 -9 q 64 123 64 64 q 88 207 64 168 q 141 262 111 245 q 248 305 172 279 q 378 365 356 341 q 399 427 399 389 q 371 520 399 487 q 290 554 342 554 q 226 535 248 554 q 193 458 204 515 q 139 396 180 396 q 106 411 124 396 q 88 455 88 426 q 144 544 88 506 q 299 581 201 581 q 424 559 377 581 q 482 509 470 537 q 494 399 494 480 l 490 220 q 502 72 490 116 q 549 28 515 28 q 568 31 555 28 l 579 32 q 595 20 595 32 q 461 -6 595 -6 q 409 12 422 -6 q 395 87 396 30 m 395 351 q 302 287 374 325 q 200 217 231 250 q 169 136 169 183 q 194 63 169 93 q 258 33 220 33 q 332 57 297 33 q 383 119 366 81 q 399 229 399 156 q 395 351 399 284 m 300 871 q 377 839 345 871 q 410 761 410 808 q 377 684 410 716 q 300 652 345 652 q 222 684 254 652 q 191 761 191 716 q 223 839 191 808 q 300 871 256 871 m 300 828 q 253 808 273 828 q 233 761 233 789 q 253 714 233 733 q 300 694 273 694 q 347 714 328 694 q 367 761 367 734 q 347 808 367 789 q 300 828 328 828 z "},"":{"ha":578,"x_min":45,"x_max":536,"o":"m 334 -9 q 315 -55 328 -28 q 408 -144 408 -72 q 342 -236 408 -206 q 176 -265 277 -265 q 156 -251 156 -265 q 182 -237 156 -241 q 279 -212 252 -229 q 306 -165 306 -196 q 248 -117 306 -122 l 302 -10 q 123 73 201 -10 q 45 273 45 155 q 124 490 45 397 q 319 583 203 583 q 460 547 393 583 q 528 456 528 511 q 515 419 528 435 q 486 404 503 404 q 427 465 448 404 q 318 558 396 558 q 200 491 241 558 q 160 316 160 425 q 216 108 160 189 q 352 27 273 27 q 454 69 406 27 q 509 165 502 111 q 524 185 513 185 q 536 173 536 185 q 483 55 536 112 q 334 -9 430 -1 z "},"":{"ha":593,"x_min":47,"x_max":556,"o":"m 161 317 q 158 262 158 282 q 215 99 158 165 q 355 33 271 33 q 506 98 436 33 q 532 116 526 116 q 543 98 543 116 q 455 18 517 51 q 316 -14 393 -14 q 125 67 203 -14 q 47 272 47 148 q 133 494 47 405 q 317 583 219 583 q 482 513 408 583 q 556 350 556 444 q 552 329 556 336 q 500 322 547 322 l 161 317 m 161 352 q 332 348 249 348 l 368 350 q 430 366 408 351 q 452 417 452 380 q 413 516 452 474 q 321 559 374 559 q 223 510 272 559 q 161 352 175 462 m 220 669 l 324 816 q 373 874 355 859 q 416 890 392 890 q 459 847 459 890 q 393 762 459 812 l 233 640 q 210 628 216 628 q 201 637 201 628 q 220 669 201 643 z "},"":{"ha":593,"x_min":47,"x_max":556,"o":"m 161 317 q 158 262 158 282 q 215 99 158 165 q 355 33 271 33 q 506 98 436 33 q 532 116 526 116 q 543 98 543 116 q 455 18 517 51 q 316 -14 393 -14 q 125 67 203 -14 q 47 272 47 148 q 133 494 47 405 q 317 583 219 583 q 482 513 408 583 q 556 350 556 444 q 552 329 556 336 q 500 322 547 322 l 161 317 m 161 352 q 332 348 249 348 l 368 350 q 430 366 408 351 q 452 417 452 380 q 413 516 452 474 q 321 559 374 559 q 223 510 272 559 q 161 352 175 462 m 410 640 l 250 762 q 183 847 183 812 q 227 890 183 890 q 269 874 250 890 q 318 816 288 859 l 422 669 q 442 637 442 643 q 432 628 442 628 q 410 640 426 628 z "},"":{"ha":593,"x_min":47,"x_max":556,"o":"m 161 317 q 158 262 158 282 q 215 99 158 165 q 355 33 271 33 q 506 98 436 33 q 532 116 526 116 q 543 98 543 116 q 455 18 517 51 q 316 -14 393 -14 q 125 67 203 -14 q 47 272 47 148 q 133 494 47 405 q 317 583 219 583 q 482 513 408 583 q 556 350 556 444 q 552 329 556 336 q 500 322 547 322 l 161 317 m 161 352 q 332 348 249 348 l 368 350 q 430 366 408 351 q 452 417 452 380 q 413 516 452 474 q 321 559 374 559 q 223 510 272 559 q 161 352 175 462 m 260 905 l 335 905 l 464 670 q 472 649 472 655 q 462 638 472 638 q 447 648 455 638 q 438 658 444 652 l 298 803 l 159 658 q 135 639 141 639 q 121 650 121 639 q 130 670 121 653 l 260 905 z "},"":{"ha":593,"x_min":47,"x_max":556,"o":"m 161 317 q 158 262 158 282 q 215 99 158 165 q 355 33 271 33 q 506 98 436 33 q 532 116 526 116 q 543 98 543 116 q 455 18 517 51 q 316 -14 393 -14 q 125 67 203 -14 q 47 272 47 148 q 133 494 47 405 q 317 583 219 583 q 482 513 408 583 q 556 350 556 444 q 552 329 556 336 q 500 322 547 322 l 161 317 m 161 352 q 332 348 249 348 l 368 350 q 430 366 408 351 q 452 417 452 380 q 413 516 452 474 q 321 559 374 559 q 223 510 272 559 q 161 352 175 462 m 168 781 q 212 762 193 781 q 231 718 231 744 q 212 674 231 692 q 168 656 193 656 q 124 674 142 656 q 106 718 106 692 q 124 763 106 745 q 168 781 143 781 m 425 781 q 468 763 450 781 q 487 718 487 745 q 469 674 487 692 q 425 656 450 656 q 381 674 399 656 q 363 718 363 692 q 381 762 363 744 q 425 781 399 781 z "},"":{"ha":361,"x_min":45,"x_max":351,"o":"m 237 583 l 237 430 l 238 288 l 238 180 l 237 99 q 253 37 237 50 q 301 22 269 24 q 338 7 338 20 q 324 -4 338 -4 q 312 -3 319 -4 q 195 5 249 5 q 75 -1 108 5 q 61 -2 68 -2 q 45 10 45 -2 q 83 27 45 22 q 131 44 121 32 q 142 111 142 56 l 146 392 q 129 525 146 505 q 63 547 112 546 q 47 558 47 547 q 52 568 47 564 q 133 576 58 571 q 237 583 208 582 m 112 669 l 216 816 q 266 874 247 859 q 308 890 284 890 q 351 847 351 890 q 285 762 351 812 l 125 640 q 102 628 109 628 q 93 637 93 628 q 112 669 93 643 z "},"":{"ha":361,"x_min":26,"x_max":338,"o":"m 237 583 l 237 430 l 238 288 l 238 180 l 237 99 q 253 37 237 50 q 301 22 269 24 q 338 7 338 20 q 324 -4 338 -4 q 312 -3 319 -4 q 195 5 249 5 q 75 -1 108 5 q 61 -2 68 -2 q 45 10 45 -2 q 83 27 45 22 q 131 44 121 32 q 142 111 142 56 l 146 392 q 129 525 146 505 q 63 547 112 546 q 47 558 47 547 q 52 568 47 564 q 133 576 58 571 q 237 583 208 582 m 254 640 l 93 762 q 26 847 26 812 q 70 890 26 890 q 112 874 94 890 q 161 816 131 859 l 266 669 q 286 637 286 643 q 275 628 286 628 q 254 640 269 628 z "},"":{"ha":361,"x_min":14,"x_max":365,"o":"m 237 583 l 237 430 l 238 288 l 238 180 l 237 99 q 253 37 237 50 q 301 22 269 24 q 338 7 338 20 q 324 -4 338 -4 q 312 -3 319 -4 q 195 5 249 5 q 75 -1 108 5 q 61 -2 68 -2 q 45 10 45 -2 q 83 27 45 22 q 131 44 121 32 q 142 111 142 56 l 146 392 q 129 525 146 505 q 63 547 112 546 q 47 558 47 547 q 52 568 47 564 q 133 576 58 571 q 237 583 208 582 m 153 905 l 228 905 l 357 670 q 365 649 365 655 q 355 638 365 638 q 340 648 348 638 q 331 658 336 652 l 191 803 l 52 658 q 28 639 34 639 q 14 650 14 639 q 23 670 14 653 l 153 905 z "},"":{"ha":361,"x_min":-1,"x_max":380,"o":"m 237 583 l 237 430 l 238 288 l 238 180 l 237 99 q 253 37 237 50 q 301 22 269 24 q 338 7 338 20 q 324 -4 338 -4 q 312 -3 319 -4 q 195 5 249 5 q 75 -1 108 5 q 61 -2 68 -2 q 45 10 45 -2 q 83 27 45 22 q 131 44 121 32 q 142 111 142 56 l 146 392 q 129 525 146 505 q 63 547 112 546 q 47 558 47 547 q 52 568 47 564 q 133 576 58 571 q 237 583 208 582 m 61 781 q 105 762 86 781 q 123 718 123 744 q 105 674 123 692 q 61 656 86 656 q 17 674 35 656 q -1 718 -1 692 q 17 763 -1 745 q 61 781 36 781 m 317 781 q 361 763 342 781 q 380 718 380 745 q 361 674 380 692 q 317 656 343 656 q 274 674 292 656 q 256 718 256 692 q 274 762 256 744 q 317 781 292 781 z "},"":{"ha":738,"x_min":45,"x_max":695,"o":"m 216 581 q 236 446 233 541 q 329 545 278 512 q 441 578 380 578 q 530 561 487 578 q 596 502 573 544 q 620 357 620 459 l 616 129 q 626 50 616 66 q 671 24 637 34 q 695 9 695 18 q 684 -1 695 -1 q 674 0 679 -1 q 582 7 643 7 q 464 2 527 7 q 439 14 439 2 q 452 24 439 22 q 501 41 490 33 q 517 65 513 50 q 525 163 522 79 q 528 298 528 246 q 492 489 528 441 q 403 536 456 536 q 271 451 323 536 q 218 165 218 365 q 230 49 218 74 q 290 19 242 24 q 304 6 304 18 q 290 -3 304 -3 l 254 -1 q 129 1 235 1 l 75 -1 q 45 10 45 -1 q 77 28 45 22 q 119 49 109 34 q 134 151 130 64 q 138 366 138 237 q 121 515 138 486 q 76 551 105 544 q 50 568 50 557 q 70 579 50 579 l 125 578 q 216 581 134 578 m 308 790 q 389 759 339 790 q 471 728 439 728 q 530 779 523 728 q 553 789 532 789 q 562 777 562 789 q 531 679 562 722 q 451 637 500 637 q 366 668 411 637 q 288 703 314 703 q 247 689 264 703 q 226 654 229 675 q 209 637 223 637 q 195 649 195 637 q 225 744 195 699 q 308 790 255 790 z "},"":{"ha":680,"x_min":47,"x_max":633,"o":"m 47 283 q 133 494 47 403 q 345 585 219 585 q 548 503 463 585 q 633 300 633 422 q 543 83 633 176 q 334 -10 454 -10 q 132 76 216 -10 q 47 283 47 161 m 157 288 q 211 94 157 171 q 344 16 264 16 q 472 89 416 16 q 527 281 527 161 q 474 472 527 389 q 336 556 420 556 q 207 480 257 556 q 157 288 157 404 m 263 669 l 368 816 q 417 874 398 859 q 459 890 435 890 q 503 847 503 890 q 436 762 503 812 l 276 640 q 254 628 260 628 q 244 637 244 628 q 263 669 244 643 z "},"":{"ha":680,"x_min":47,"x_max":633,"o":"m 47 283 q 133 494 47 403 q 345 585 219 585 q 548 503 463 585 q 633 300 633 422 q 543 83 633 176 q 334 -10 454 -10 q 132 76 216 -10 q 47 283 47 161 m 157 288 q 211 94 157 171 q 344 16 264 16 q 472 89 416 16 q 527 281 527 161 q 474 472 527 389 q 336 556 420 556 q 207 480 257 556 q 157 288 157 404 m 429 640 l 268 762 q 201 847 201 812 q 245 890 201 890 q 287 874 269 890 q 336 816 306 859 l 441 669 q 460 637 460 643 q 450 628 460 628 q 429 640 444 628 z "},"":{"ha":680,"x_min":47,"x_max":633,"o":"m 47 283 q 133 494 47 403 q 345 585 219 585 q 548 503 463 585 q 633 300 633 422 q 543 83 633 176 q 334 -10 454 -10 q 132 76 216 -10 q 47 283 47 161 m 157 288 q 211 94 157 171 q 344 16 264 16 q 472 89 416 16 q 527 281 527 161 q 474 472 527 389 q 336 556 420 556 q 207 480 257 556 q 157 288 157 404 m 304 905 l 378 905 l 507 670 q 515 649 515 655 q 505 638 515 638 q 490 648 498 638 q 481 658 487 652 l 341 803 l 203 658 q 178 639 184 639 q 165 650 165 639 q 174 670 165 653 l 304 905 z "},"":{"ha":680,"x_min":47,"x_max":633,"o":"m 47 283 q 133 494 47 403 q 345 585 219 585 q 548 503 463 585 q 633 300 633 422 q 543 83 633 176 q 334 -10 454 -10 q 132 76 216 -10 q 47 283 47 161 m 157 288 q 211 94 157 171 q 344 16 264 16 q 472 89 416 16 q 527 281 527 161 q 474 472 527 389 q 336 556 420 556 q 207 480 257 556 q 157 288 157 404 m 212 781 q 255 762 237 781 q 274 718 274 744 q 255 674 274 692 q 212 656 237 656 q 168 674 186 656 q 149 718 149 692 q 168 763 149 745 q 212 781 186 781 m 468 781 q 512 763 493 781 q 530 718 530 745 q 512 674 530 692 q 468 656 494 656 q 425 674 443 656 q 406 718 406 692 q 425 762 406 744 q 468 781 443 781 z "},"":{"ha":680,"x_min":47,"x_max":633,"o":"m 47 283 q 133 494 47 403 q 345 585 219 585 q 548 503 463 585 q 633 300 633 422 q 543 83 633 176 q 334 -10 454 -10 q 132 76 216 -10 q 47 283 47 161 m 157 288 q 211 94 157 171 q 344 16 264 16 q 472 89 416 16 q 527 281 527 161 q 474 472 527 389 q 336 556 420 556 q 207 480 257 556 q 157 288 157 404 m 269 790 q 350 759 300 790 q 432 728 401 728 q 492 779 484 728 q 514 789 493 789 q 524 777 524 789 q 492 679 524 722 q 412 637 461 637 q 328 668 372 637 q 249 703 275 703 q 208 689 226 703 q 187 654 190 675 q 170 637 184 637 q 156 649 156 637 q 186 744 156 699 q 269 790 216 790 z "},"":{"ha":709,"x_min":53,"x_max":659,"o":"m 210 570 q 216 315 214 526 q 223 139 218 183 q 257 67 229 96 q 323 39 286 39 q 421 84 372 39 q 482 181 471 130 q 494 420 494 233 q 483 525 494 507 q 430 546 472 543 q 414 557 414 547 q 419 567 414 565 q 450 570 424 570 l 585 570 q 591 404 591 496 l 586 149 q 599 50 586 71 q 641 27 612 30 q 659 14 659 24 q 624 1 659 1 l 517 1 q 489 20 489 1 q 490 32 489 25 q 492 73 492 52 q 490 125 492 91 q 382 25 438 58 q 267 -8 327 -8 q 180 17 215 -8 q 134 78 145 42 q 119 255 123 113 q 115 477 115 397 q 110 532 115 522 q 80 545 105 543 q 53 558 53 547 q 85 570 53 570 l 210 570 m 278 669 l 382 816 q 432 874 413 859 q 474 890 450 890 q 517 847 517 890 q 451 762 517 812 l 291 640 q 269 628 275 628 q 259 637 259 628 q 278 669 259 643 z "},"":{"ha":709,"x_min":53,"x_max":659,"o":"m 210 570 q 216 315 214 526 q 223 139 218 183 q 257 67 229 96 q 323 39 286 39 q 421 84 372 39 q 482 181 471 130 q 494 420 494 233 q 483 525 494 507 q 430 546 472 543 q 414 557 414 547 q 419 567 414 565 q 450 570 424 570 l 585 570 q 591 404 591 496 l 586 149 q 599 50 586 71 q 641 27 612 30 q 659 14 659 24 q 624 1 659 1 l 517 1 q 489 20 489 1 q 490 32 489 25 q 492 73 492 52 q 490 125 492 91 q 382 25 438 58 q 267 -8 327 -8 q 180 17 215 -8 q 134 78 145 42 q 119 255 123 113 q 115 477 115 397 q 110 532 115 522 q 80 545 105 543 q 53 558 53 547 q 85 570 53 570 l 210 570 m 419 640 l 258 762 q 192 847 192 812 q 235 890 192 890 q 278 874 259 890 q 327 816 296 859 l 431 669 q 451 637 451 643 q 441 628 451 628 q 419 640 435 628 z "},"":{"ha":709,"x_min":53,"x_max":659,"o":"m 210 570 q 216 315 214 526 q 223 139 218 183 q 257 67 229 96 q 323 39 286 39 q 421 84 372 39 q 482 181 471 130 q 494 420 494 233 q 483 525 494 507 q 430 546 472 543 q 414 557 414 547 q 419 567 414 565 q 450 570 424 570 l 585 570 q 591 404 591 496 l 586 149 q 599 50 586 71 q 641 27 612 30 q 659 14 659 24 q 624 1 659 1 l 517 1 q 489 20 489 1 q 490 32 489 25 q 492 73 492 52 q 490 125 492 91 q 382 25 438 58 q 267 -8 327 -8 q 180 17 215 -8 q 134 78 145 42 q 119 255 123 113 q 115 477 115 397 q 110 532 115 522 q 80 545 105 543 q 53 558 53 547 q 85 570 53 570 l 210 570 m 319 905 l 393 905 l 522 670 q 530 649 530 655 q 520 638 530 638 q 505 648 513 638 q 496 658 502 652 l 356 803 l 218 658 q 193 639 199 639 q 180 650 180 639 q 189 670 180 653 l 319 905 z "},"":{"ha":709,"x_min":53,"x_max":659,"o":"m 210 570 q 216 315 214 526 q 223 139 218 183 q 257 67 229 96 q 323 39 286 39 q 421 84 372 39 q 482 181 471 130 q 494 420 494 233 q 483 525 494 507 q 430 546 472 543 q 414 557 414 547 q 419 567 414 565 q 450 570 424 570 l 585 570 q 591 404 591 496 l 586 149 q 599 50 586 71 q 641 27 612 30 q 659 14 659 24 q 624 1 659 1 l 517 1 q 489 20 489 1 q 490 32 489 25 q 492 73 492 52 q 490 125 492 91 q 382 25 438 58 q 267 -8 327 -8 q 180 17 215 -8 q 134 78 145 42 q 119 255 123 113 q 115 477 115 397 q 110 532 115 522 q 80 545 105 543 q 53 558 53 547 q 85 570 53 570 l 210 570 m 227 781 q 270 762 252 781 q 289 718 289 744 q 270 674 289 692 q 227 656 252 656 q 182 674 201 656 q 164 718 164 692 q 183 763 164 745 q 227 781 201 781 m 483 781 q 527 763 508 781 q 545 718 545 745 q 527 674 545 692 q 483 656 509 656 q 439 674 458 656 q 421 718 421 692 q 439 762 421 744 q 483 781 458 781 z "},"":{"ha":955,"x_min":56,"x_max":899,"o":"m 500 -338 l 475 -338 q 414 367 431 273 q 347 460 396 460 q 288 417 326 460 q 234 368 258 382 q 174 354 210 354 q 92 385 127 354 q 56 459 56 415 q 72 509 56 488 q 113 531 87 531 q 150 513 136 531 q 164 479 164 496 q 115 431 164 441 q 130 403 120 412 q 153 393 139 393 q 224 458 180 393 q 275 513 255 504 q 313 523 295 523 q 359 509 338 523 q 414 454 380 494 q 458 408 438 427 q 406 646 406 580 q 454 765 406 710 q 468 787 468 782 q 452 810 468 793 q 424 865 424 840 q 443 908 424 889 q 488 927 461 927 q 529 912 511 927 q 547 873 547 897 q 508 812 547 831 q 494 797 494 804 q 502 783 494 791 q 568 646 568 715 q 540 515 568 612 q 512 408 515 431 q 559 458 528 422 q 607 504 590 493 q 652 515 625 515 q 743 446 694 515 q 805 395 778 395 q 829 404 819 395 q 843 431 838 413 q 789 479 789 431 q 804 517 789 500 q 840 534 818 534 q 883 513 866 534 q 899 460 899 491 q 863 385 899 415 q 781 355 826 355 q 665 417 722 355 q 613 454 632 454 q 556 375 579 454 q 500 -338 532 296 z "},"":{"ha":550,"x_min":66,"x_max":484,"o":"m 275 940 q 421 880 359 940 q 484 731 484 821 q 422 584 484 645 q 275 523 361 523 q 128 584 189 523 q 66 731 66 646 q 129 880 66 821 q 275 940 191 940 m 275 883 q 169 840 214 883 q 123 732 123 797 q 168 625 123 669 q 275 581 212 581 q 382 625 338 581 q 426 732 426 669 q 381 839 426 795 q 275 883 336 883 z "},"":{"ha":578,"x_min":47,"x_max":538,"o":"m 465 774 l 490 765 l 421 563 q 528 454 528 527 q 483 404 528 404 q 422 475 448 404 q 404 513 412 500 l 252 68 q 351 26 300 26 q 454 66 406 26 q 513 168 503 106 q 526 186 516 186 q 538 172 538 186 q 480 47 538 106 q 313 -12 422 -12 q 230 3 272 -12 l 159 -201 l 135 -193 l 205 12 q 91 116 135 45 q 47 268 47 186 q 123 486 47 389 q 321 582 200 582 q 397 572 357 582 l 465 774 m 384 536 q 314 557 350 557 q 200 490 239 557 q 161 317 161 424 q 231 87 161 181 l 384 536 z "},"":{"ha":1158,"x_min":33,"x_max":1131,"o":"m 602 277 l 880 298 q 901 299 894 299 q 911 280 911 299 q 906 266 911 269 q 886 261 902 262 l 593 238 q 468 -9 543 76 q 780 -68 645 -68 q 937 -35 865 -68 q 1014 45 1008 -3 q 1027 68 1016 68 q 1038 47 1038 68 q 970 -112 1038 -57 q 806 -167 903 -167 q 657 -133 755 -167 q 436 -47 559 -99 q 189 -161 311 -161 q 80 -130 127 -161 q 33 -50 33 -98 q 72 20 33 -14 q 185 54 112 54 q 406 10 285 54 q 468 229 446 104 l 210 210 q 195 210 198 210 q 184 232 184 210 q 188 243 184 241 q 210 247 193 245 l 475 267 q 553 628 523 539 q 642 792 583 718 q 765 894 701 866 q 890 922 829 922 q 1060 851 988 922 q 1131 696 1131 780 q 1074 538 1131 604 q 943 473 1016 473 q 883 486 917 473 q 850 511 850 498 q 861 523 850 523 q 883 515 865 523 q 942 498 920 498 q 1025 541 989 498 q 1061 682 1061 584 q 1011 842 1061 787 q 884 897 961 897 q 781 872 827 897 q 709 799 735 846 q 660 636 682 752 q 620 397 637 519 q 602 277 606 296 m 389 -25 q 202 28 279 28 q 126 4 157 28 q 96 -60 96 -19 q 119 -116 96 -98 q 189 -135 142 -135 q 389 -25 321 -135 z "},"":{"ha":651,"x_min":62,"x_max":588,"o":"m 214 547 q 155 736 155 652 q 205 874 155 820 q 334 928 255 928 q 445 891 398 928 q 492 800 492 855 q 467 738 492 760 q 417 715 442 715 q 381 731 396 715 q 366 766 366 746 q 389 809 366 790 q 418 847 418 833 q 392 883 418 869 q 338 897 366 897 q 254 863 288 897 q 220 770 220 828 q 261 632 220 702 q 427 416 302 563 q 558 243 529 296 q 588 140 588 191 q 560 54 588 88 q 441 -1 532 20 q 507 -184 507 -108 q 456 -317 507 -264 q 323 -370 406 -370 q 214 -331 254 -370 q 173 -245 173 -292 q 196 -188 173 -216 q 250 -161 220 -161 q 288 -175 270 -161 q 305 -211 305 -189 q 279 -252 305 -230 q 256 -290 256 -271 q 272 -325 256 -309 q 327 -342 288 -342 q 415 -309 387 -342 q 444 -235 444 -277 q 397 -98 444 -176 q 214 128 351 -21 q 93 284 125 227 q 62 410 62 342 q 100 506 62 472 q 214 547 138 541 m 423 32 q 502 52 476 34 q 528 104 528 70 q 437 269 528 167 q 289 442 345 370 q 184 513 233 513 q 137 495 159 513 q 115 445 115 477 q 138 371 115 415 q 248 221 161 327 q 423 32 335 115 z "},"":{"ha":492,"x_min":76,"x_max":416,"o":"m 416 459 q 366 339 416 389 q 246 289 316 289 q 126 339 176 289 q 76 459 76 389 q 126 579 76 530 q 246 629 176 629 q 367 579 317 629 q 416 459 416 530 z "},"":{"ha":998,"x_min":126,"x_max":860,"o":"m 503 -321 l 503 174 l 459 172 q 213 266 300 172 q 126 504 126 360 q 209 744 126 648 q 417 861 292 840 q 860 882 543 882 l 860 859 q 767 814 785 838 q 748 724 748 791 l 748 -321 l 696 -321 l 696 841 q 648 846 669 846 q 553 830 601 846 l 553 -321 l 503 -321 z "},"":{"ha":694,"x_min":16,"x_max":652,"o":"m 422 551 q 598 456 545 531 q 652 278 652 380 q 583 83 652 163 q 415 2 515 2 q 339 26 366 2 q 311 79 311 50 q 326 114 311 101 q 361 127 341 127 q 411 75 401 127 q 421 37 416 45 q 444 28 427 28 q 522 79 496 28 q 547 233 547 131 q 527 406 547 332 q 465 508 507 480 q 347 538 424 535 q 326 553 326 539 q 355 565 326 562 q 463 612 431 572 q 494 730 494 653 q 457 856 494 810 q 354 902 420 902 q 271 874 304 902 q 227 804 237 847 q 215 584 217 762 q 213 257 213 406 q 225 62 213 96 q 276 27 237 28 q 299 14 299 26 q 280 3 299 3 l 157 4 l 36 3 q 16 16 16 3 q 37 27 16 25 q 118 119 118 35 l 115 280 q 122 704 115 607 q 189 864 130 801 q 361 927 249 927 q 529 869 467 927 q 591 734 591 811 q 549 622 591 667 q 422 551 507 576 z "},"":{"ha":1056,"x_min":47,"x_max":1009,"o":"m 528 903 q 763 841 649 903 q 943 665 877 780 q 1009 422 1009 550 q 868 82 1009 223 q 528 -60 726 -60 q 188 82 330 -60 q 47 422 47 223 q 188 762 47 621 q 528 903 330 903 m 528 861 q 313 805 417 861 q 149 644 210 749 q 89 422 89 538 q 217 111 89 239 q 528 -18 346 -18 q 838 112 709 -18 q 967 422 967 241 q 907 644 967 538 q 742 805 846 749 q 528 861 638 861 m 262 718 l 524 718 q 670 675 616 718 q 725 566 725 633 q 687 472 725 510 q 574 415 650 435 l 716 213 q 757 167 740 180 q 798 153 774 155 l 798 130 l 673 130 l 474 406 l 422 406 l 422 195 q 438 166 426 178 q 503 153 451 153 l 503 130 l 254 130 l 254 153 q 302 162 287 153 q 320 184 317 171 q 324 247 324 198 l 324 602 q 321 662 324 650 q 306 683 319 674 q 262 693 293 692 l 262 718 m 422 435 l 443 435 q 572 468 528 435 q 616 557 616 501 q 577 650 616 613 q 479 687 539 687 q 422 677 452 687 l 422 435 z "},"":{"ha":1056,"x_min":47,"x_max":1009,"o":"m 528 903 q 763 841 649 903 q 943 665 877 780 q 1009 422 1009 550 q 868 82 1009 223 q 528 -60 726 -60 q 188 82 330 -60 q 47 422 47 223 q 188 762 47 621 q 528 903 330 903 m 528 861 q 313 805 417 861 q 149 644 210 749 q 89 422 89 538 q 217 111 89 239 q 528 -18 346 -18 q 838 112 709 -18 q 967 422 967 241 q 907 644 967 538 q 742 805 846 749 q 528 861 638 861 m 766 730 l 779 541 l 753 541 q 547 701 704 701 q 389 631 448 701 q 330 437 330 561 q 392 225 330 292 q 554 157 455 157 q 766 267 686 157 l 791 254 q 531 117 696 117 q 304 206 391 117 q 217 418 217 296 q 312 639 217 547 q 555 731 408 731 q 680 706 604 731 q 705 701 697 701 q 739 730 728 701 l 766 730 z "},"":{"ha":1360,"x_min":20,"x_max":1330,"o":"m 35 947 l 528 947 l 543 811 l 520 811 q 492 876 517 845 q 389 907 467 907 l 338 907 l 338 514 q 351 442 338 457 q 410 425 365 427 l 410 400 l 156 400 l 156 425 q 209 438 193 427 q 224 513 224 448 l 224 907 l 172 907 q 82 887 111 907 q 43 811 53 867 l 20 811 l 35 947 m 776 947 l 961 559 l 1141 947 l 1330 947 l 1330 922 q 1268 905 1282 921 q 1255 831 1255 889 l 1255 513 q 1267 441 1255 456 q 1330 425 1280 427 l 1330 400 l 1060 400 l 1060 425 q 1125 442 1110 426 q 1141 513 1141 458 l 1141 846 l 932 400 l 911 400 l 701 840 l 701 513 q 713 443 701 461 q 765 425 726 425 l 789 425 l 789 400 l 582 400 l 582 425 q 644 440 629 425 q 659 513 659 456 l 659 829 q 645 906 659 890 q 582 922 632 922 l 582 947 l 776 947 z "},"":{"ha":463,"x_min":136,"x_max":394,"o":"m 155 669 l 259 816 q 308 874 290 859 q 351 890 327 890 q 394 847 394 890 q 328 762 394 812 l 168 640 q 145 628 151 628 q 136 637 136 628 q 155 669 136 643 z "},"":{"ha":463,"x_min":41,"x_max":422,"o":"m 103 781 q 147 762 128 781 q 165 718 165 744 q 147 674 165 692 q 103 656 128 656 q 59 674 77 656 q 41 718 41 692 q 59 763 41 745 q 103 781 78 781 m 359 781 q 403 763 385 781 q 422 718 422 745 q 404 674 422 692 q 359 656 385 656 q 316 674 334 656 q 298 718 298 692 q 316 762 298 744 q 359 781 334 781 z "},"":{"ha":926,"x_min":100,"x_max":827,"o":"m 100 551 l 508 551 l 650 913 l 701 913 l 562 551 l 827 551 l 827 491 l 538 491 l 439 237 l 827 237 l 827 177 l 416 177 l 273 -183 l 222 -183 l 364 177 l 100 177 l 100 237 l 387 237 l 486 491 l 100 491 l 100 551 z "},"":{"ha":1418,"x_min":12,"x_max":1375,"o":"m 1272 888 q 1329 681 1329 695 q 1316 667 1329 667 q 1302 678 1309 667 q 1151 827 1224 795 q 951 859 1078 859 q 823 847 869 859 q 814 478 814 741 q 873 477 869 477 q 1010 508 970 477 q 1071 606 1051 540 q 1088 627 1078 627 q 1098 608 1098 627 q 1097 589 1098 600 q 1093 456 1093 545 q 1097 317 1093 359 l 1098 297 q 1087 277 1098 277 q 1072 296 1076 277 q 1034 388 1056 359 q 969 432 1011 418 q 814 446 928 446 q 810 296 810 349 q 824 95 810 133 q 883 39 838 56 q 1004 22 928 22 q 1208 60 1129 22 q 1345 208 1287 99 q 1362 225 1354 225 q 1375 211 1375 225 q 1373 199 1375 206 q 1327 -5 1355 127 l 1184 -4 q 880 -3 984 -4 l 676 -1 q 571 4 576 0 q 566 13 566 9 q 591 26 566 25 q 680 83 661 28 q 699 351 699 139 q 697 441 699 369 l 399 441 q 266 187 288 252 q 244 93 244 122 q 267 39 244 55 q 338 22 289 22 q 359 9 359 21 q 338 -5 359 -5 q 325 -3 332 -5 q 281 -2 311 -2 l 159 1 q 80 -3 136 1 l 37 -5 q 12 8 12 -5 q 32 20 12 19 q 110 55 68 24 q 211 184 151 85 q 340 415 270 282 l 466 659 q 522 802 522 770 q 404 862 522 859 q 372 876 372 863 q 399 888 372 888 l 1272 888 m 697 483 q 685 787 697 726 q 637 848 673 848 q 606 833 623 848 q 532 711 590 818 q 416 483 474 604 l 643 481 q 697 483 671 481 z "},"":{"ha":1013,"x_min":60,"x_max":953,"o":"m 821 780 q 917 634 881 720 q 953 462 953 548 q 889 231 953 345 q 719 53 826 117 q 491 -12 612 -12 q 218 84 335 -12 l 121 -28 l 96 -5 l 193 107 q 96 254 132 166 q 60 431 60 342 q 193 757 60 611 q 519 903 325 903 q 795 803 677 903 l 890 912 l 916 890 l 821 780 m 266 190 l 731 728 q 507 869 646 869 q 293 744 373 869 q 213 456 213 618 q 266 190 213 321 m 749 696 l 282 157 q 381 57 319 91 q 509 23 443 23 q 648 70 582 23 q 759 227 715 117 q 802 454 802 336 q 749 696 802 586 z "},"":{"ha":984,"x_min":33,"x_max":951,"o":"m 440 549 q 547 700 488 663 q 691 736 607 736 q 813 707 757 736 q 910 613 869 678 q 951 454 951 547 q 876 248 951 327 q 714 170 801 170 q 609 203 661 170 q 486 363 557 236 q 266 205 409 205 q 142 240 193 205 q 63 327 92 275 q 33 456 33 378 q 95 635 33 566 q 241 704 157 704 q 349 671 306 704 q 440 549 393 637 m 505 412 q 597 275 550 318 q 717 233 645 233 q 860 297 808 233 q 912 454 912 362 q 853 618 912 552 q 721 684 795 684 q 619 644 663 684 q 505 412 575 605 m 420 496 q 239 642 359 642 q 122 595 174 642 q 71 456 71 547 q 118 313 71 368 q 227 258 165 258 q 321 297 273 258 q 420 496 369 335 z "},"":{"ha":926,"x_min":98,"x_max":827,"o":"m 98 517 l 432 517 l 432 852 l 492 852 l 492 517 l 827 517 l 827 457 l 492 457 l 492 124 l 432 124 l 432 457 l 98 457 l 98 517 m 98 60 l 827 60 l 827 0 l 98 0 l 98 60 z "},"":{"ha":926,"x_min":99,"x_max":827,"o":"m 826 120 l 100 429 l 100 481 l 826 789 l 826 724 l 178 455 l 826 185 l 826 120 m 99 60 l 827 60 l 827 0 l 99 0 l 99 60 z "},"":{"ha":926,"x_min":99,"x_max":827,"o":"m 100 789 l 826 480 l 826 427 l 100 120 l 100 185 l 747 454 l 100 724 l 100 789 m 99 60 l 827 60 l 827 0 l 99 0 l 99 60 z "},"":{"ha":984,"x_min":23,"x_max":968,"o":"m 561 414 l 902 414 l 902 374 l 558 374 q 555 302 555 336 q 569 69 555 107 q 670 23 583 31 q 692 9 692 21 q 668 -4 692 -4 l 486 0 q 378 -3 420 0 q 334 -5 344 -5 q 309 8 309 -5 q 328 20 309 19 q 415 70 393 22 q 436 203 436 117 q 431 294 436 225 q 422 374 427 363 l 77 374 l 77 414 l 411 414 q 269 629 389 453 l 77 629 l 77 668 l 242 668 q 121 823 157 794 q 47 855 85 852 q 23 869 23 857 q 30 879 23 876 q 68 881 36 881 l 364 881 q 401 879 395 881 q 407 868 407 877 q 390 856 407 857 q 304 804 304 849 q 379 668 304 774 l 677 668 q 747 795 747 769 q 720 839 747 821 q 661 856 694 856 q 638 868 638 856 q 677 881 638 881 l 932 881 q 968 867 968 881 q 952 855 968 855 q 850 821 895 855 q 721 668 805 787 l 902 668 l 902 629 l 691 629 q 577 470 589 492 q 561 414 564 448 m 650 629 l 407 629 l 526 464 q 650 629 557 494 z "},"":{"ha":694,"x_min":38,"x_max":689,"o":"m 80 621 l 191 621 l 191 260 q 213 104 191 144 q 288 64 235 64 q 368 87 328 64 q 448 155 408 110 l 448 621 l 559 621 l 559 178 q 570 77 559 100 q 606 54 581 54 q 661 138 648 54 l 689 138 q 555 -19 677 -19 q 480 13 507 -19 q 448 110 454 45 q 342 13 395 45 q 233 -19 288 -19 q 175 -4 201 -19 q 130 39 149 10 q 129 9 129 18 q 152 -155 129 -45 q 161 -224 161 -196 q 143 -276 161 -253 q 97 -300 126 -300 q 53 -277 68 -300 q 38 -225 38 -255 q 58 -114 38 -195 q 81 83 81 -21 l 80 129 l 80 621 z "},"":{"ha":680,"x_min":41,"x_max":672,"o":"m 627 486 q 635 613 635 559 q 572 801 635 733 q 401 868 508 868 q 285 841 336 868 q 197 760 234 814 l 165 760 q 276 913 212 863 q 424 964 341 964 q 601 881 529 964 q 672 623 672 798 q 559 179 672 378 q 271 -21 447 -21 q 106 37 171 -21 q 41 206 41 96 q 152 492 41 368 q 415 616 264 616 q 543 580 484 616 q 627 486 601 545 m 616 426 q 536 541 591 503 q 421 578 481 578 q 295 532 357 578 q 194 377 233 486 q 155 178 155 268 q 191 62 155 107 q 288 18 226 18 q 477 129 380 18 q 616 426 574 239 z "},"":{"ha":990,"x_min":29,"x_max":963,"o":"m 920 -266 l 29 -266 l 29 -256 l 483 354 l 29 946 l 29 971 l 896 971 l 914 743 l 887 743 q 718 916 869 916 l 216 916 l 597 416 l 171 -146 l 726 -146 q 815 -133 764 -146 q 893 -83 866 -119 q 936 21 920 -47 l 963 16 l 920 -266 z "},"":{"ha":1143,"x_min":31,"x_max":1112,"o":"m 841 918 l 302 918 l 302 -136 q 328 -217 302 -193 q 412 -241 355 -241 l 436 -241 l 436 -266 l 31 -266 l 31 -241 l 55 -241 q 142 -215 118 -241 q 165 -136 165 -189 l 165 841 q 140 922 165 898 q 55 946 114 946 l 31 946 l 31 971 l 1112 971 l 1112 946 l 1088 946 q 1002 920 1026 946 q 979 841 979 895 l 979 -136 q 1004 -217 979 -193 q 1088 -241 1029 -241 l 1112 -241 l 1112 -266 l 707 -266 l 707 -241 l 731 -241 q 818 -215 794 -241 q 841 -136 841 -189 l 841 918 z "},"":{"ha":738,"x_min":30,"x_max":682,"o":"m 682 621 l 682 522 l 525 522 q 498 211 498 362 q 524 121 498 148 q 583 94 549 94 q 658 170 650 94 l 682 170 q 632 26 670 71 q 543 -19 593 -19 q 459 27 494 -19 q 424 216 424 73 q 450 522 424 349 l 290 522 l 279 356 q 255 170 273 269 q 222 37 238 71 q 191 -8 206 3 q 159 -19 175 -19 q 116 -2 134 -19 q 98 37 98 14 q 103 71 98 58 q 142 129 109 84 q 189 243 177 177 q 215 522 201 309 l 195 522 q 120 504 150 522 q 54 427 90 486 l 30 427 q 83 549 50 503 q 148 608 115 595 q 250 621 181 621 l 682 621 z "},"":{"ha":376,"x_min":-2,"x_max":378,"o":"m 134 607 l 142 909 q 193 1203 148 1142 q 293 1263 237 1263 q 350 1243 322 1263 q 378 1191 378 1222 q 360 1141 378 1161 q 315 1120 343 1120 q 264 1145 292 1120 q 237 1158 248 1158 q 210 1116 210 1158 q 216 1017 210 1087 q 241 566 241 738 q 233 247 241 519 q 180 -88 224 -26 q 78 -149 136 -149 q 21 -127 45 -149 q -2 -67 -2 -105 q 15 -19 -2 -38 q 59 0 31 0 q 106 -22 86 0 q 139 -43 125 -43 q 159 -33 153 -43 q 165 -2 165 -22 q 159 79 165 26 q 134 607 134 294 z "},"":{"ha":420,"x_min":49,"x_max":404,"o":"m 261 588 q 212 556 239 567 q 151 545 184 545 q 76 568 104 545 q 49 628 49 591 q 75 693 49 669 q 173 740 102 718 q 252 774 240 761 q 263 807 263 787 q 248 861 263 843 q 201 878 233 878 q 166 869 177 878 q 147 824 155 859 q 104 785 138 785 q 76 796 89 785 q 64 824 64 807 q 102 879 64 854 q 207 903 140 903 q 287 890 256 903 q 329 861 318 878 q 340 803 340 844 l 337 684 q 367 578 337 578 q 382 578 370 578 q 404 567 404 578 q 313 547 404 547 q 261 588 264 547 m 261 747 q 212 720 242 735 q 132 636 132 682 q 146 596 132 612 q 181 579 159 579 q 235 602 208 579 q 263 695 263 625 q 261 747 263 721 z "},"":{"ha":434,"x_min":21,"x_max":412,"o":"m 21 720 q 78 848 21 793 q 220 903 136 903 q 356 853 299 903 q 412 730 412 803 q 353 600 412 656 q 214 543 294 543 q 76 596 132 543 q 21 720 21 649 m 108 724 q 139 613 108 659 q 219 568 171 568 q 295 610 262 568 q 328 720 328 652 q 296 829 328 781 q 214 878 264 878 q 138 833 168 878 q 108 724 108 789 z "},"":{"ha":1067,"x_min":58,"x_max":1008,"o":"m 58 212 l 83 212 q 105 151 85 176 q 193 126 126 126 l 376 126 l 376 172 q 173 293 264 193 q 82 541 82 392 q 207 823 82 705 q 536 941 332 941 q 769 889 671 941 q 926 752 867 838 q 985 543 985 666 q 905 304 985 401 q 690 172 824 208 l 690 126 l 876 126 q 955 145 930 126 q 983 212 979 165 l 1008 212 l 1008 0 l 629 0 l 644 205 q 819 528 819 260 q 733 797 819 703 q 532 890 648 890 q 331 794 414 890 q 248 538 248 699 q 422 205 248 264 l 437 0 l 58 0 l 58 212 z "},"":{"ha":926,"x_min":50,"x_max":878,"o":"m 484 301 q 484 265 484 277 q 540 84 484 146 q 662 22 596 22 q 756 46 706 22 q 841 106 807 69 q 867 125 858 125 q 878 113 878 125 q 807 41 878 96 q 631 -14 736 -14 q 494 17 553 -14 q 392 109 434 47 q 273 18 329 48 q 167 -12 216 -12 q 82 22 114 -12 q 50 115 50 57 q 109 232 50 183 q 382 361 169 281 q 361 506 382 463 q 289 549 341 549 q 215 530 242 549 q 170 467 187 510 q 143 418 156 431 q 107 405 130 405 q 63 444 63 405 q 89 500 63 474 q 190 551 115 526 q 300 576 264 576 q 475 483 420 576 q 653 574 555 574 q 771 537 718 574 q 850 437 825 500 q 876 342 876 374 q 849 327 876 330 q 636 312 821 323 q 484 301 527 306 m 484 331 q 677 345 624 338 q 745 362 730 351 q 759 395 759 372 q 728 506 759 466 q 643 545 698 545 q 567 523 604 545 q 508 457 530 501 q 484 331 485 413 m 382 328 q 190 240 237 277 q 142 160 142 204 q 171 81 142 114 q 241 49 199 49 q 299 66 271 49 q 382 136 327 84 q 380 176 380 168 l 382 328 z "},"":{"ha":680,"x_min":45,"x_max":639,"o":"m 552 499 q 633 300 633 416 q 544 83 633 176 q 334 -10 454 -10 q 160 50 240 -10 l 68 -55 l 45 -37 l 138 70 q 47 283 47 158 q 133 492 47 400 q 345 585 220 585 q 530 519 448 585 l 616 618 l 639 599 l 552 499 m 190 130 l 480 463 q 336 556 426 556 q 205 477 253 556 q 157 294 157 399 q 190 130 157 201 m 495 434 l 205 102 q 344 16 260 16 q 475 93 422 16 q 528 281 528 170 q 495 434 528 362 z "},"":{"ha":593,"x_min":83,"x_max":520,"o":"m 442 441 q 395 461 414 441 q 375 509 375 481 q 395 556 375 536 q 442 576 415 576 q 490 556 470 576 q 509 509 509 536 q 490 461 509 481 q 442 441 470 441 m 465 54 q 341 119 390 119 q 234 50 283 119 q 185 -115 185 -18 q 234 -265 185 -210 q 345 -320 283 -320 q 389 -309 370 -320 q 408 -279 408 -298 q 406 -260 408 -275 q 405 -245 405 -252 q 422 -197 405 -213 q 461 -180 439 -180 q 520 -243 520 -180 q 469 -318 520 -292 q 351 -345 418 -345 q 163 -266 243 -345 q 83 -85 83 -188 q 149 89 83 20 q 306 157 215 157 q 426 119 365 157 q 437 321 437 266 q 440 340 437 336 q 455 345 443 345 q 469 325 469 345 l 470 293 q 465 54 470 127 z "},"":{"ha":304,"x_min":85,"x_max":219,"o":"m 152 443 q 105 463 125 443 q 85 509 85 482 q 105 556 85 537 q 152 576 125 576 q 199 556 180 576 q 218 509 218 537 q 199 463 218 482 q 152 443 180 443 m 156 -338 q 87 -241 87 -338 q 103 -84 87 -210 q 128 154 117 19 q 140 306 140 290 q 141 344 140 340 q 154 348 142 348 q 172 336 172 348 l 172 311 q 183 126 172 279 q 214 -195 195 -28 q 219 -254 219 -231 q 201 -314 219 -290 q 156 -338 182 -338 z "},"":{"ha":926,"x_min":99,"x_max":827,"o":"m 99 558 l 827 558 l 827 168 l 768 168 l 768 498 l 99 498 l 99 558 z "},"":{"ha":767,"x_min":59,"x_max":764,"o":"m 714 1267 l 764 1267 l 553 -53 l 216 640 l 82 578 l 59 621 l 263 724 l 538 165 l 714 1267 z "},"":{"ha":984,"x_min":2,"x_max":986,"o":"m 484 35 q 406 -209 448 -132 q 294 -328 364 -286 q 140 -370 224 -370 q 2 -284 2 -370 q 20 -236 2 -254 q 60 -218 37 -218 q 84 -230 76 -218 q 104 -284 93 -242 q 177 -345 121 -345 q 259 -318 224 -345 q 322 -221 295 -291 q 404 79 349 -151 l 505 512 q 430 516 443 516 q 406 529 406 516 q 415 552 406 538 q 449 568 425 566 q 519 572 473 571 q 849 925 587 925 q 986 840 986 925 q 968 792 986 810 q 928 774 951 774 q 904 786 912 774 q 884 840 895 798 q 811 901 867 901 q 730 874 766 901 q 661 766 694 848 q 610 572 629 683 q 644 573 631 573 l 696 571 q 743 554 743 571 q 723 521 743 548 q 636 511 715 511 q 596 512 621 511 q 484 35 587 481 z "},"":{"ha":926,"x_min":102,"x_max":824,"o":"m 795 621 l 824 621 q 775 486 822 536 q 660 435 728 435 q 588 448 626 435 q 407 518 550 460 q 256 562 301 562 q 131 437 155 562 l 102 437 q 153 576 104 530 q 259 623 202 623 q 517 539 321 623 q 668 494 621 494 q 754 528 720 494 q 795 621 789 562 m 795 288 l 824 288 q 775 153 822 203 q 660 102 728 102 q 588 114 626 102 q 407 184 550 126 q 256 228 301 228 q 131 104 155 228 l 102 104 q 153 243 104 197 q 259 290 202 290 q 517 205 321 290 q 667 161 621 161 q 757 196 725 161 q 795 288 789 232 z "},"":{"ha":854,"x_min":20,"x_max":833,"o":"m 833 0 l 20 0 l 446 941 l 833 0 m 673 56 l 403 711 l 104 56 l 673 56 z "},"":{"ha":709,"x_min":45,"x_max":665,"o":"m 494 284 q 665 24 665 29 q 656 21 665 21 q 642 22 650 21 q 361 284 626 35 l 618 526 q 632 538 629 534 q 652 549 644 549 q 664 545 664 549 q 656 529 664 541 l 494 284 m 177 284 q 349 24 349 29 q 339 21 349 21 q 326 22 333 21 q 45 284 309 35 l 301 526 q 315 538 311 534 q 335 549 328 549 q 347 545 347 549 q 339 529 347 541 l 177 284 z "},"":{"ha":709,"x_min":44,"x_max":665,"o":"m 216 284 l 45 545 q 58 549 45 549 q 77 538 66 549 q 92 526 81 534 q 348 284 220 405 q 67 22 121 64 q 54 21 60 21 q 44 24 44 21 q 216 284 44 29 m 532 284 q 452 405 525 296 l 362 545 q 374 549 362 549 q 394 538 382 549 q 408 526 398 534 q 665 284 536 405 q 384 22 437 64 q 370 21 376 21 q 361 24 361 21 q 532 284 361 29 z "},"":{"ha":1389,"x_min":165,"x_max":1224,"o":"m 694 125 q 741 106 722 125 q 761 58 761 87 q 742 11 761 31 q 694 -9 722 -9 q 647 11 667 -9 q 628 58 628 31 q 648 106 628 87 q 694 125 667 125 m 231 125 q 278 106 258 125 q 298 58 298 87 q 279 11 298 31 q 231 -9 259 -9 q 184 11 204 -9 q 165 58 165 31 q 184 105 165 85 q 231 125 204 125 m 1158 125 q 1204 105 1185 125 q 1224 58 1224 86 q 1204 11 1224 31 q 1158 -9 1185 -9 q 1110 11 1130 -9 q 1090 58 1090 31 q 1110 105 1090 85 q 1158 125 1130 125 z "},"":{"ha":347,"x_min":0,"x_max":0,"o":""},"":{"ha":955,"x_min":4,"x_max":930,"o":"m 446 905 l 477 905 q 687 374 553 750 q 805 79 773 134 q 907 18 837 24 q 930 3 930 16 q 918 -6 930 -6 l 909 -5 q 750 0 846 0 q 560 -5 602 0 q 539 7 539 -5 q 555 18 539 16 q 634 38 612 24 q 656 83 656 52 q 615 229 656 112 l 575 345 q 260 341 540 345 q 189 104 189 153 q 224 43 189 63 q 293 21 259 23 q 318 5 318 19 q 310 -5 318 0 q 179 0 201 0 q 26 -3 65 0 q 4 9 4 -3 q 23 23 4 20 q 142 129 101 33 q 271 473 184 224 q 446 905 351 699 m 419 758 q 272 383 356 629 q 372 387 342 387 l 563 383 q 492 570 538 454 q 419 758 437 709 m 519 939 l 358 1061 q 292 1145 292 1111 q 335 1188 292 1188 q 377 1173 359 1188 q 427 1114 396 1157 l 531 968 q 551 935 551 941 q 541 926 551 926 q 519 939 534 926 z "},"":{"ha":955,"x_min":4,"x_max":930,"o":"m 446 905 l 477 905 q 687 374 553 750 q 805 79 773 134 q 907 18 837 24 q 930 3 930 16 q 918 -6 930 -6 l 909 -5 q 750 0 846 0 q 560 -5 602 0 q 539 7 539 -5 q 555 18 539 16 q 634 38 612 24 q 656 83 656 52 q 615 229 656 112 l 575 345 q 260 341 540 345 q 189 104 189 153 q 224 43 189 63 q 293 21 259 23 q 318 5 318 19 q 310 -5 318 0 q 179 0 201 0 q 26 -3 65 0 q 4 9 4 -3 q 23 23 4 20 q 142 129 101 33 q 271 473 184 224 q 446 905 351 699 m 419 758 q 272 383 356 629 q 372 387 342 387 l 563 383 q 492 570 538 454 q 419 758 437 709 m 408 1129 q 488 1098 439 1129 q 570 1067 539 1067 q 630 1118 623 1067 q 652 1128 631 1128 q 662 1116 662 1128 q 631 1018 662 1061 q 551 976 600 976 q 466 1007 511 976 q 387 1042 414 1042 q 347 1028 364 1042 q 326 993 328 1014 q 309 977 323 977 q 294 988 294 977 q 325 1083 294 1038 q 408 1129 355 1129 z "},"":{"ha":1013,"x_min":60,"x_max":952,"o":"m 60 450 q 116 651 60 541 q 278 831 172 760 q 519 903 385 903 q 830 768 707 903 q 952 462 952 634 q 817 133 952 279 q 490 -12 681 -12 q 184 115 308 -12 q 60 450 60 243 m 212 471 q 245 244 212 361 q 352 76 279 128 q 507 23 425 23 q 721 153 641 23 q 802 454 802 283 q 720 744 802 619 q 505 869 637 869 q 339 803 406 869 q 242 643 273 736 q 212 471 212 550 m 436 1129 q 517 1098 467 1129 q 599 1067 568 1067 q 659 1118 651 1067 q 681 1128 660 1128 q 690 1116 690 1128 q 659 1018 690 1061 q 579 976 628 976 q 494 1007 539 976 q 416 1042 442 1042 q 375 1028 393 1042 q 354 993 357 1014 q 337 977 351 977 q 323 988 323 977 q 353 1083 323 1038 q 436 1129 383 1129 z "},"":{"ha":1519,"x_min":64,"x_max":1471,"o":"m 1423 1 l 1078 1 q 892 7 977 1 q 798 12 833 12 q 613 1 724 12 q 488 -6 532 -6 q 187 119 310 -6 q 64 438 64 244 q 198 758 64 618 q 515 899 332 899 q 614 893 554 899 q 774 882 738 882 q 863 886 793 882 q 960 892 930 892 l 1382 892 q 1408 778 1393 855 q 1423 688 1423 701 q 1413 672 1423 672 q 1400 683 1407 672 q 1350 750 1393 694 q 1253 833 1308 806 q 1063 861 1198 861 q 922 848 975 861 q 913 583 913 708 q 914 486 913 526 q 979 484 967 484 q 1085 499 1049 484 q 1145 555 1121 515 q 1173 611 1169 595 q 1189 632 1177 632 q 1200 615 1200 632 q 1199 601 1200 609 q 1192 466 1192 538 l 1198 302 q 1187 285 1198 285 q 1173 302 1175 285 q 1133 395 1164 359 q 1052 441 1101 432 q 914 452 1003 450 q 911 314 911 332 q 922 114 911 161 q 975 47 933 67 q 1096 27 1017 27 q 1444 215 1367 27 q 1461 233 1451 233 q 1471 218 1471 233 q 1470 205 1471 212 l 1423 1 m 800 477 q 774 690 800 609 q 682 819 749 772 q 518 866 615 866 q 297 751 381 866 q 213 455 213 637 q 290 158 213 287 q 516 30 366 30 q 685 84 613 30 q 779 232 757 139 q 800 477 800 326 z "},"":{"ha":1085,"x_min":49,"x_max":1037,"o":"m 589 465 q 802 581 683 581 q 966 508 896 581 q 1037 305 1037 435 q 863 300 883 300 q 647 305 782 300 q 646 274 646 284 q 695 94 646 168 q 825 20 743 20 q 967 83 915 20 q 995 107 987 107 q 1005 97 1005 107 q 942 30 1005 73 q 791 -14 879 -14 q 698 3 741 -14 q 634 40 654 20 q 563 125 614 60 q 440 17 510 47 q 319 -13 370 -13 q 131 75 213 -13 q 49 279 49 163 q 142 489 49 393 q 357 584 235 584 q 589 465 496 584 m 168 295 q 190 147 168 214 q 247 48 212 81 q 335 15 283 15 q 472 101 420 15 q 525 302 525 187 q 481 486 525 414 q 359 559 437 559 q 213 480 258 559 q 168 295 168 401 m 647 329 q 724 328 702 328 q 902 342 869 328 q 935 403 935 355 q 897 512 935 469 q 798 555 858 555 q 647 329 654 555 z "},"":{"ha":694,"x_min":-8,"x_max":703,"o":"m -8 378 l 703 378 l 703 316 l -8 316 l -8 378 z "},"":{"ha":1389,"x_min":-8,"x_max":1397,"o":"m -8 378 l 1397 378 l 1397 316 l -8 316 l -8 378 z "},"":{"ha":492,"x_min":65,"x_max":472,"o":"m 144 635 q 89 658 113 635 q 65 715 65 681 q 135 841 65 782 q 224 901 205 901 q 238 889 238 901 q 191 844 238 883 q 139 770 139 801 q 170 737 139 753 q 205 688 205 720 q 188 651 205 667 q 144 635 172 635 m 379 635 q 323 658 347 635 q 300 715 300 681 q 370 841 300 782 q 459 901 440 901 q 472 889 472 901 q 425 844 472 883 q 374 770 374 801 q 405 737 374 753 q 439 688 439 720 q 422 651 439 667 q 379 635 406 635 z "},"":{"ha":492,"x_min":22,"x_max":429,"o":"m 115 901 q 171 878 147 901 q 195 820 195 855 q 125 694 195 753 q 35 635 55 635 q 22 646 22 635 q 69 691 22 652 q 121 765 121 734 q 90 798 121 783 q 56 847 56 815 q 72 885 56 869 q 115 901 88 901 m 350 901 q 406 878 382 901 q 429 820 429 855 q 359 694 429 754 q 270 635 289 635 q 257 646 257 635 q 304 691 257 652 q 355 765 355 734 q 324 798 355 783 q 290 847 290 815 q 306 885 290 869 q 350 901 323 901 z "},"":{"ha":290,"x_min":81,"x_max":254,"o":"m 161 635 q 105 658 129 635 q 81 715 81 681 q 152 841 81 781 q 241 901 222 901 q 254 888 254 901 q 207 844 254 883 q 155 770 155 801 q 186 737 155 753 q 221 688 221 720 q 204 651 221 667 q 161 635 188 635 z "},"":{"ha":290,"x_min":35,"x_max":208,"o":"m 128 901 q 184 878 160 901 q 208 820 208 855 q 138 694 208 753 q 48 635 68 635 q 35 646 35 635 q 82 691 35 652 q 134 765 134 734 q 102 798 134 783 q 68 847 68 815 q 85 885 68 869 q 128 901 101 901 z "},"":{"ha":926,"x_min":99,"x_max":827,"o":"m 419 646 q 431 673 419 662 q 462 684 444 684 q 491 672 479 684 q 503 643 503 660 q 491 613 503 626 q 462 600 479 600 q 432 614 444 600 q 419 646 419 627 m 99 391 l 827 391 l 827 332 l 99 332 l 99 391 m 504 85 q 491 55 504 68 q 462 43 479 43 q 432 55 444 43 q 420 85 420 68 q 432 115 420 102 q 462 127 444 127 q 491 115 479 127 q 504 85 504 102 z "},"":{"ha":686,"x_min":32,"x_max":656,"o":"m 372 964 l 656 481 l 372 0 l 297 0 l 32 481 l 297 964 l 372 964 m 336 899 l 105 481 l 336 64 l 579 481 l 336 899 z "},"":{"ha":694,"x_min":12,"x_max":682,"o":"m 405 100 q 500 373 479 300 q 521 488 521 445 q 450 551 521 545 q 431 564 431 553 q 446 575 431 575 q 483 573 452 575 q 526 572 495 572 q 646 575 616 572 q 665 576 660 576 q 682 565 682 576 q 664 551 682 555 q 578 472 610 538 q 464 161 547 405 q 334 -182 383 -77 q 232 -328 285 -288 q 127 -368 178 -368 q 43 -338 74 -368 q 12 -275 12 -307 q 33 -230 12 -250 q 75 -210 54 -210 q 136 -266 131 -210 q 169 -303 138 -303 q 278 -201 218 -303 q 338 -41 338 -98 q 291 119 338 5 q 188 367 245 234 q 110 524 131 500 q 65 551 90 547 q 43 564 43 553 q 59 577 43 577 q 75 576 66 577 q 165 571 114 571 q 297 576 273 571 q 317 578 311 578 q 334 566 334 578 q 304 547 334 555 q 250 496 250 533 q 405 100 250 464 m 219 781 q 263 762 244 781 q 281 718 281 744 q 263 674 281 692 q 219 656 244 656 q 175 674 193 656 q 157 718 157 692 q 175 763 157 745 q 219 781 194 781 m 475 781 q 519 763 500 781 q 538 718 538 745 q 519 674 538 692 q 475 656 501 656 q 432 674 450 656 q 414 718 414 692 q 432 762 414 744 q 475 781 450 781 z "},"":{"ha":984,"x_min":23,"x_max":968,"o":"m 526 464 q 641 616 564 506 q 733 752 719 726 q 747 795 747 779 q 719 839 747 823 q 661 856 690 856 q 638 868 638 856 q 677 881 638 881 l 932 881 q 968 867 968 881 q 952 855 968 855 q 875 837 912 855 q 785 755 838 819 l 667 595 q 567 449 574 471 q 556 280 556 417 q 571 64 556 98 q 670 23 587 31 q 692 9 692 21 q 668 -4 692 -4 l 486 0 q 378 -3 420 0 q 334 -5 344 -5 q 309 8 309 -5 q 328 20 309 19 q 414 68 393 22 q 436 205 436 115 q 424 365 436 304 q 366 476 421 380 q 230 687 310 571 q 115 827 149 802 q 47 855 80 852 q 23 869 23 857 q 30 879 23 876 q 68 881 36 881 l 364 881 q 401 879 395 881 q 407 868 407 877 q 390 856 407 857 q 304 804 304 849 q 336 732 304 781 q 526 464 367 682 m 364 1100 q 408 1082 389 1100 q 427 1038 427 1063 q 408 994 427 1012 q 364 975 389 975 q 320 993 338 975 q 302 1038 302 1011 q 320 1082 302 1065 q 364 1100 339 1100 m 621 1100 q 664 1082 646 1100 q 683 1038 683 1065 q 665 993 683 1011 q 621 975 646 975 q 577 993 595 975 q 559 1038 559 1011 q 577 1082 559 1063 q 621 1100 595 1100 z "},"":{"ha":43,"x_min":-288,"x_max":331,"o":"m 288 924 l 331 924 l -243 -14 l -288 -14 l 288 924 z "},"":{"ha":694,"x_min":25,"x_max":664,"o":"m 126 433 q 239 653 152 570 q 440 737 326 737 q 602 695 539 737 q 664 587 664 652 q 648 541 664 561 q 608 521 633 521 q 573 535 587 521 q 559 572 559 550 q 577 614 559 589 q 589 640 589 632 q 546 691 589 671 q 440 711 503 711 q 303 640 355 711 q 236 433 251 568 l 493 433 l 484 395 l 233 395 l 232 358 l 233 339 l 493 339 l 484 300 l 235 300 q 299 91 245 166 q 428 16 354 16 q 552 53 493 16 q 631 144 611 91 q 643 161 637 161 q 656 144 656 161 q 585 42 656 97 q 422 -12 514 -12 q 227 74 309 -12 q 123 300 145 160 l 25 300 l 35 339 l 121 339 l 119 358 q 122 395 119 372 l 25 395 l 35 433 l 126 433 z "},"":{"ha":391,"x_min":44,"x_max":348,"o":"m 176 284 q 348 24 348 29 q 338 21 348 21 q 325 22 332 21 q 44 284 308 35 l 300 526 q 315 538 311 534 q 334 549 327 549 q 347 545 347 549 q 338 529 347 541 l 176 284 z "},"":{"ha":391,"x_min":43,"x_max":347,"o":"m 215 284 l 45 545 q 57 549 45 549 q 77 538 65 549 q 91 526 81 534 q 347 284 219 405 q 66 22 120 64 q 53 21 59 21 q 43 24 43 21 q 215 284 43 29 z "},"":{"ha":767,"x_min":54,"x_max":702,"o":"m 263 570 l 392 570 q 537 578 489 570 l 635 595 q 622 168 622 517 q 633 50 622 73 q 673 26 645 28 q 702 14 702 25 q 672 1 702 1 l 576 2 q 494 0 519 2 q 470 -1 482 -1 q 437 14 437 -1 q 463 26 437 25 q 509 47 494 27 q 525 141 525 67 l 520 453 q 514 510 520 499 q 488 523 508 520 q 376 526 467 526 q 263 525 338 526 q 266 329 264 427 l 262 142 q 274 57 262 83 q 328 26 286 31 q 346 14 346 24 q 323 1 346 1 q 292 3 313 1 l 109 1 q 93 14 93 1 q 111 27 93 25 q 152 53 140 31 q 164 140 164 75 q 156 525 164 389 q 66 529 78 526 q 54 546 54 532 q 73 568 54 568 l 156 570 q 179 761 156 684 q 265 883 201 839 q 430 928 329 928 q 570 893 519 928 q 621 815 621 858 q 604 774 621 793 q 560 755 587 755 q 529 766 541 755 q 508 805 518 777 q 396 901 471 901 q 297 843 334 901 q 260 675 260 785 q 263 570 260 652 z "},"":{"ha":767,"x_min":41,"x_max":728,"o":"m 648 926 l 640 229 q 651 56 640 84 q 709 27 662 28 q 728 16 728 27 q 697 3 728 3 q 660 4 683 3 q 618 5 646 5 l 475 4 q 453 16 453 4 q 475 29 453 27 q 527 57 513 33 q 545 194 542 81 q 547 528 547 307 q 374 535 473 535 q 252 533 323 535 q 243 225 243 454 q 257 62 243 91 q 325 29 271 33 q 346 16 346 28 q 314 3 346 3 l 209 5 l 87 4 q 67 16 67 4 q 102 31 67 27 q 134 50 126 33 q 142 108 142 66 l 146 306 l 146 540 q 67 536 73 537 q 53 534 58 534 q 41 551 41 534 q 46 572 41 567 q 68 576 50 576 q 146 581 81 576 q 221 850 153 770 q 416 930 290 930 q 498 924 435 930 q 558 921 532 921 q 648 926 587 921 m 547 578 l 550 701 q 531 820 550 785 q 480 879 513 855 q 401 902 447 902 q 298 848 342 902 q 254 647 254 793 q 256 583 254 620 q 311 584 297 584 q 547 578 349 584 z "},"":{"ha":724,"x_min":60,"x_max":664,"o":"m 374 329 l 353 329 q 304 671 340 435 q 245 648 275 648 q 172 699 204 648 q 153 723 157 723 q 146 717 146 723 q 150 706 146 713 q 153 693 153 700 q 140 664 153 677 q 109 652 127 652 q 75 667 90 652 q 60 703 60 682 q 83 751 60 734 q 130 769 106 769 q 222 705 173 769 q 258 682 239 682 q 301 736 292 682 q 333 796 308 780 q 347 810 347 805 q 332 828 347 814 q 313 871 313 846 q 328 910 313 897 q 363 924 343 924 q 400 908 385 924 q 415 873 415 893 q 395 829 415 846 q 380 810 380 816 q 393 795 380 805 q 413 772 410 781 q 425 724 417 762 q 463 683 435 683 q 517 725 483 683 q 595 772 554 772 q 644 752 624 772 q 664 707 664 732 q 649 668 664 684 q 615 652 634 652 q 587 663 602 652 q 573 699 573 675 q 574 709 573 704 l 575 716 q 569 722 575 722 q 551 704 560 722 q 483 646 521 646 q 422 671 452 646 l 374 329 m 353 230 l 374 230 l 422 -115 q 484 -87 458 -87 q 535 -125 511 -87 q 568 -165 561 -165 q 573 -158 573 -165 l 572 -148 q 614 -96 572 -96 q 649 -112 634 -96 q 663 -151 663 -128 q 642 -197 663 -180 q 595 -214 621 -214 q 509 -159 556 -214 q 463 -129 482 -129 q 437 -139 445 -129 q 423 -176 429 -149 q 393 -237 416 -215 q 383 -251 383 -246 q 395 -273 383 -256 q 415 -319 415 -302 q 400 -355 415 -339 q 366 -370 385 -370 q 326 -355 341 -370 q 310 -315 310 -340 q 330 -273 310 -294 q 342 -253 342 -258 q 330 -237 342 -248 q 311 -217 315 -225 q 301 -179 307 -210 q 286 -137 294 -148 q 259 -126 277 -126 q 204 -168 234 -126 q 131 -214 169 -214 q 82 -197 104 -214 q 60 -149 60 -179 q 76 -109 60 -125 q 112 -94 93 -94 q 139 -105 127 -94 q 151 -133 151 -117 l 148 -148 l 146 -159 q 152 -166 146 -166 q 179 -133 156 -166 q 249 -89 210 -89 q 277 -95 264 -89 q 302 -115 291 -102 q 353 230 323 -14 z "},"":{"ha":304,"x_min":85,"x_max":220,"o":"m 152 429 q 200 410 180 429 q 220 362 220 391 q 200 314 220 334 q 152 294 180 294 q 104 314 124 294 q 85 362 85 334 q 104 410 85 390 q 152 429 124 429 z "},"":{"ha":290,"x_min":39,"x_max":212,"o":"m 132 113 q 188 90 164 113 q 212 33 212 67 q 141 -93 212 -33 q 52 -153 71 -153 q 39 -140 39 -153 q 85 -96 39 -135 q 138 -22 138 -53 q 106 11 138 -5 q 72 60 72 28 q 88 97 72 81 q 132 113 104 113 z "},"":{"ha":535,"x_min":49,"x_max":473,"o":"m 136 125 q 201 94 171 125 q 231 22 231 63 q 195 -96 231 -35 q 115 -186 159 -157 q 60 -216 71 -216 q 49 -202 49 -216 q 63 -189 49 -197 q 126 -126 95 -171 q 157 -36 157 -81 q 132 -9 157 -11 q 75 15 91 -5 q 60 55 60 35 q 79 104 60 82 q 136 125 99 125 m 378 125 q 444 94 414 125 q 473 22 473 63 q 438 -96 473 -34 q 358 -187 403 -157 q 303 -216 313 -216 q 292 -202 292 -216 q 306 -189 292 -197 q 369 -126 338 -171 q 401 -36 401 -81 q 374 -9 401 -11 q 318 15 334 -5 q 302 55 302 35 q 322 104 302 82 q 378 125 342 125 z "},"":{"ha":1476,"x_min":56,"x_max":1421,"o":"m 258 905 q 396 841 334 905 q 457 677 457 777 q 396 510 457 573 q 257 448 334 448 q 118 510 180 448 q 56 672 56 572 q 116 840 56 774 q 258 905 177 905 m 265 881 q 176 828 211 881 q 140 664 140 775 q 173 524 140 573 q 254 475 205 475 q 340 528 305 475 q 375 688 375 581 q 339 835 375 789 q 265 881 304 881 m 757 902 l 800 902 l 245 -16 l 204 -16 l 757 902 m 1221 439 q 1359 375 1297 439 q 1421 211 1421 312 q 1358 42 1421 102 q 1220 -19 1295 -19 q 1081 43 1143 -19 q 1019 205 1019 105 q 1078 371 1019 304 q 1221 439 1137 439 m 1228 415 q 1139 362 1174 415 q 1103 197 1103 309 q 1136 58 1103 106 q 1217 9 1168 9 q 1305 66 1272 9 q 1339 222 1339 123 q 1303 369 1339 322 q 1228 415 1267 415 m 739 439 q 876 375 814 439 q 938 211 938 312 q 877 44 938 106 q 737 -19 815 -19 q 598 43 661 -19 q 536 205 536 105 q 597 373 536 308 q 739 439 657 439 m 746 415 q 656 362 692 415 q 621 197 621 309 q 654 57 621 104 q 735 9 687 9 q 823 66 789 9 q 856 222 856 123 q 820 369 856 322 q 746 415 784 415 z "},"":{"ha":955,"x_min":4,"x_max":930,"o":"m 446 905 l 477 905 q 687 374 553 750 q 805 79 773 134 q 907 18 837 24 q 930 3 930 16 q 918 -6 930 -6 l 909 -5 q 750 0 846 0 q 560 -5 602 0 q 539 7 539 -5 q 555 18 539 16 q 634 38 612 24 q 656 83 656 52 q 615 229 656 112 l 575 345 q 260 341 540 345 q 189 104 189 153 q 224 43 189 63 q 293 21 259 23 q 318 5 318 19 q 310 -5 318 0 q 179 0 201 0 q 26 -3 65 0 q 4 9 4 -3 q 23 23 4 20 q 142 129 101 33 q 271 473 184 224 q 446 905 351 699 m 419 758 q 272 383 356 629 q 372 387 342 387 l 563 383 q 492 570 538 454 q 419 758 437 709 m 442 1196 l 517 1196 l 646 960 q 654 939 654 945 q 644 928 654 928 q 629 939 637 928 q 620 948 625 943 l 479 1093 l 341 948 q 317 929 323 929 q 303 940 303 929 q 312 960 303 943 l 442 1196 z "},"":{"ha":911,"x_min":41,"x_max":862,"o":"m 774 880 q 813 667 794 804 q 806 661 810 661 q 795 667 801 661 q 706 781 749 742 q 620 837 663 821 q 472 854 577 854 q 315 842 373 854 q 310 817 310 836 q 309 800 310 812 q 302 506 302 746 q 303 477 302 496 q 374 475 355 475 q 497 501 459 475 q 564 610 536 526 q 578 625 569 625 q 591 605 591 625 l 588 578 q 583 467 583 524 q 586 301 583 375 q 573 278 586 278 q 560 294 564 278 q 500 410 546 374 q 303 445 455 445 q 301 285 301 395 q 311 103 301 142 q 360 42 321 64 q 491 19 399 19 q 831 201 755 19 q 851 223 841 223 q 862 208 862 223 q 859 191 862 200 q 839 94 854 178 q 813 -12 836 77 l 529 -11 q 350 -6 468 -11 q 140 0 231 -1 q 45 3 49 0 q 41 11 41 7 q 63 24 41 24 q 162 64 138 24 q 186 259 186 104 l 185 398 l 187 528 q 183 677 187 568 q 175 802 178 787 q 154 833 171 818 q 77 864 136 848 q 60 879 60 869 q 83 891 60 891 l 222 884 q 582 880 295 880 q 774 880 770 880 m 422 1196 l 496 1196 l 625 960 q 633 939 633 945 q 623 928 633 928 q 608 939 616 928 q 600 948 605 943 l 459 1093 l 321 948 q 296 929 302 929 q 283 940 283 929 q 292 960 283 943 l 422 1196 z "},"":{"ha":955,"x_min":4,"x_max":930,"o":"m 446 905 l 477 905 q 687 374 553 750 q 805 79 773 134 q 907 18 837 24 q 930 3 930 16 q 918 -6 930 -6 l 909 -5 q 750 0 846 0 q 560 -5 602 0 q 539 7 539 -5 q 555 18 539 16 q 634 38 612 24 q 656 83 656 52 q 615 229 656 112 l 575 345 q 260 341 540 345 q 189 104 189 153 q 224 43 189 63 q 293 21 259 23 q 318 5 318 19 q 310 -5 318 0 q 179 0 201 0 q 26 -3 65 0 q 4 9 4 -3 q 23 23 4 20 q 142 129 101 33 q 271 473 184 224 q 446 905 351 699 m 419 758 q 272 383 356 629 q 372 387 342 387 l 563 383 q 492 570 538 454 q 419 758 437 709 m 425 968 l 529 1114 q 578 1173 559 1157 q 621 1188 597 1188 q 664 1145 664 1188 q 597 1061 664 1111 l 437 939 q 415 926 421 926 q 406 935 406 926 q 425 968 406 941 z "},"":{"ha":911,"x_min":41,"x_max":862,"o":"m 774 880 q 813 667 794 804 q 806 661 810 661 q 795 667 801 661 q 706 781 749 742 q 620 837 663 821 q 472 854 577 854 q 315 842 373 854 q 310 817 310 836 q 309 800 310 812 q 302 506 302 746 q 303 477 302 496 q 374 475 355 475 q 497 501 459 475 q 564 610 536 526 q 578 625 569 625 q 591 605 591 625 l 588 578 q 583 467 583 524 q 586 301 583 375 q 573 278 586 278 q 560 294 564 278 q 500 410 546 374 q 303 445 455 445 q 301 285 301 395 q 311 103 301 142 q 360 42 321 64 q 491 19 399 19 q 831 201 755 19 q 851 223 841 223 q 862 208 862 223 q 859 191 862 200 q 839 94 854 178 q 813 -12 836 77 l 529 -11 q 350 -6 468 -11 q 140 0 231 -1 q 45 3 49 0 q 41 11 41 7 q 63 24 41 24 q 162 64 138 24 q 186 259 186 104 l 185 398 l 187 528 q 183 677 187 568 q 175 802 178 787 q 154 833 171 818 q 77 864 136 848 q 60 879 60 869 q 83 891 60 891 l 222 884 q 582 880 295 880 q 774 880 770 880 m 330 1100 q 374 1082 355 1100 q 393 1038 393 1063 q 374 994 393 1012 q 330 975 355 975 q 286 993 304 975 q 268 1038 268 1011 q 287 1082 268 1065 q 330 1100 305 1100 m 587 1100 q 630 1082 612 1100 q 649 1038 649 1065 q 631 993 649 1011 q 587 975 612 975 q 543 993 562 975 q 525 1038 525 1011 q 543 1082 525 1063 q 587 1100 562 1100 z "},"":{"ha":911,"x_min":41,"x_max":862,"o":"m 774 880 q 813 667 794 804 q 806 661 810 661 q 795 667 801 661 q 706 781 749 742 q 620 837 663 821 q 472 854 577 854 q 315 842 373 854 q 310 817 310 836 q 309 800 310 812 q 302 506 302 746 q 303 477 302 496 q 374 475 355 475 q 497 501 459 475 q 564 610 536 526 q 578 625 569 625 q 591 605 591 625 l 588 578 q 583 467 583 524 q 586 301 583 375 q 573 278 586 278 q 560 294 564 278 q 500 410 546 374 q 303 445 455 445 q 301 285 301 395 q 311 103 301 142 q 360 42 321 64 q 491 19 399 19 q 831 201 755 19 q 851 223 841 223 q 862 208 862 223 q 859 191 862 200 q 839 94 854 178 q 813 -12 836 77 l 529 -11 q 350 -6 468 -11 q 140 0 231 -1 q 45 3 49 0 q 41 11 41 7 q 63 24 41 24 q 162 64 138 24 q 186 259 186 104 l 185 398 l 187 528 q 183 677 187 568 q 175 802 178 787 q 154 833 171 818 q 77 864 136 848 q 60 879 60 869 q 83 891 60 891 l 222 884 q 582 880 295 880 q 774 880 770 880 m 519 939 l 359 1061 q 292 1145 292 1111 q 336 1188 292 1188 q 378 1173 359 1188 q 427 1114 397 1157 l 532 968 q 551 935 551 941 q 541 926 551 926 q 519 939 535 926 z "},"":{"ha":521,"x_min":80,"x_max":446,"o":"m 94 895 l 218 892 l 407 895 q 441 881 441 895 q 422 868 441 871 q 329 814 347 859 q 310 483 310 769 q 315 246 310 378 q 328 89 321 115 q 353 47 334 63 q 424 24 372 31 q 441 11 441 22 q 425 -1 441 -1 l 257 0 l 114 -2 q 90 12 90 -2 q 109 26 90 26 q 183 68 172 27 q 194 328 194 109 q 190 670 194 539 q 168 830 186 801 q 99 867 150 859 q 80 882 80 870 q 94 895 80 895 m 207 968 l 311 1114 q 360 1173 342 1157 q 403 1188 379 1188 q 446 1145 446 1188 q 380 1061 446 1111 l 220 939 q 197 926 203 926 q 188 935 188 926 q 207 968 188 941 z "},"":{"ha":521,"x_min":56,"x_max":427,"o":"m 81 895 l 204 892 l 393 895 q 427 881 427 895 q 409 868 427 871 q 315 814 334 859 q 296 483 296 769 q 302 246 296 378 q 314 89 307 115 q 340 47 321 63 q 410 24 359 31 q 427 11 427 22 q 412 -1 427 -1 l 243 0 l 100 -2 q 77 12 77 -2 q 96 26 77 26 q 170 68 159 27 q 180 328 180 109 q 177 670 180 539 q 155 830 173 801 q 85 867 136 859 q 66 882 66 870 q 81 895 66 895 m 195 1196 l 270 1196 l 399 960 q 407 939 407 945 q 397 928 407 928 q 382 939 390 928 q 373 948 378 943 l 233 1093 l 94 948 q 70 929 76 929 q 56 940 56 929 q 65 960 56 943 l 195 1196 z "},"":{"ha":521,"x_min":41,"x_max":441,"o":"m 94 895 l 218 892 l 407 895 q 441 881 441 895 q 422 868 441 871 q 329 814 347 859 q 310 483 310 769 q 315 246 310 378 q 328 89 321 115 q 353 47 334 63 q 424 24 372 31 q 441 11 441 22 q 425 -1 441 -1 l 257 0 l 114 -2 q 90 12 90 -2 q 109 26 90 26 q 183 68 172 27 q 194 328 194 109 q 190 670 194 539 q 168 830 186 801 q 99 867 150 859 q 80 882 80 870 q 94 895 80 895 m 103 1100 q 147 1082 128 1100 q 165 1038 165 1063 q 147 994 165 1012 q 103 975 128 975 q 59 993 77 975 q 41 1038 41 1011 q 59 1082 41 1065 q 103 1100 78 1100 m 359 1100 q 403 1082 385 1100 q 422 1038 422 1065 q 404 993 422 1011 q 359 975 385 975 q 316 993 334 975 q 298 1038 298 1011 q 316 1082 298 1063 q 359 1100 334 1100 z "},"":{"ha":521,"x_min":68,"x_max":441,"o":"m 94 895 l 218 892 l 407 895 q 441 881 441 895 q 422 868 441 871 q 329 814 347 859 q 310 483 310 769 q 315 246 310 378 q 328 89 321 115 q 353 47 334 63 q 424 24 372 31 q 441 11 441 22 q 425 -1 441 -1 l 257 0 l 114 -2 q 90 12 90 -2 q 109 26 90 26 q 183 68 172 27 q 194 328 194 109 q 190 670 194 539 q 168 830 186 801 q 99 867 150 859 q 80 882 80 870 q 94 895 80 895 m 296 939 l 135 1061 q 68 1145 68 1111 q 112 1188 68 1188 q 154 1173 136 1188 q 203 1114 173 1157 l 308 968 q 328 935 328 941 q 317 926 328 926 q 296 939 311 926 z "},"":{"ha":1013,"x_min":60,"x_max":952,"o":"m 60 450 q 116 651 60 541 q 278 831 172 760 q 519 903 385 903 q 830 768 707 903 q 952 462 952 634 q 817 133 952 279 q 490 -12 681 -12 q 184 115 308 -12 q 60 450 60 243 m 212 471 q 245 244 212 361 q 352 76 279 128 q 507 23 425 23 q 721 153 641 23 q 802 454 802 283 q 720 744 802 619 q 505 869 637 869 q 339 803 406 869 q 242 643 273 736 q 212 471 212 550 m 453 968 l 557 1114 q 607 1173 588 1157 q 649 1188 625 1188 q 692 1145 692 1188 q 626 1061 692 1111 l 466 939 q 444 926 450 926 q 434 935 434 926 q 453 968 434 941 z "},"":{"ha":1013,"x_min":60,"x_max":952,"o":"m 60 450 q 116 651 60 541 q 278 831 172 760 q 519 903 385 903 q 830 768 707 903 q 952 462 952 634 q 817 133 952 279 q 490 -12 681 -12 q 184 115 308 -12 q 60 450 60 243 m 212 471 q 245 244 212 361 q 352 76 279 128 q 507 23 425 23 q 721 153 641 23 q 802 454 802 283 q 720 744 802 619 q 505 869 637 869 q 339 803 406 869 q 242 643 273 736 q 212 471 212 550 m 470 1196 l 545 1196 l 673 960 q 682 939 682 945 q 671 928 682 928 q 656 939 665 928 q 648 948 653 943 l 507 1093 l 369 948 q 345 929 351 929 q 331 940 331 929 q 340 960 331 943 l 470 1196 z "},"":{"ha":1099,"x_min":81,"x_max":1017,"o":"m 784 1082 q 785 1042 785 1057 q 767 954 785 992 q 714 885 750 916 q 649 839 677 854 q 563 821 621 825 q 562 843 562 836 q 614 979 562 900 q 784 1082 667 1057 m 987 721 q 859 494 859 637 q 1017 270 859 349 q 876 40 939 102 q 738 -21 812 -21 q 651 -1 704 -21 q 571 19 600 19 q 486 -1 537 19 q 402 -21 432 -21 q 182 153 284 -21 q 81 499 81 328 q 155 727 81 629 q 389 826 230 826 q 486 805 437 826 q 568 783 536 783 q 650 806 595 783 q 753 827 700 827 q 987 721 897 827 z "},"":{"ha":1013,"x_min":60,"x_max":952,"o":"m 60 450 q 116 651 60 541 q 278 831 172 760 q 519 903 385 903 q 830 768 707 903 q 952 462 952 634 q 817 133 952 279 q 490 -12 681 -12 q 184 115 308 -12 q 60 450 60 243 m 212 471 q 245 244 212 361 q 352 76 279 128 q 507 23 425 23 q 721 153 641 23 q 802 454 802 283 q 720 744 802 619 q 505 869 637 869 q 339 803 406 869 q 242 643 273 736 q 212 471 212 550 m 547 939 l 387 1061 q 320 1145 320 1111 q 363 1188 320 1188 q 406 1173 387 1188 q 455 1114 425 1157 l 559 968 q 579 935 579 941 q 569 926 579 926 q 547 939 563 926 z "},"":{"ha":1056,"x_min":43,"x_max":1025,"o":"m 72 888 l 412 888 q 441 876 441 888 q 419 861 441 863 q 348 835 371 857 q 313 758 325 813 q 301 523 301 703 q 314 223 301 307 q 392 91 326 140 q 572 41 458 41 q 754 87 692 41 q 835 222 817 132 q 854 610 854 311 q 822 812 854 764 q 728 860 790 860 q 703 874 703 860 q 736 888 703 888 l 1007 888 q 1025 874 1025 888 q 1010 863 1025 865 q 935 830 959 855 q 903 739 911 805 q 896 546 896 673 q 884 275 896 387 q 833 110 872 164 q 714 21 793 55 q 520 -12 635 -12 q 319 25 402 -12 q 207 125 236 63 q 177 311 177 187 l 180 498 q 158 805 180 749 q 66 862 137 861 q 43 873 43 862 q 72 888 43 888 m 504 968 l 608 1114 q 657 1173 639 1157 q 700 1188 676 1188 q 743 1145 743 1188 q 677 1061 743 1111 l 517 939 q 494 926 500 926 q 485 935 485 926 q 504 968 485 941 z "},"":{"ha":1056,"x_min":43,"x_max":1025,"o":"m 72 888 l 412 888 q 441 876 441 888 q 419 861 441 863 q 348 835 371 857 q 313 758 325 813 q 301 523 301 703 q 314 223 301 307 q 392 91 326 140 q 572 41 458 41 q 754 87 692 41 q 835 222 817 132 q 854 610 854 311 q 822 812 854 764 q 728 860 790 860 q 703 874 703 860 q 736 888 703 888 l 1007 888 q 1025 874 1025 888 q 1010 863 1025 865 q 935 830 959 855 q 903 739 911 805 q 896 546 896 673 q 884 275 896 387 q 833 110 872 164 q 714 21 793 55 q 520 -12 635 -12 q 319 25 402 -12 q 207 125 236 63 q 177 311 177 187 l 180 498 q 158 805 180 749 q 66 862 137 861 q 43 873 43 862 q 72 888 43 888 m 492 1196 l 567 1196 l 696 960 q 704 939 704 945 q 694 928 704 928 q 679 939 687 928 q 670 948 675 943 l 530 1093 l 391 948 q 367 929 373 929 q 353 940 353 929 q 362 960 353 943 l 492 1196 z "},"":{"ha":1056,"x_min":43,"x_max":1025,"o":"m 72 888 l 412 888 q 441 876 441 888 q 419 861 441 863 q 348 835 371 857 q 313 758 325 813 q 301 523 301 703 q 314 223 301 307 q 392 91 326 140 q 572 41 458 41 q 754 87 692 41 q 835 222 817 132 q 854 610 854 311 q 822 812 854 764 q 728 860 790 860 q 703 874 703 860 q 736 888 703 888 l 1007 888 q 1025 874 1025 888 q 1010 863 1025 865 q 935 830 959 855 q 903 739 911 805 q 896 546 896 673 q 884 275 896 387 q 833 110 872 164 q 714 21 793 55 q 520 -12 635 -12 q 319 25 402 -12 q 207 125 236 63 q 177 311 177 187 l 180 498 q 158 805 180 749 q 66 862 137 861 q 43 873 43 862 q 72 888 43 888 m 569 939 l 408 1061 q 342 1145 342 1111 q 385 1188 342 1188 q 428 1173 409 1188 q 477 1114 446 1157 l 581 968 q 601 935 601 941 q 591 926 601 926 q 569 939 585 926 z "},"":{"ha":361,"x_min":45,"x_max":338,"o":"m 237 583 l 237 430 l 238 288 l 238 180 l 237 99 q 253 37 237 50 q 301 22 269 24 q 338 7 338 20 q 324 -4 338 -4 q 312 -3 319 -4 q 195 5 249 5 q 75 -1 108 5 q 61 -2 68 -2 q 45 10 45 -2 q 83 27 45 22 q 131 44 121 32 q 142 111 142 56 l 146 392 q 129 525 146 505 q 63 547 112 546 q 47 558 47 547 q 52 568 47 564 q 133 576 58 571 q 237 583 208 582 z "},"":{"ha":463,"x_min":56,"x_max":407,"o":"m 195 905 l 270 905 l 399 670 q 407 649 407 655 q 397 638 407 638 q 382 648 390 638 q 373 658 378 652 l 233 803 l 94 658 q 70 639 76 639 q 56 650 56 639 q 65 670 56 653 l 195 905 z "},"":{"ha":463,"x_min":47,"x_max":415,"o":"m 161 790 q 241 759 192 790 q 323 728 292 728 q 383 779 376 728 q 406 789 385 789 q 415 777 415 789 q 384 679 415 722 q 304 637 353 637 q 219 668 264 637 q 140 703 167 703 q 100 689 117 703 q 79 654 81 675 q 62 637 76 637 q 47 649 47 637 q 78 744 47 699 q 161 790 108 790 z "},"":{"ha":463,"x_min":42,"x_max":420,"o":"m 42 722 l 420 722 l 420 657 l 42 657 l 42 722 z "},"":{"ha":463,"x_min":55,"x_max":410,"o":"m 225 720 q 384 812 350 720 q 398 819 387 819 q 410 810 410 819 q 366 694 410 751 q 233 637 321 637 q 100 694 145 637 q 55 808 55 751 q 68 819 55 819 q 82 811 79 819 q 225 720 121 720 z "},"":{"ha":463,"x_min":169,"x_max":294,"o":"m 231 781 q 275 762 256 781 q 294 718 294 744 q 275 674 294 692 q 231 656 256 656 q 187 674 205 656 q 169 718 169 692 q 188 763 169 745 q 231 781 206 781 z "},"":{"ha":463,"x_min":122,"x_max":341,"o":"m 231 871 q 309 839 276 871 q 341 761 341 808 q 309 684 341 716 q 231 652 277 652 q 154 684 186 652 q 122 761 122 716 q 155 839 122 808 q 231 871 187 871 m 231 828 q 184 808 204 828 q 165 761 165 789 q 184 714 165 733 q 231 694 204 694 q 279 714 259 694 q 298 761 298 734 q 279 808 298 789 q 231 828 259 828 z "},"":{"ha":463,"x_min":107,"x_max":359,"o":"m 260 4 l 291 4 q 266 -55 279 -25 q 359 -144 359 -72 q 293 -236 359 -206 q 127 -265 227 -265 q 107 -251 107 -265 q 132 -237 107 -241 q 230 -212 203 -229 q 257 -165 257 -196 q 239 -132 257 -144 q 198 -117 222 -119 l 260 4 z "},"":{"ha":463,"x_min":45,"x_max":533,"o":"m 64 669 l 169 816 q 218 874 199 859 q 260 890 237 890 q 304 847 304 890 q 237 762 304 812 l 77 640 q 55 628 61 628 q 45 637 45 628 q 64 669 45 643 m 294 669 l 398 816 q 447 874 429 859 q 490 890 466 890 q 533 847 533 890 q 467 762 533 812 l 306 640 q 284 628 290 628 q 274 637 274 628 q 294 669 274 643 z "},"":{"ha":463,"x_min":130,"x_max":371,"o":"m 233 16 l 273 16 q 212 -123 212 -67 q 232 -188 212 -166 q 292 -210 252 -210 q 345 -197 311 -210 q 359 -195 353 -195 q 371 -207 371 -195 q 315 -247 371 -222 q 226 -271 260 -271 q 156 -244 181 -271 q 130 -180 130 -217 q 233 16 130 -96 z "},"":{"ha":463,"x_min":55,"x_max":408,"o":"m 270 640 l 195 640 l 71 861 q 55 896 55 890 q 64 907 55 907 q 83 893 70 907 l 231 740 l 366 879 q 380 895 375 889 q 397 907 391 907 q 408 897 408 907 q 389 856 408 890 l 270 640 z "},"":{"ha":724,"x_min":55,"x_max":677,"o":"m 539 840 q 564 878 557 858 q 579 894 569 894 q 591 887 585 894 q 605 789 596 863 l 621 661 q 606 649 621 649 q 592 663 598 649 q 486 810 556 751 q 332 869 415 869 q 208 819 250 869 q 166 714 166 770 q 212 610 166 646 q 399 529 257 574 q 555 466 503 496 q 642 380 607 435 q 677 262 677 326 q 589 71 677 155 q 371 -14 500 -14 q 138 58 255 -14 q 108 14 115 39 q 90 -8 102 -8 q 75 20 79 -8 q 55 283 70 47 q 69 291 58 291 q 85 276 79 291 q 377 14 190 14 q 523 70 470 14 q 575 198 575 125 q 547 290 575 248 q 472 358 519 332 q 326 416 426 384 q 150 494 197 457 q 82 577 104 531 q 60 667 60 624 q 142 827 60 758 q 342 897 224 897 q 436 883 387 897 q 539 840 486 869 m 400 930 l 326 930 l 201 1151 q 185 1186 185 1181 q 195 1198 185 1198 q 214 1183 200 1198 l 361 1030 l 496 1169 q 510 1185 505 1179 q 528 1197 521 1197 q 538 1187 538 1197 q 519 1146 538 1181 l 400 930 z "},"":{"ha":550,"x_min":75,"x_max":483,"o":"m 483 180 q 425 44 483 101 q 286 -12 366 -12 q 173 18 239 -12 q 130 35 137 35 q 110 20 119 35 q 90 1 99 1 q 79 21 81 1 q 77 109 77 40 q 75 184 76 168 q 87 210 75 210 q 99 197 95 210 q 173 65 125 119 q 286 12 221 12 q 366 40 331 12 q 401 116 401 68 q 272 248 401 191 q 153 307 183 288 q 106 356 123 325 q 90 424 90 387 q 142 541 90 494 q 271 588 195 588 q 393 553 326 588 q 412 548 404 548 q 427 559 418 548 q 439 569 435 569 q 449 564 446 569 q 456 504 452 559 q 460 414 460 450 q 449 393 460 393 q 433 412 439 393 q 400 482 427 431 q 341 548 373 534 q 277 562 309 562 q 197 538 229 562 q 166 477 166 515 q 179 434 166 453 q 203 406 192 415 q 332 343 214 396 q 429 292 406 310 q 467 243 452 274 q 483 180 483 213 m 313 640 l 239 640 l 115 861 q 98 896 98 890 q 108 907 98 907 q 127 893 113 907 l 274 740 l 409 879 q 423 895 418 889 q 441 907 434 907 q 452 897 452 907 q 433 856 452 890 l 313 640 z "},"":{"ha":694,"x_min":317,"x_max":378,"o":"m 317 925 l 378 925 l 378 436 l 317 436 l 317 925 m 317 119 l 378 119 l 378 -370 l 317 -370 l 317 119 z "},"":{"ha":1056,"x_min":18,"x_max":996,"o":"m 184 425 l 71 425 l 71 463 l 185 463 l 191 663 q 182 774 191 718 q 156 846 174 830 q 99 869 138 863 q 71 884 71 873 q 85 899 71 899 q 170 893 96 899 q 288 887 244 887 l 472 890 q 859 763 722 890 q 996 436 996 636 q 930 193 996 290 q 773 42 865 96 q 508 -13 682 -13 q 415 -9 471 -13 q 302 -1 315 -1 q 41 -5 80 -1 q 18 6 18 -5 q 31 19 18 16 q 77 25 43 21 q 163 92 149 35 q 184 425 178 150 m 302 425 q 296 232 296 245 q 308 104 296 142 q 359 41 320 66 q 484 16 398 16 q 684 75 608 16 q 804 230 761 133 q 847 436 847 327 q 790 667 847 566 q 651 813 732 768 q 443 859 570 859 q 335 853 351 859 q 320 817 320 847 q 303 463 311 640 l 566 463 l 566 425 l 302 425 z "},"":{"ha":680,"x_min":49,"x_max":633,"o":"m 202 699 l 321 793 l 257 866 l 194 920 l 252 920 q 365 829 311 881 l 480 920 l 502 897 l 389 807 q 575 546 517 678 q 633 307 633 414 q 545 76 633 165 q 337 -13 456 -13 q 132 72 216 -13 q 49 279 49 157 q 130 491 49 401 q 337 580 210 580 q 480 532 409 580 q 342 770 422 664 l 222 677 l 202 699 m 155 293 q 210 88 155 161 q 340 14 264 14 q 468 81 410 14 q 525 272 525 148 q 476 476 525 398 q 343 553 428 553 q 209 478 263 553 q 155 293 155 404 z "},"":{"ha":984,"x_min":23,"x_max":968,"o":"m 526 464 q 641 616 564 506 q 733 752 719 726 q 747 795 747 779 q 719 839 747 823 q 661 856 690 856 q 638 868 638 856 q 677 881 638 881 l 932 881 q 968 867 968 881 q 952 855 968 855 q 875 837 912 855 q 785 755 838 819 l 667 595 q 567 449 574 471 q 556 280 556 417 q 571 64 556 98 q 670 23 587 31 q 692 9 692 21 q 668 -4 692 -4 l 486 0 q 378 -3 420 0 q 334 -5 344 -5 q 309 8 309 -5 q 328 20 309 19 q 414 68 393 22 q 436 205 436 115 q 424 365 436 304 q 366 476 421 380 q 230 687 310 571 q 115 827 149 802 q 47 855 80 852 q 23 869 23 857 q 30 879 23 876 q 68 881 36 881 l 364 881 q 401 879 395 881 q 407 868 407 877 q 390 856 407 857 q 304 804 304 849 q 336 732 304 781 q 526 464 367 682 m 479 968 l 584 1114 q 633 1173 614 1157 q 675 1188 652 1188 q 719 1145 719 1188 q 652 1061 719 1111 l 492 939 q 470 926 476 926 q 460 935 460 926 q 479 968 460 941 z "},"":{"ha":694,"x_min":12,"x_max":682,"o":"m 405 100 q 500 373 479 300 q 521 488 521 445 q 450 551 521 545 q 431 564 431 553 q 446 575 431 575 q 483 573 452 575 q 526 572 495 572 q 646 575 616 572 q 665 576 660 576 q 682 565 682 576 q 664 551 682 555 q 578 472 610 538 q 464 161 547 405 q 334 -182 383 -77 q 232 -328 285 -288 q 127 -368 178 -368 q 43 -338 74 -368 q 12 -275 12 -307 q 33 -230 12 -250 q 75 -210 54 -210 q 136 -266 131 -210 q 169 -303 138 -303 q 278 -201 218 -303 q 338 -41 338 -98 q 291 119 338 5 q 188 367 245 234 q 110 524 131 500 q 65 551 90 547 q 43 564 43 553 q 59 577 43 577 q 75 576 66 577 q 165 571 114 571 q 297 576 273 571 q 317 578 311 578 q 334 566 334 578 q 304 547 334 555 q 250 496 250 533 q 405 100 250 464 m 291 669 l 395 816 q 445 874 426 859 q 487 890 463 890 q 530 847 530 890 q 464 762 530 812 l 304 640 q 281 628 288 628 q 272 637 272 628 q 291 669 272 643 z "},"":{"ha":854,"x_min":64,"x_max":787,"o":"m 294 243 l 294 193 q 313 71 294 106 q 388 27 333 35 q 422 12 422 22 q 402 -1 422 -1 q 389 0 397 -1 q 238 2 357 2 l 96 -1 q 64 13 64 -1 q 87 24 64 21 q 159 62 138 31 q 180 193 180 94 l 180 669 q 173 801 180 772 q 144 846 166 830 q 85 864 121 863 q 64 879 64 865 q 85 890 64 890 l 397 890 q 420 878 420 890 q 404 865 420 866 q 318 837 342 861 q 294 746 294 813 l 294 709 q 341 711 319 711 q 382 711 363 711 q 705 655 623 711 q 787 483 787 599 q 699 303 787 363 q 413 243 610 243 l 294 243 m 294 273 q 401 269 370 269 q 598 330 538 269 q 659 490 659 391 q 637 587 659 545 q 564 656 615 629 q 400 684 513 684 q 327 678 353 684 q 294 661 300 672 l 294 273 z "},"":{"ha":709,"x_min":14,"x_max":657,"o":"m 227 925 l 227 466 q 311 539 265 515 q 410 564 357 564 q 584 480 510 564 q 657 279 657 397 q 568 69 657 149 q 382 -10 479 -10 q 222 44 290 -10 q 219 -172 219 -103 q 222 -260 219 -239 q 244 -296 226 -281 q 289 -315 262 -311 q 318 -331 318 -319 q 307 -342 318 -342 q 287 -340 300 -342 q 102 -336 250 -336 q 48 -339 64 -336 q 30 -340 37 -340 q 14 -326 14 -340 q 31 -314 14 -315 q 112 -277 97 -311 q 126 29 126 -243 l 134 728 q 121 868 134 841 q 61 899 109 895 q 42 914 42 901 q 65 925 42 925 l 227 925 m 221 258 q 233 119 221 163 q 280 47 245 75 q 368 19 316 19 q 498 87 445 19 q 551 270 551 156 q 501 453 551 386 q 376 521 452 521 q 287 490 325 521 q 235 409 250 458 q 221 258 221 359 z "},"":{"ha":926,"x_min":133,"x_max":793,"o":"m 133 650 l 174 692 l 463 403 l 752 692 l 793 650 l 505 361 l 791 75 l 749 33 l 463 319 l 176 33 l 134 75 l 420 361 l 133 650 z "},"":{"ha":477,"x_min":125,"x_max":356,"o":"m 212 595 l 212 787 q 197 850 212 835 q 140 869 181 865 q 125 881 125 870 q 145 892 125 892 q 262 920 222 895 q 275 925 272 925 q 288 895 288 925 l 288 595 q 296 518 288 534 q 341 498 305 502 q 356 488 356 497 q 328 476 356 476 l 161 476 l 142 475 q 132 486 132 478 q 146 498 132 498 q 201 518 191 501 q 212 595 212 536 z "},"":{"ha":477,"x_min":54,"x_max":427,"o":"m 379 477 l 87 477 q 54 484 54 477 q 119 538 54 490 q 273 683 226 621 q 321 810 321 746 q 300 875 321 851 q 245 899 279 899 q 156 861 197 899 q 115 763 115 823 q 123 719 115 734 q 147 704 132 704 q 193 730 164 704 q 216 747 211 747 q 227 736 227 747 q 197 699 227 723 q 136 675 168 675 q 81 700 104 675 q 57 758 57 725 q 121 876 57 826 q 271 926 186 926 q 368 896 328 926 q 408 816 408 866 q 382 729 408 777 q 277 626 355 682 l 168 546 l 279 546 q 365 554 347 546 q 397 587 382 562 q 417 607 410 607 q 427 597 427 607 q 422 579 427 593 l 379 477 z "},"":{"ha":477,"x_min":57,"x_max":408,"o":"m 303 732 q 381 700 355 726 q 408 630 408 675 q 347 518 408 567 q 201 469 287 469 q 96 498 134 469 q 57 563 57 527 q 72 594 57 580 q 108 608 86 608 q 142 576 142 608 q 138 557 142 570 q 135 534 135 543 q 154 506 135 517 q 195 495 172 495 q 287 551 249 495 q 325 659 325 608 q 315 695 325 683 q 284 707 304 707 q 208 677 249 707 q 195 671 200 671 q 184 684 184 671 q 197 698 184 691 q 262 746 227 714 q 307 793 298 778 q 315 831 315 808 q 299 883 315 866 q 250 901 283 901 q 178 867 210 901 q 146 796 146 834 q 151 772 146 781 q 164 764 155 764 q 190 779 174 764 q 204 789 201 789 q 216 777 216 789 q 198 752 216 770 q 156 734 180 734 q 111 752 128 734 q 94 802 94 771 q 150 892 94 855 q 277 928 205 928 q 357 902 321 928 q 393 836 393 876 q 303 732 393 783 z "},"":{"ha":998,"x_min":127,"x_max":945,"o":"m 214 595 l 214 787 q 199 850 214 835 q 142 869 183 865 q 127 881 127 870 q 147 892 127 892 q 264 920 224 895 q 277 925 274 925 q 290 895 290 925 l 290 595 q 298 518 290 534 q 343 498 307 502 q 358 488 358 497 q 330 476 358 476 l 163 476 l 144 475 q 134 486 134 478 q 149 498 134 498 q 203 518 193 501 q 214 595 214 536 m 764 924 l 808 924 l 234 -14 l 189 -14 l 764 924 m 897 0 l 606 0 q 572 7 572 0 q 637 62 572 13 q 802 221 764 159 q 839 332 839 283 q 818 398 839 374 q 764 422 798 422 q 674 383 714 422 q 633 286 633 344 q 642 242 633 256 q 665 227 650 227 q 710 252 682 227 q 734 269 729 269 q 745 259 745 269 q 715 222 745 247 q 654 198 686 198 q 598 223 623 198 q 574 281 574 248 q 638 399 574 349 q 789 448 701 448 q 886 418 846 448 q 926 338 926 389 q 913 279 926 312 q 877 220 900 247 q 799 153 853 193 l 686 68 l 797 68 q 883 76 865 68 q 916 109 901 84 q 935 130 928 130 q 945 119 945 130 q 940 102 945 115 l 897 0 z "},"":{"ha":998,"x_min":127,"x_max":958,"o":"m 214 595 l 214 787 q 199 850 214 835 q 142 869 183 865 q 127 881 127 870 q 147 892 127 892 q 264 920 224 895 q 277 925 274 925 q 290 895 290 925 l 290 595 q 298 518 290 534 q 343 498 307 502 q 358 488 358 497 q 330 476 358 476 l 163 476 l 144 475 q 134 486 134 478 q 149 498 134 498 q 203 518 193 501 q 214 595 214 536 m 764 924 l 808 924 l 234 -14 l 189 -14 l 764 924 m 836 183 q 911 196 892 183 q 935 255 929 209 q 947 271 937 271 q 958 257 958 271 q 958 244 958 252 q 954 172 954 213 q 957 110 954 136 l 958 101 q 947 85 958 85 q 932 110 937 85 q 915 148 928 138 q 867 159 902 159 q 836 158 862 159 l 836 95 q 849 35 836 46 q 890 22 862 24 q 905 11 905 21 q 878 0 905 0 l 737 0 q 685 1 690 0 q 680 10 680 2 q 707 23 680 22 q 747 42 737 24 q 759 132 757 60 q 760 158 759 140 l 710 159 q 547 153 651 159 l 547 174 q 681 317 599 233 l 787 426 q 824 451 810 451 q 834 448 832 451 q 836 428 836 444 l 836 183 m 760 183 q 764 364 764 316 q 587 183 722 326 l 760 183 z "},"":{"ha":998,"x_min":59,"x_max":958,"o":"m 305 732 q 384 700 357 726 q 410 630 410 675 q 349 518 410 567 q 203 469 289 469 q 98 498 136 469 q 59 563 59 527 q 74 594 59 580 q 110 608 88 608 q 144 576 144 608 q 140 557 144 570 q 137 534 137 543 q 156 506 137 517 q 197 495 174 495 q 289 551 251 495 q 327 659 327 608 q 317 695 327 683 q 286 707 307 707 q 210 677 251 707 q 197 671 202 671 q 186 684 186 671 q 199 698 186 691 q 264 746 229 714 q 309 793 300 778 q 317 831 317 808 q 301 883 317 866 q 252 901 285 901 q 180 867 212 901 q 148 796 148 834 q 153 772 148 781 q 166 764 157 764 q 192 779 176 764 q 206 789 203 789 q 218 777 218 789 q 200 752 218 770 q 158 734 182 734 q 113 752 130 734 q 96 802 96 771 q 152 892 96 855 q 279 928 207 928 q 359 902 323 928 q 395 836 395 876 q 305 732 395 783 m 764 924 l 808 924 l 234 -14 l 190 -14 l 764 924 m 836 183 q 911 196 893 183 q 935 255 929 209 q 947 271 937 271 q 958 257 958 271 q 958 244 958 252 q 954 172 954 213 q 958 110 954 136 l 958 101 q 947 85 958 85 q 932 110 937 85 q 915 148 928 138 q 868 159 903 159 q 836 158 862 159 l 836 95 q 849 35 836 46 q 891 22 862 24 q 906 11 906 21 q 878 0 906 0 l 738 0 q 685 1 690 0 q 680 10 680 2 q 707 23 680 22 q 747 42 737 24 q 759 132 757 60 q 760 158 759 140 l 710 159 q 547 153 652 159 l 547 174 q 681 317 600 233 l 787 426 q 824 451 810 451 q 834 448 832 451 q 836 428 836 444 l 836 183 m 760 183 q 764 364 764 316 q 587 183 722 326 l 760 183 z "},"":{"ha":941,"x_min":144,"x_max":781,"o":"m 654 596 l 739 681 l 781 638 l 696 553 q 764 363 764 467 q 750 270 764 313 q 696 172 737 227 l 781 87 l 739 45 l 654 130 q 463 61 566 61 q 272 130 358 61 l 186 45 l 144 87 l 230 172 q 161 363 161 258 q 229 554 161 460 l 144 638 l 186 681 l 271 596 q 463 664 359 664 q 654 596 560 664 m 703 363 q 633 533 703 463 q 463 604 562 604 q 293 533 363 604 q 222 363 222 462 q 292 193 222 263 q 463 122 363 122 q 632 193 562 122 q 703 363 703 263 z "}}}
